<svg xmlns="http://www.w3.org/2000/svg" xmlns:xlink="http://www.w3.org/1999/xlink" contentStyleType="text/css" data-diagram-type="STATE" height="565px" preserveAspectRatio="none" style="width:750px;height:565px;background:#FFFFFF;" version="1.1" viewBox="0 0 750 565" width="750px" zoomAndPan="magnify"><defs/><g><path d="M19.5,7 L724.44,7 A12.5,12.5 0 0 1 736.94,19.5 L736.94,33.2969 L7,33.2969 L7,19.5 A12.5,12.5 0 0 1 19.5,7" fill="#F1F1F1"/><rect fill="none" height="552.7469" rx="12.5" ry="12.5" style="stroke:#181818;stroke-width:0.5;" width="729.94" x="7" y="7"/><line style="stroke:#181818;stroke-width:0.5;" x1="7" x2="736.94" y1="33.2969" y2="33.2969"/><text fill="#000000" font-family="sans-serif" font-size="14" lengthAdjust="spacing" textLength="132.5215" x="305.7093" y="24.9951">RequisitoFuncional</text><g id="RequisitoFuncional.Creado"><rect fill="#F1F1F1" height="50" rx="12.5" ry="12.5" style="stroke:#181818;stroke-width:0.5;" width="70.1758" x="335.5" y="131.7469"/><line style="stroke:#181818;stroke-width:0.5;" x1="335.5" x2="405.6758" y1="158.0438" y2="158.0438"/><text fill="#000000" font-family="sans-serif" font-size="14" lengthAdjust="spacing" textLength="50.1758" x="345.5" y="149.742">Creado</text></g><g id="RequisitoFuncional.EnEdicion"><rect fill="#F1F1F1" height="50" rx="12.5" ry="12.5" style="stroke:#181818;stroke-width:0.5;" width="88.3662" x="218.5" y="234.7469"/><line style="stroke:#181818;stroke-width:0.5;" x1="218.5" x2="306.8662" y1="261.0438" y2="261.0438"/><text fill="#000000" font-family="sans-serif" font-size="14" lengthAdjust="spacing" textLength="68.3662" x="228.5" y="252.742">EnEdicion</text></g><g id="RequisitoFuncional.Validado"><rect fill="#F1F1F1" height="50" rx="12.5" ry="12.5" style="stroke:#181818;stroke-width:0.5;" width="80.8535" x="19" y="337.7469"/><line style="stroke:#181818;stroke-width:0.5;" x1="19" x2="99.8535" y1="364.0438" y2="364.0438"/><text fill="#000000" font-family="sans-serif" font-size="14" lengthAdjust="spacing" textLength="60.8535" x="29" y="355.742">Validado</text></g><g id="RequisitoFuncional.Eliminado"><rect fill="#F1F1F1" height="50" rx="12.5" ry="12.5" style="stroke:#181818;stroke-width:0.5;" width="89.0566" x="136" y="440.7469"/><line style="stroke:#181818;stroke-width:0.5;" x1="136" x2="225.0566" y1="467.0438" y2="467.0438"/><text fill="#000000" font-family="sans-serif" font-size="14" lengthAdjust="spacing" textLength="69.0566" x="146" y="458.742">Eliminado</text></g><ellipse cx="370.5" cy="84.7469" fill="#222222" rx="10" ry="10" style="stroke:#222222;stroke-width:1;"/><ellipse cx="38.5" cy="538.7469" fill="none" rx="11" ry="11" style="stroke:#222222;stroke-width:1;"/><ellipse cx="38.5" cy="538.7469" fill="#222222" rx="6" ry="6" style="stroke:#222222;stroke-width:1;"/><!--link *start*RequisitoFuncional to Creado--><g class="link" data-entity-1=".start.RequisitoFuncional" data-entity-2="Creado" data-source-line="2" data-uid="lnk3" id="link_.start.RequisitoFuncional_Creado"><path d="M370.5,94.8969 C370.5,104.1669 370.5,112.8869 370.5,125.5269" fill="none" id="*start*RequisitoFuncional-to-Creado" style="stroke:#181818;stroke-width:1;"/><polygon fill="#181818" points="370.5,131.5269,374.5,122.5269,370.5,126.5269,366.5,122.5269,370.5,131.5269" style="stroke:#181818;stroke-width:1;"/></g><!--link Creado to EnEdicion--><g class="link" data-entity-1="Creado" data-entity-2="EnEdicion" data-source-line="9" data-uid="lnk4" id="link_Creado_EnEdicion"><path d="M335.12,170.8069 C320.24,177.6469 303.6,187.2469 291.5,199.7469 C282.05,209.5069 277.3789,217.3783 272.6689,228.9683" fill="none" id="Creado-to-EnEdicion" style="stroke:#181818;stroke-width:1;"/><polygon fill="#181818" points="270.41,234.5269,277.5041,227.695,272.2924,229.8948,270.0927,224.6831,270.41,234.5269" style="stroke:#181818;stroke-width:1;"/><text fill="#000000" font-family="sans-serif" font-size="13" lengthAdjust="spacing" textLength="171.4692" x="292.5" y="212.8138">editarRequisitoFuncional()</text></g><!--link EnEdicion to Validado--><g class="link" data-entity-1="EnEdicion" data-entity-2="Validado" data-source-line="10" data-uid="lnk5" id="link_EnEdicion_Validado"><path d="M218.16,264.6969 C167.67,270.1269 89.57,281.7269 69.5,302.7469 C60.75,311.9169 58.2756,319.7504 57.8656,331.7104" fill="none" id="EnEdicion-to-Validado" style="stroke:#181818;stroke-width:1;"/><polygon fill="#181818" points="57.66,337.7069,61.966,328.8492,57.8313,332.7098,53.9707,328.5751,57.66,337.7069" style="stroke:#181818;stroke-width:1;"/><text fill="#000000" font-family="sans-serif" font-size="13" lengthAdjust="spacing" textLength="177.6455" x="70.5" y="315.8138">validarRequisitoFuncional()</text></g><!--link Creado to Eliminado--><g class="link" data-entity-1="Creado" data-entity-2="Eliminado" data-source-line="12" data-uid="lnk6" id="link_Creado_Eliminado"><path d="M405.79,163.7069 C426.7,169.2469 451.57,179.7969 464.5,199.7469 C491.16,240.8569 727.94,44.2969 462.5,387.7469 C433.56,425.1969 303.0613,448.1096 231.1113,458.2496" fill="none" id="Creado-to-Eliminado" style="stroke:#181818;stroke-width:1;"/><polygon fill="#181818" points="225.17,459.0869,234.6401,461.7918,230.1211,458.3891,233.5237,453.87,225.17,459.0869" style="stroke:#181818;stroke-width:1;"/><text fill="#000000" font-family="sans-serif" font-size="13" lengthAdjust="spacing" textLength="186.2466" x="524.5" y="315.8138">eliminarRequisitoFuncional()</text></g><!--link EnEdicion to Eliminado--><g class="link" data-entity-1="EnEdicion" data-entity-2="Eliminado" data-source-line="13" data-uid="lnk7" id="link_EnEdicion_Eliminado"><path d="M266.73,284.7869 C271.32,318.3469 274.84,379.9569 248.5,422.7469 C242.83,431.9669 239.3201,436.1807 230.2001,442.1507" fill="none" id="EnEdicion-to-Eliminado" style="stroke:#181818;stroke-width:1;"/><polygon fill="#181818" points="225.18,445.4369,234.9009,443.8543,229.3634,442.6984,230.5193,437.1609,225.18,445.4369" style="stroke:#181818;stroke-width:1;"/><text fill="#000000" font-family="sans-serif" font-size="13" lengthAdjust="spacing" textLength="186.2466" x="271.5" y="367.3138">eliminarRequisitoFuncional()</text></g><!--link Validado to Eliminado--><g class="link" data-entity-1="Validado" data-entity-2="Eliminado" data-source-line="14" data-uid="lnk8" id="link_Validado_Eliminado"><path d="M53.92,387.8669 C52.64,399.4169 53.36,412.8669 60.5,422.7469 C77.69,446.5469 103.495,455.9406 130.005,460.4506" fill="none" id="Validado-to-Eliminado" style="stroke:#181818;stroke-width:1;"/><polygon fill="#181818" points="135.92,461.4569,127.7183,456.0041,130.9908,460.6183,126.3766,463.8908,135.92,461.4569" style="stroke:#181818;stroke-width:1;"/><text fill="#000000" font-family="sans-serif" font-size="13" lengthAdjust="spacing" textLength="186.2466" x="61.5" y="418.8138">eliminarRequisitoFuncional()</text></g><!--link Validado to *end*RequisitoFuncional--><g class="link" data-entity-1="Validado" data-entity-2=".end.RequisitoFuncional" data-source-line="16" data-uid="lnk10" id="link_Validado_.end.RequisitoFuncional"><path d="M53.77,388.0869 C52.55,393.8469 51.37,399.9969 50.5,405.7469 C43.65,450.7869 40.5449,499.1257 39.3349,521.4357" fill="none" id="Validado-to-*end*RequisitoFuncional" style="stroke:#181818;stroke-width:1;"/><polygon fill="#181818" points="39.01,527.4269,43.4915,518.6567,39.2808,522.4342,35.5033,518.2235,39.01,527.4269" style="stroke:#181818;stroke-width:1;"/></g><!--link Eliminado to *end*RequisitoFuncional--><g class="link" data-entity-1="Eliminado" data-entity-2=".end.RequisitoFuncional" data-source-line="17" data-uid="lnk11" id="link_Eliminado_.end.RequisitoFuncional"><path d="M135.96,489.0169 C104.89,504.5569 71.2954,521.3412 53.5154,530.2412" fill="none" id="Eliminado-to-*end*RequisitoFuncional" style="stroke:#181818;stroke-width:1;"/><polygon fill="#181818" points="48.15,532.9269,57.9885,532.4752,52.6211,530.6888,54.4076,525.3214,48.15,532.9269" style="stroke:#181818;stroke-width:1;"/></g><!--SRC=[Aov9B4bL24ejBCqipYp9TolDIyxCpqlCKQZcKb28refLqDMrKt0kIarCoUS2YXI3bKFvCAvhdcjA9aWRN2GiCISp1KL9JcPkPXxK48XsiCbmhGfM2gafcIM9HPXEqT04wa4e16c3cG_KLGPcOjU6PXVC3I2x86pYR2D18znX9Eb3rmWCTv0ZuDfXOhK0]--></g></svg>