<svg xmlns="http://www.w3.org/2000/svg" xmlns:xlink="http://www.w3.org/1999/xlink" contentStyleType="text/css" data-diagram-type="CLASS" height="937px" preserveAspectRatio="none" style="width:1400px;height:937px;background:#FFFFFF;" version="1.1" viewBox="0 0 1400 937" width="1400px" zoomAndPan="magnify"><?plantuml 1.2026.3beta6?><defs/><g><!--class U--><g class="entity" data-qualified-name="U" data-source-line="6" id="ent0002"><rect fill="#F1F1F1" height="162.0781" rx="2.5" ry="2.5" style="stroke:#181818;stroke-width:0.5;" width="191.9902" x="51.57" y="203.89"/><ellipse cx="116.7131" cy="219.89" fill="#ADD1B2" rx="11" ry="11" style="stroke:#181818;stroke-width:1;"/><path d="M120.8224,225.89 L113.1037,225.89 L113.1037,213.4994 L120.8224,213.4994 L120.8224,215.6556 L115.5568,215.6556 L115.5568,218.3275 L120.3224,218.3275 L120.3224,220.4838 L115.5568,220.4838 L115.5568,223.7338 L120.8224,223.7338 L120.8224,225.89 Z " fill="#000000"/><text fill="#000000" font-family="sans-serif" font-size="14" lengthAdjust="spacing" textLength="53.2041" x="137.2131" y="224.7367">Usuario</text><line style="stroke:#181818;stroke-width:0.5;" x1="52.57" x2="242.5602" y1="235.89" y2="235.89"/><g data-visibility-modifier="IE_MANDATORY"><ellipse cx="62.57" cy="249.5384" fill="#000000" rx="3" ry="3" style="stroke:#000000;stroke-width:1;"/></g><text fill="#000000" font-family="sans-serif" font-size="14" lengthAdjust="spacing" textLength="92.0049" x="71.57" y="252.8851">_id : ObjectId</text><line style="stroke:#181818;stroke-width:1;" x1="52.57" x2="242.5602" y1="260.1869" y2="260.1869"/><text fill="#000000" font-family="sans-serif" font-size="14" lengthAdjust="spacing" textLength="109.7305" x="57.57" y="277.182">nombre : String</text><text fill="#000000" font-family="sans-serif" font-size="14" lengthAdjust="spacing" textLength="94.0078" x="57.57" y="293.4789">email : String</text><text fill="#000000" font-family="sans-serif" font-size="14" lengthAdjust="spacing" textLength="72.0576" x="57.57" y="309.7757">rol : Enum</text><text fill="#000000" font-family="sans-serif" font-size="14" lengthAdjust="spacing" textLength="112.8135" x="57.57" y="326.0726">activo : Boolean</text><text fill="#000000" font-family="sans-serif" font-size="14" lengthAdjust="spacing" textLength="179.9902" x="57.57" y="342.3695">intentosFallidos : Number</text><text fill="#000000" font-family="sans-serif" font-size="14" lengthAdjust="spacing" textLength="161.2939" x="57.57" y="358.6664">bloqueadoHasta : Date</text></g><!--class Z--><g class="entity" data-qualified-name="Z" data-source-line="17" id="ent0003"><rect fill="#F1F1F1" height="96.8906" rx="2.5" ry="2.5" style="stroke:#181818;stroke-width:0.5;" width="147.4473" x="1064.85" y="7"/><ellipse cx="1116.5194" cy="23" fill="#ADD1B2" rx="11" ry="11" style="stroke:#181818;stroke-width:1;"/><path d="M1120.6288,29 L1112.9101,29 L1112.9101,16.6094 L1120.6288,16.6094 L1120.6288,18.7656 L1115.3632,18.7656 L1115.3632,21.4375 L1120.1288,21.4375 L1120.1288,23.5938 L1115.3632,23.5938 L1115.3632,26.8438 L1120.6288,26.8438 L1120.6288,29 Z " fill="#000000"/><text fill="#000000" font-family="sans-serif" font-size="14" lengthAdjust="spacing" textLength="35.6084" x="1137.0194" y="27.8467">Zona</text><line style="stroke:#181818;stroke-width:0.5;" x1="1065.85" x2="1211.2973" y1="39" y2="39"/><g data-visibility-modifier="IE_MANDATORY"><ellipse cx="1075.85" cy="52.6484" fill="#000000" rx="3" ry="3" style="stroke:#000000;stroke-width:1;"/></g><text fill="#000000" font-family="sans-serif" font-size="14" lengthAdjust="spacing" textLength="92.0049" x="1084.85" y="55.9951">_id : ObjectId</text><line style="stroke:#181818;stroke-width:1;" x1="1065.85" x2="1211.2973" y1="63.2969" y2="63.2969"/><text fill="#000000" font-family="sans-serif" font-size="14" lengthAdjust="spacing" textLength="109.7305" x="1070.85" y="80.292">nombre : String</text><text fill="#000000" font-family="sans-serif" font-size="14" lengthAdjust="spacing" textLength="135.4473" x="1070.85" y="96.5889">descripcion : String</text></g><!--class M--><g class="entity" data-qualified-name="M" data-source-line="24" id="ent0004"><rect fill="#F1F1F1" height="129.4844" rx="2.5" ry="2.5" style="stroke:#181818;stroke-width:0.5;" width="321.5518" x="821.79" y="220.19"/><ellipse cx="960.0332" cy="236.19" fill="#ADD1B2" rx="11" ry="11" style="stroke:#181818;stroke-width:1;"/><path d="M964.1425,242.19 L956.4238,242.19 L956.4238,229.7994 L964.1425,229.7994 L964.1425,231.9556 L958.8769,231.9556 L958.8769,234.6275 L963.6425,234.6275 L963.6425,236.7838 L958.8769,236.7838 L958.8769,240.0338 L964.1425,240.0338 L964.1425,242.19 Z " fill="#000000"/><text fill="#000000" font-family="sans-serif" font-size="14" lengthAdjust="spacing" textLength="36.5654" x="980.5332" y="241.0367">Mesa</text><line style="stroke:#181818;stroke-width:0.5;" x1="822.79" x2="1142.3418" y1="252.19" y2="252.19"/><g data-visibility-modifier="IE_MANDATORY"><ellipse cx="832.79" cy="265.8384" fill="#000000" rx="3" ry="3" style="stroke:#000000;stroke-width:1;"/></g><text fill="#000000" font-family="sans-serif" font-size="14" lengthAdjust="spacing" textLength="92.0049" x="841.79" y="269.1851">_id : ObjectId</text><line style="stroke:#181818;stroke-width:1;" x1="822.79" x2="1142.3418" y1="276.4869" y2="276.4869"/><text fill="#000000" font-family="sans-serif" font-size="14" lengthAdjust="spacing" textLength="124.1748" x="827.79" y="293.482">numero : Number</text><text fill="#000000" font-family="sans-serif" font-size="14" lengthAdjust="spacing" textLength="101.2744" x="827.79" y="309.7789">estado : Enum</text><text fill="#000000" font-family="sans-serif" font-size="14" lengthAdjust="spacing" textLength="164.1855" x="827.79" y="326.0757">zona_id : ObjectId &#171;FK&#187;</text><text fill="#000000" font-family="sans-serif" font-size="14" lengthAdjust="spacing" textLength="309.5518" x="827.79" y="342.3726">comanda_activa_id : ObjectId &#171;FK, nullable&#187;</text></g><!--class C--><g class="entity" data-qualified-name="C" data-source-line="33" id="ent0005"><rect fill="#F1F1F1" height="129.4844" rx="2.5" ry="2.5" style="stroke:#181818;stroke-width:0.5;" width="210.0029" x="344.57" y="490.42"/><ellipse cx="411.8732" cy="506.42" fill="#ADD1B2" rx="11" ry="11" style="stroke:#181818;stroke-width:1;"/><path d="M415.9826,512.42 L408.2638,512.42 L408.2638,500.0294 L415.9826,500.0294 L415.9826,502.1856 L410.717,502.1856 L410.717,504.8575 L415.4826,504.8575 L415.4826,507.0138 L410.717,507.0138 L410.717,510.2638 L415.9826,510.2638 L415.9826,512.42 Z " fill="#000000"/><text fill="#000000" font-family="sans-serif" font-size="14" lengthAdjust="spacing" textLength="66.8965" x="432.3732" y="511.2667">Comanda</text><line style="stroke:#181818;stroke-width:0.5;" x1="345.57" x2="553.5729" y1="522.42" y2="522.42"/><g data-visibility-modifier="IE_MANDATORY"><ellipse cx="355.57" cy="536.0684" fill="#000000" rx="3" ry="3" style="stroke:#000000;stroke-width:1;"/></g><text fill="#000000" font-family="sans-serif" font-size="14" lengthAdjust="spacing" textLength="92.0049" x="364.57" y="539.4151">_id : ObjectId</text><line style="stroke:#181818;stroke-width:1;" x1="345.57" x2="553.5729" y1="546.7169" y2="546.7169"/><text fill="#000000" font-family="sans-serif" font-size="14" lengthAdjust="spacing" textLength="168.9434" x="350.57" y="563.712">mesa_id : ObjectId &#171;FK&#187;</text><text fill="#000000" font-family="sans-serif" font-size="14" lengthAdjust="spacing" textLength="198.0029" x="350.57" y="580.0089">camarero_id : ObjectId &#171;FK&#187;</text><text fill="#000000" font-family="sans-serif" font-size="14" lengthAdjust="spacing" textLength="101.2744" x="350.57" y="596.3057">estado : Enum</text><text fill="#000000" font-family="sans-serif" font-size="14" lengthAdjust="spacing" textLength="112.9092" x="350.57" y="612.6026">creadaEn : Date</text></g><!--class LC--><g class="entity" data-qualified-name="LC" data-source-line="42" id="ent0006"><rect fill="#F1F1F1" height="178.375" rx="2.5" ry="2.5" style="stroke:#181818;stroke-width:0.5;" width="291.4326" x="613.85" y="744.34"/><ellipse cx="702.9906" cy="760.34" fill="#ADD1B2" rx="11" ry="11" style="stroke:#181818;stroke-width:1;"/><path d="M707.1,766.34 L699.3813,766.34 L699.3813,753.9494 L707.1,753.9494 L707.1,756.1056 L701.8344,756.1056 L701.8344,758.7775 L706.6,758.7775 L706.6,760.9338 L701.8344,760.9338 L701.8344,764.1838 L707.1,764.1838 L707.1,766.34 Z " fill="#000000"/><text fill="#000000" font-family="sans-serif" font-size="14" lengthAdjust="spacing" textLength="104.6514" x="723.4906" y="765.1867">LineaComanda</text><line style="stroke:#181818;stroke-width:0.5;" x1="614.85" x2="904.2826" y1="776.34" y2="776.34"/><g data-visibility-modifier="IE_MANDATORY"><ellipse cx="624.85" cy="789.9884" fill="#000000" rx="3" ry="3" style="stroke:#000000;stroke-width:1;"/></g><text fill="#000000" font-family="sans-serif" font-size="14" lengthAdjust="spacing" textLength="92.0049" x="633.85" y="793.3351">_id : ObjectId</text><line style="stroke:#181818;stroke-width:1;" x1="614.85" x2="904.2826" y1="800.6369" y2="800.6369"/><text fill="#000000" font-family="sans-serif" font-size="14" lengthAdjust="spacing" textLength="195.6377" x="619.85" y="817.632">comanda_id : ObjectId &#171;FK&#187;</text><text fill="#000000" font-family="sans-serif" font-size="14" lengthAdjust="spacing" textLength="166.2295" x="619.85" y="833.9289">plato_id : ObjectId &#171;FK&#187;</text><text fill="#000000" font-family="sans-serif" font-size="14" lengthAdjust="spacing" textLength="279.4326" x="619.85" y="850.2257">tarifa_menu_id : ObjectId &#171;FK, nullable&#187;</text><text fill="#000000" font-family="sans-serif" font-size="14" lengthAdjust="spacing" textLength="130.7373" x="619.85" y="866.5226">cantidad : Number</text><text fill="#000000" font-family="sans-serif" font-size="14" lengthAdjust="spacing" textLength="156.3105" x="619.85" y="882.8195">observaciones : String</text><text fill="#000000" font-family="sans-serif" font-size="14" lengthAdjust="spacing" textLength="101.2744" x="619.85" y="899.1164">estado : Enum</text><text fill="#000000" font-family="sans-serif" font-size="14" lengthAdjust="spacing" textLength="124.6533" x="619.85" y="915.4132">esMenu : Boolean</text></g><!--class P--><g class="entity" data-qualified-name="P" data-source-line="54" id="ent0007"><rect fill="#F1F1F1" height="145.7813" rx="2.5" ry="2.5" style="stroke:#181818;stroke-width:0.5;" width="210.1396" x="654.5" y="482.27"/><ellipse cx="737.8369" cy="498.27" fill="#ADD1B2" rx="11" ry="11" style="stroke:#181818;stroke-width:1;"/><path d="M741.9463,504.27 L734.2275,504.27 L734.2275,491.8794 L741.9463,491.8794 L741.9463,494.0356 L736.6807,494.0356 L736.6807,496.7075 L741.4463,496.7075 L741.4463,498.8638 L736.6807,498.8638 L736.6807,502.1138 L741.9463,502.1138 L741.9463,504.27 Z " fill="#000000"/><text fill="#000000" font-family="sans-serif" font-size="14" lengthAdjust="spacing" textLength="34.9658" x="758.3369" y="503.1167">Plato</text><line style="stroke:#181818;stroke-width:0.5;" x1="655.5" x2="863.6396" y1="514.27" y2="514.27"/><g data-visibility-modifier="IE_MANDATORY"><ellipse cx="665.5" cy="527.9184" fill="#000000" rx="3" ry="3" style="stroke:#000000;stroke-width:1;"/></g><text fill="#000000" font-family="sans-serif" font-size="14" lengthAdjust="spacing" textLength="92.0049" x="674.5" y="531.2651">_id : ObjectId</text><line style="stroke:#181818;stroke-width:1;" x1="655.5" x2="863.6396" y1="538.5669" y2="538.5669"/><text fill="#000000" font-family="sans-serif" font-size="14" lengthAdjust="spacing" textLength="109.7305" x="660.5" y="555.562">nombre : String</text><text fill="#000000" font-family="sans-serif" font-size="14" lengthAdjust="spacing" textLength="113.2646" x="660.5" y="571.8589">precio : Number</text><text fill="#000000" font-family="sans-serif" font-size="14" lengthAdjust="spacing" textLength="119.9023" x="660.5" y="588.1557">categoria : Enum</text><text fill="#000000" font-family="sans-serif" font-size="14" lengthAdjust="spacing" textLength="141.9824" x="660.5" y="604.4526">disponible : Boolean</text><text fill="#000000" font-family="sans-serif" font-size="14" lengthAdjust="spacing" textLength="198.1396" x="660.5" y="620.7495">disponibleEnMenu : Boolean</text></g><!--class TM--><g class="entity" data-qualified-name="TM" data-source-line="64" id="ent0008"><rect fill="#F1F1F1" height="129.4844" rx="2.5" ry="2.5" style="stroke:#181818;stroke-width:0.5;" width="139.6475" x="964.75" y="490.42"/><ellipse cx="992.7662" cy="506.42" fill="#ADD1B2" rx="11" ry="11" style="stroke:#181818;stroke-width:1;"/><path d="M996.8755,512.42 L989.1568,512.42 L989.1568,500.0294 L996.8755,500.0294 L996.8755,502.1856 L991.6099,502.1856 L991.6099,504.8575 L996.3755,504.8575 L996.3755,507.0138 L991.6099,507.0138 L991.6099,510.2638 L996.8755,510.2638 L996.8755,512.42 Z " fill="#000000"/><text fill="#000000" font-family="sans-serif" font-size="14" lengthAdjust="spacing" textLength="78.7227" x="1009.6586" y="511.2667">TarifaMenu</text><line style="stroke:#181818;stroke-width:0.5;" x1="965.75" x2="1103.3975" y1="522.42" y2="522.42"/><g data-visibility-modifier="IE_MANDATORY"><ellipse cx="975.75" cy="536.0684" fill="#000000" rx="3" ry="3" style="stroke:#000000;stroke-width:1;"/></g><text fill="#000000" font-family="sans-serif" font-size="14" lengthAdjust="spacing" textLength="92.0049" x="984.75" y="539.4151">_id : ObjectId</text><line style="stroke:#181818;stroke-width:1;" x1="965.75" x2="1103.3975" y1="546.7169" y2="546.7169"/><text fill="#000000" font-family="sans-serif" font-size="14" lengthAdjust="spacing" textLength="80.6777" x="970.75" y="563.712">tipo : Enum</text><text fill="#000000" font-family="sans-serif" font-size="14" lengthAdjust="spacing" textLength="127.6475" x="970.75" y="580.0089">modalidad : Enum</text><text fill="#000000" font-family="sans-serif" font-size="14" lengthAdjust="spacing" textLength="113.2646" x="970.75" y="596.3057">precio : Number</text><text fill="#000000" font-family="sans-serif" font-size="14" lengthAdjust="spacing" textLength="122.958" x="970.75" y="612.6026">vigente : Boolean</text></g><!--class T--><g class="entity" data-qualified-name="T" data-source-line="73" id="ent0009"><rect fill="#F1F1F1" height="178.375" rx="2.5" ry="2.5" style="stroke:#181818;stroke-width:0.5;" width="267.1377" x="7" y="744.34"/><ellipse cx="115.1445" cy="760.34" fill="#ADD1B2" rx="11" ry="11" style="stroke:#181818;stroke-width:1;"/><path d="M119.2539,766.34 L111.5352,766.34 L111.5352,753.9494 L119.2539,753.9494 L119.2539,756.1056 L113.9883,756.1056 L113.9883,758.7775 L118.7539,758.7775 L118.7539,760.9338 L113.9883,760.9338 L113.9883,764.1838 L119.2539,764.1838 L119.2539,766.34 Z " fill="#000000"/><text fill="#000000" font-family="sans-serif" font-size="14" lengthAdjust="spacing" textLength="42.3486" x="135.6445" y="765.1867">Ticket</text><line style="stroke:#181818;stroke-width:0.5;" x1="8" x2="273.1377" y1="776.34" y2="776.34"/><g data-visibility-modifier="IE_MANDATORY"><ellipse cx="18" cy="789.9884" fill="#000000" rx="3" ry="3" style="stroke:#000000;stroke-width:1;"/></g><text fill="#000000" font-family="sans-serif" font-size="14" lengthAdjust="spacing" textLength="92.0049" x="27" y="793.3351">_id : ObjectId</text><line style="stroke:#181818;stroke-width:1;" x1="8" x2="273.1377" y1="800.6369" y2="800.6369"/><text fill="#000000" font-family="sans-serif" font-size="14" lengthAdjust="spacing" textLength="195.6377" x="13" y="817.632">comanda_id : ObjectId &#171;FK&#187;</text><text fill="#000000" font-family="sans-serif" font-size="14" lengthAdjust="spacing" textLength="198.0029" x="13" y="833.9289">camarero_id : ObjectId &#171;FK&#187;</text><text fill="#000000" font-family="sans-serif" font-size="14" lengthAdjust="spacing" textLength="101.8691" x="13" y="850.2257">total : Number</text><text fill="#000000" font-family="sans-serif" font-size="14" lengthAdjust="spacing" textLength="101.2744" x="13" y="866.5226">estado : Enum</text><text fill="#000000" font-family="sans-serif" font-size="14" lengthAdjust="spacing" textLength="112.8955" x="13" y="882.8195">creadoEn : Date</text><text fill="#000000" font-family="sans-serif" font-size="14" lengthAdjust="spacing" textLength="121.7344" x="13" y="899.1164">cobradoEn : Date</text><text fill="#000000" font-family="sans-serif" font-size="14" lengthAdjust="spacing" textLength="255.1377" x="13" y="915.4132">cobradoPor : ObjectId &#171;FK, nullable&#187;</text></g><!--class R--><g class="entity" data-qualified-name="R" data-source-line="85" id="ent0010"><rect fill="#F1F1F1" height="178.375" rx="2.5" ry="2.5" style="stroke:#181818;stroke-width:0.5;" width="180.9434" x="1204.1" y="465.97"/><ellipse cx="1261.8876" cy="481.97" fill="#ADD1B2" rx="11" ry="11" style="stroke:#181818;stroke-width:1;"/><path d="M1265.997,487.97 L1258.2782,487.97 L1258.2782,475.5794 L1265.997,475.5794 L1265.997,477.7356 L1260.7313,477.7356 L1260.7313,480.4075 L1265.497,480.4075 L1265.497,482.5638 L1260.7313,482.5638 L1260.7313,485.8138 L1265.997,485.8138 L1265.997,487.97 Z " fill="#000000"/><text fill="#000000" font-family="sans-serif" font-size="14" lengthAdjust="spacing" textLength="56.8682" x="1282.3876" y="486.8167">Reserva</text><line style="stroke:#181818;stroke-width:0.5;" x1="1205.1" x2="1384.0434" y1="497.97" y2="497.97"/><g data-visibility-modifier="IE_MANDATORY"><ellipse cx="1215.1" cy="511.6184" fill="#000000" rx="3" ry="3" style="stroke:#000000;stroke-width:1;"/></g><text fill="#000000" font-family="sans-serif" font-size="14" lengthAdjust="spacing" textLength="92.0049" x="1224.1" y="514.9651">_id : ObjectId</text><line style="stroke:#181818;stroke-width:1;" x1="1205.1" x2="1384.0434" y1="522.2669" y2="522.2669"/><text fill="#000000" font-family="sans-serif" font-size="14" lengthAdjust="spacing" textLength="158.874" x="1210.1" y="539.262">nombreCliente : String</text><text fill="#000000" font-family="sans-serif" font-size="14" lengthAdjust="spacing" textLength="112.9365" x="1210.1" y="555.5589">telefono : String</text><text fill="#000000" font-family="sans-serif" font-size="14" lengthAdjust="spacing" textLength="152.9131" x="1210.1" y="571.8557">comensales : Number</text><text fill="#000000" font-family="sans-serif" font-size="14" lengthAdjust="spacing" textLength="85.7705" x="1210.1" y="588.1526">fecha : Date</text><text fill="#000000" font-family="sans-serif" font-size="14" lengthAdjust="spacing" textLength="168.9434" x="1210.1" y="604.4495">mesa_id : ObjectId &#171;FK&#187;</text><text fill="#000000" font-family="sans-serif" font-size="14" lengthAdjust="spacing" textLength="164.1855" x="1210.1" y="620.7464">zona_id : ObjectId &#171;FK&#187;</text><text fill="#000000" font-family="sans-serif" font-size="14" lengthAdjust="spacing" textLength="101.2744" x="1210.1" y="637.0432">estado : Enum</text></g><!--class LA--><g class="entity" data-qualified-name="LA" data-source-line="97" id="ent0011"><rect fill="#F1F1F1" height="145.7813" rx="2.5" ry="2.5" style="stroke:#181818;stroke-width:0.5;" width="194.6494" x="50.24" y="482.27"/><ellipse cx="98.9358" cy="498.27" fill="#ADD1B2" rx="11" ry="11" style="stroke:#181818;stroke-width:1;"/><path d="M103.0452,504.27 L95.3264,504.27 L95.3264,491.8794 L103.0452,491.8794 L103.0452,494.0356 L97.7796,494.0356 L97.7796,496.7075 L102.5452,496.7075 L102.5452,498.8638 L97.7796,498.8638 L97.7796,502.1138 L103.0452,502.1138 L103.0452,504.27 Z " fill="#000000"/><text fill="#000000" font-family="sans-serif" font-size="14" lengthAdjust="spacing" textLength="88.7578" x="119.4358" y="503.1167">LogAuditoria</text><line style="stroke:#181818;stroke-width:0.5;" x1="51.24" x2="243.8894" y1="514.27" y2="514.27"/><g data-visibility-modifier="IE_MANDATORY"><ellipse cx="61.24" cy="527.9184" fill="#000000" rx="3" ry="3" style="stroke:#000000;stroke-width:1;"/></g><text fill="#000000" font-family="sans-serif" font-size="14" lengthAdjust="spacing" textLength="92.0049" x="70.24" y="531.2651">_id : ObjectId</text><line style="stroke:#181818;stroke-width:1;" x1="51.24" x2="243.8894" y1="538.5669" y2="538.5669"/><text fill="#000000" font-family="sans-serif" font-size="14" lengthAdjust="spacing" textLength="100.7002" x="56.24" y="555.562">accion : String</text><text fill="#000000" font-family="sans-serif" font-size="14" lengthAdjust="spacing" textLength="182.6494" x="56.24" y="571.8589">usuario_id : ObjectId &#171;FK&#187;</text><text fill="#000000" font-family="sans-serif" font-size="14" lengthAdjust="spacing" textLength="170.9668" x="56.24" y="588.1557">entidadAfectada : String</text><text fill="#000000" font-family="sans-serif" font-size="14" lengthAdjust="spacing" textLength="138.4619" x="56.24" y="604.4526">entidadId : ObjectId</text><text fill="#000000" font-family="sans-serif" font-size="14" lengthAdjust="spacing" textLength="122.5957" x="56.24" y="620.7495">timestamp : Date</text></g><!--link Z to M--><g class="link" data-entity-1="ent0003" data-entity-2="ent0004" data-link-type="crowfoot" data-source-line="109" id="lnk12"><path codeLine="109" d="M1104.09,112.11 C1104.09,145.8 1104.09,165 1104.09,201.78" fill="none" id="Z-M" style="stroke:#181818;stroke-width:1;"/><line style="stroke:#181818;stroke-width:1;" x1="1100.09" x2="1108.09" y1="108.11" y2="108.11"/><line style="stroke:#181818;stroke-width:1;" x1="1100.09" x2="1108.09" y1="111.11" y2="111.11"/><line style="stroke:#181818;stroke-width:1;" x1="1104.09" x2="1104.09" y1="112.11" y2="104.11"/><line style="stroke:#181818;stroke-width:1;" x1="1104.09" x2="1110.09" y1="211.78" y2="219.78"/><line style="stroke:#181818;stroke-width:1;" x1="1104.09" x2="1098.09" y1="211.78" y2="219.78"/><line style="stroke:#181818;stroke-width:1;" x1="1104.09" x2="1104.09" y1="211.78" y2="219.78"/><ellipse cx="1104.09" cy="205.78" fill="none" rx="4" ry="4" style="stroke:#181818;stroke-width:1;"/><text fill="#000000" font-family="sans-serif" font-size="13" lengthAdjust="spacing" textLength="56.2847" x="1047.09" y="158.0169">contiene</text></g><!--link Z to R--><g class="link" data-entity-1="ent0003" data-entity-2="ent0010" data-link-type="crowfoot" data-source-line="110" id="lnk13"><path codeLine="110" d="M1208.19,112.27 C1208.19,196.02 1208.19,342.21 1208.19,447.89" fill="none" id="Z-R" style="stroke:#181818;stroke-width:1;"/><line style="stroke:#181818;stroke-width:1;" x1="1204.19" x2="1212.19" y1="108.27" y2="108.27"/><line style="stroke:#181818;stroke-width:1;" x1="1204.19" x2="1212.19" y1="111.27" y2="111.27"/><line style="stroke:#181818;stroke-width:1;" x1="1208.19" x2="1208.19" y1="112.27" y2="104.27"/><line style="stroke:#181818;stroke-width:1;" x1="1208.19" x2="1214.19" y1="457.89" y2="465.89"/><line style="stroke:#181818;stroke-width:1;" x1="1208.19" x2="1202.19" y1="457.89" y2="465.89"/><line style="stroke:#181818;stroke-width:1;" x1="1208.19" x2="1208.19" y1="457.89" y2="465.89"/><ellipse cx="1208.19" cy="451.89" fill="none" rx="4" ry="4" style="stroke:#181818;stroke-width:1;"/><text fill="#000000" font-family="sans-serif" font-size="13" lengthAdjust="spacing" textLength="56.1577" x="1151.19" y="281.1469">organiza</text></g><!--link M to R--><g class="link" data-entity-1="ent0004" data-entity-2="ent0010" data-link-type="crowfoot" data-source-line="111" id="lnk14"><path codeLine="111" d="M1123.87,357.98 C1123.87,412.92 1123.87,474.72 1123.87,474.72 C1123.87,474.72 1144.96,474.72 1185.72,474.72" fill="none" id="M-R" style="stroke:#181818;stroke-width:1;"/><line style="stroke:#181818;stroke-width:1;" x1="1119.87" x2="1127.87" y1="353.98" y2="353.98"/><line style="stroke:#181818;stroke-width:1;" x1="1119.87" x2="1127.87" y1="356.98" y2="356.98"/><line style="stroke:#181818;stroke-width:1;" x1="1123.87" x2="1123.87" y1="357.98" y2="349.98"/><line style="stroke:#181818;stroke-width:1;" x1="1195.72" x2="1203.72" y1="474.72" y2="468.72"/><line style="stroke:#181818;stroke-width:1;" x1="1195.72" x2="1203.72" y1="474.72" y2="480.72"/><line style="stroke:#181818;stroke-width:1;" x1="1195.72" x2="1203.72" y1="474.72" y2="474.72"/><ellipse cx="1189.72" cy="474.72" fill="none" rx="4" ry="4" style="stroke:#181818;stroke-width:1;"/><text fill="#000000" font-family="sans-serif" font-size="13" lengthAdjust="spacing" textLength="68.0215" x="1054.87" y="448.3469">se reserva</text></g><!--link M to C--><g class="link" data-entity-1="ent0004" data-entity-2="ent0005" data-link-type="crowfoot" data-source-line="112" id="lnk15"><path codeLine="112" d="M813.57,285.72 C668.07,285.72 484.57,285.72 484.57,285.72 C484.57,285.72 484.57,392.19 484.57,471.93" fill="none" id="M-C" style="stroke:#181818;stroke-width:1;"/><line style="stroke:#181818;stroke-width:1;" x1="817.57" x2="817.57" y1="281.72" y2="289.72"/><line style="stroke:#181818;stroke-width:1;" x1="814.57" x2="814.57" y1="281.72" y2="289.72"/><line style="stroke:#181818;stroke-width:1;" x1="813.57" x2="821.57" y1="285.72" y2="285.72"/><line style="stroke:#181818;stroke-width:1;" x1="484.57" x2="490.57" y1="481.93" y2="489.93"/><line style="stroke:#181818;stroke-width:1;" x1="484.57" x2="478.57" y1="481.93" y2="489.93"/><line style="stroke:#181818;stroke-width:1;" x1="484.57" x2="484.57" y1="481.93" y2="489.93"/><ellipse cx="484.57" cy="475.93" fill="none" rx="4" ry="4" style="stroke:#181818;stroke-width:1;"/><text fill="#000000" font-family="sans-serif" font-size="13" lengthAdjust="spacing" textLength="29.561" x="520.96" y="281.7869">abre</text></g><!--link U to C--><g class="link" data-entity-1="ent0002" data-entity-2="ent0005" data-link-type="crowfoot" data-source-line="113" id="lnk16"><path codeLine="113" d="M251.96,355.72 C328.44,355.72 414.57,355.72 414.57,355.72 C414.57,355.72 414.57,413.93 414.57,472.13" fill="none" id="U-C" style="stroke:#181818;stroke-width:1;"/><line style="stroke:#181818;stroke-width:1;" x1="247.96" x2="247.96" y1="359.72" y2="351.72"/><line style="stroke:#181818;stroke-width:1;" x1="250.96" x2="250.96" y1="359.72" y2="351.72"/><line style="stroke:#181818;stroke-width:1;" x1="251.96" x2="243.96" y1="355.72" y2="355.72"/><line style="stroke:#181818;stroke-width:1;" x1="414.57" x2="420.57" y1="482.13" y2="490.13"/><line style="stroke:#181818;stroke-width:1;" x1="414.57" x2="408.57" y1="482.13" y2="490.13"/><line style="stroke:#181818;stroke-width:1;" x1="414.57" x2="414.57" y1="482.13" y2="490.13"/><ellipse cx="414.57" cy="476.13" fill="none" rx="4" ry="4" style="stroke:#181818;stroke-width:1;"/><text fill="#000000" font-family="sans-serif" font-size="13" lengthAdjust="spacing" textLength="55.8911" x="340.47" y="351.7869">gestiona</text></g><!--link C to LC--><g class="link" data-entity-1="ent0005" data-entity-2="ent0006" data-link-type="crowfoot" data-source-line="114" id="lnk17"><path codeLine="114" d="M562.81,555.72 C604.27,555.72 634.18,555.72 634.18,555.72 C634.18,555.72 634.18,654.89 634.18,736.1" fill="none" id="C-LC" style="stroke:#181818;stroke-width:1;"/><line style="stroke:#181818;stroke-width:1;" x1="558.81" x2="558.81" y1="559.72" y2="551.72"/><line style="stroke:#181818;stroke-width:1;" x1="561.81" x2="561.81" y1="559.72" y2="551.72"/><line style="stroke:#181818;stroke-width:1;" x1="562.81" x2="554.81" y1="555.72" y2="555.72"/><line style="stroke:#181818;stroke-width:1;" x1="634.18" x2="640.18" y1="736.1" y2="744.1"/><line style="stroke:#181818;stroke-width:1;" x1="634.18" x2="628.18" y1="736.1" y2="744.1"/><line style="stroke:#181818;stroke-width:1;" x1="634.18" x2="634.18" y1="736.1" y2="744.1"/><line style="stroke:#181818;stroke-width:1;" x1="638.18" x2="630.18" y1="734.1" y2="734.1"/><text fill="#000000" font-family="sans-serif" font-size="13" lengthAdjust="spacing" textLength="44.5034" x="589.18" y="606.2969">detalla</text></g><!--link P to LC--><g class="link" data-entity-1="ent0007" data-entity-2="ent0006" data-link-type="crowfoot" data-source-line="115" id="lnk18"><path codeLine="115" d="M759.57,636.3 C759.57,671.74 759.57,688.61 759.57,725.99" fill="none" id="P-LC" style="stroke:#181818;stroke-width:1;"/><line style="stroke:#181818;stroke-width:1;" x1="755.57" x2="763.57" y1="632.3" y2="632.3"/><line style="stroke:#181818;stroke-width:1;" x1="755.57" x2="763.57" y1="635.3" y2="635.3"/><line style="stroke:#181818;stroke-width:1;" x1="759.57" x2="759.57" y1="636.3" y2="628.3"/><line style="stroke:#181818;stroke-width:1;" x1="759.57" x2="765.57" y1="735.99" y2="743.99"/><line style="stroke:#181818;stroke-width:1;" x1="759.57" x2="753.57" y1="735.99" y2="743.99"/><line style="stroke:#181818;stroke-width:1;" x1="759.57" x2="759.57" y1="735.99" y2="743.99"/><ellipse cx="759.57" cy="729.99" fill="none" rx="4" ry="4" style="stroke:#181818;stroke-width:1;"/><text fill="#000000" font-family="sans-serif" font-size="13" lengthAdjust="spacing" textLength="47.0171" x="711.57" y="682.2069">se pide</text></g><!--link TM to LC--><g class="link" data-entity-1="ent0008" data-entity-2="ent0006" data-link-type="crowfoot" data-source-line="116" id="lnk19"><path codeLine="116" d="M956.58,555.72 C917.65,555.72 884.96,555.72 884.96,555.72 C884.96,555.72 884.96,644.89 884.96,726.1" fill="none" id="TM-LC" style="stroke:#181818;stroke-width:1;"/><line style="stroke:#181818;stroke-width:1;" x1="960.58" x2="960.58" y1="551.72" y2="559.72"/><line style="stroke:#181818;stroke-width:1;" x1="957.58" x2="957.58" y1="551.72" y2="559.72"/><line style="stroke:#181818;stroke-width:1;" x1="956.58" x2="964.58" y1="555.72" y2="555.72"/><line style="stroke:#181818;stroke-width:1;" x1="884.96" x2="890.96" y1="736.1" y2="744.1"/><line style="stroke:#181818;stroke-width:1;" x1="884.96" x2="878.96" y1="736.1" y2="744.1"/><line style="stroke:#181818;stroke-width:1;" x1="884.96" x2="884.96" y1="736.1" y2="744.1"/><ellipse cx="884.96" cy="730.1" fill="none" rx="4" ry="4" style="stroke:#181818;stroke-width:1;"/><text fill="#000000" font-family="sans-serif" font-size="13" lengthAdjust="spacing" textLength="82.9956" x="864.96" y="623.1669">aplica precio</text></g><!--link C to T--><g class="link" data-entity-1="ent0005" data-entity-2="ent0009" data-link-type="association" data-source-line="117" id="lnk20"><path codeLine="117" d="M336.27,555.72 C294.58,555.72 264.39,555.72 264.39,555.72 C264.39,555.72 264.39,647.89 264.39,729.1" fill="none" id="C-T" style="stroke:#181818;stroke-width:1;"/><line style="stroke:#181818;stroke-width:1;" x1="340.27" x2="340.27" y1="551.72" y2="559.72"/><line style="stroke:#181818;stroke-width:1;" x1="337.27" x2="337.27" y1="551.72" y2="559.72"/><line style="stroke:#181818;stroke-width:1;" x1="336.27" x2="344.27" y1="555.72" y2="555.72"/><line style="stroke:#181818;stroke-width:1;" x1="264.39" x2="264.39" y1="733.1" y2="744.1"/><ellipse cx="264.39" cy="733.1" fill="none" rx="4" ry="4" style="stroke:#181818;stroke-width:1;"/><line style="stroke:#181818;stroke-width:1;" x1="268.39" x2="260.39" y1="740.1" y2="740.1"/><text fill="#000000" font-family="sans-serif" font-size="13" lengthAdjust="spacing" textLength="46.3379" x="265.39" y="606.0369">factura</text></g><!--link U to T--><g class="link" data-entity-1="ent0002" data-entity-2="ent0009" data-link-type="crowfoot" data-source-line="118" id="lnk21"><path codeLine="118" d="M251.98,360.72 C258.56,360.72 254.64,360.72 254.64,360.72 C254.64,360.72 254.64,588.97 254.64,726.04" fill="none" id="U-T" style="stroke:#181818;stroke-width:1;"/><line style="stroke:#181818;stroke-width:1;" x1="247.98" x2="247.98" y1="364.72" y2="356.72"/><line style="stroke:#181818;stroke-width:1;" x1="250.98" x2="250.98" y1="364.72" y2="356.72"/><line style="stroke:#181818;stroke-width:1;" x1="251.98" x2="243.98" y1="360.72" y2="360.72"/><line style="stroke:#181818;stroke-width:1;" x1="254.64" x2="260.64" y1="736.04" y2="744.04"/><line style="stroke:#181818;stroke-width:1;" x1="254.64" x2="248.64" y1="736.04" y2="744.04"/><line style="stroke:#181818;stroke-width:1;" x1="254.64" x2="254.64" y1="736.04" y2="744.04"/><ellipse cx="254.64" cy="730.04" fill="none" rx="4" ry="4" style="stroke:#181818;stroke-width:1;"/><text fill="#000000" font-family="sans-serif" font-size="13" lengthAdjust="spacing" textLength="36.6641" x="255.64" y="543.1169">cobra</text></g><!--link U to LA--><g class="link" data-entity-1="ent0002" data-entity-2="ent0011" data-link-type="crowfoot" data-source-line="119" id="lnk22"><path codeLine="119" d="M147.57,374.37 C147.57,411.2 147.57,428.39 147.57,464.15" fill="none" id="U-LA" style="stroke:#181818;stroke-width:1;"/><line style="stroke:#181818;stroke-width:1;" x1="143.57" x2="151.57" y1="370.37" y2="370.37"/><line style="stroke:#181818;stroke-width:1;" x1="143.57" x2="151.57" y1="373.37" y2="373.37"/><line style="stroke:#181818;stroke-width:1;" x1="147.57" x2="147.57" y1="374.37" y2="366.37"/><line style="stroke:#181818;stroke-width:1;" x1="147.57" x2="153.57" y1="474.15" y2="482.15"/><line style="stroke:#181818;stroke-width:1;" x1="147.57" x2="141.57" y1="474.15" y2="482.15"/><line style="stroke:#181818;stroke-width:1;" x1="147.57" x2="147.57" y1="474.15" y2="482.15"/><ellipse cx="147.57" cy="468.15" fill="none" rx="4" ry="4" style="stroke:#181818;stroke-width:1;"/><text fill="#000000" font-family="sans-serif" font-size="13" lengthAdjust="spacing" textLength="114.1182" x="32.57" y="420.3269">registra actividad</text></g><?plantuml-src fLPTJzim57tFhx3oWZIj4dj52AdhYeP6eIhbXHTq4zy63yStinqaeFllkqxQnM4aWFPIrUUwFkVS3xi7OkwyqkH41HR4hng5eV0Tdt8GjH7eAYXgz2fnzyg4JQNGog1_h52GzNSK1Gn9T5Y9BuU74Mh1tE_H18rN_b6arwu6goWLuCIrU4w4-2HkbHH7uZBxYRa_amnD9lnXgCmiSk3AMsKAHh04fMF0KbZEJLto0dAl7eZNNuaqWc586S-yv4v1QoNPx96ugCiCBSSoJUmQ97q7vu4Zty1ZyhjJUaC66fat7vJ9kSYjgd95feEZWnVeseCNumVN9LgA9ICBbTGvVcA5_T-Au-FJ7oSd7Ckf12FXjidAQxi-Cu7Ma6da_P6wMVl3Hk1iL639FWRfeUHUiZGKVsabjrmAc9jNwd3ENGUnglDnMNld0yoL1ZyeotDlRk2sH5E_bRBWaHLAa769A7De7o3K7bslTryOHhTWagXR8yVB8B6nklnWwrKMcJeMb7Cs2x8AEcgfN4L6iOtUi7Jmt0nhMpSP2l56u7gyXxsg8iybIT2xZEsWVmK_g8AvS81TvVVeM-R_QOAtsjEJ1pqsUas_KjUlWJ6phqDBikyTlXKsxTCONBsZzZEjTidwsm8UDMx8K8nnDj0uqDYx0JUOtq6dTcoSnswQVchYmQLYMalbG_UrWpiTjGHv_yeKecuVYq7cTlwcR8GbG6_Ssj3P2nwloY2thA9xve3P9s8rFv_EpYulvbTXcIGtOhkTJEYPB-aZaUR4vw71jCDN0ITRW55Fa2QB7kvGs5qfkyWiH82hbYRNFQnWJIgyDicimRVFuOxZW4HkGytuSh-_nVduIaa-Pxte1w3IYj_lTghsnz6MXuM36tuBQWiH-xhrblL0hXAZ5WlbFFyrQ1wGaClq3m00?></g></svg>