<?xml version="1.0" encoding="us-ascii" standalone="no"?><svg xmlns="http://www.w3.org/2000/svg" xmlns:xlink="http://www.w3.org/1999/xlink" contentStyleType="text/css" height="159px" preserveAspectRatio="none" style="width:308px;height:159px;background:#FFFFFF;" version="1.1" viewBox="0 0 308 159" width="308px" zoomAndPan="magnify"><defs/><g><text fill="#000000" font-family="sans-serif" font-size="14" font-weight="bold" lengthAdjust="spacing" textLength="181" x="56.5" y="24.5332">Casos de uso - Kiwi TCMS</text><!--cluster Sistema--><g id="cluster_Sistema"><rect fill="none" height="108" rx="2.5" ry="2.5" style="stroke:#181818;stroke-width:1.0;" width="185" x="117" y="45.6094"/><text fill="#000000" font-family="sans-serif" font-size="14" font-weight="bold" lengthAdjust="spacing" textLength="55" x="182" y="62.1426">Sistema</text></g><g id="elem_CU34"><ellipse cx="209.5391" cy="109.5128" fill="#F1F1F1" rx="76.5391" ry="27.9034" style="stroke:#181818;stroke-width:0.5;"/><text fill="#000000" font-family="sans-serif" font-size="14" lengthAdjust="spacing" textLength="92" x="163.5391" y="104.4366">Registrar caso</text><text fill="#000000" font-family="sans-serif" font-size="14" lengthAdjust="spacing" textLength="65" x="177.0391" y="122.046">de prueba</text></g><!--entity Kiwi--><g id="elem_Kiwi"><ellipse cx="39.5" cy="79.1094" fill="#F1F1F1" rx="8" ry="8" style="stroke:#181818;stroke-width:0.5;"/><path d="M39.5,87.1094 L39.5,114.1094 M26.5,95.1094 L52.5,95.1094 M39.5,114.1094 L26.5,129.1094 M39.5,114.1094 L52.5,129.1094 " fill="none" style="stroke:#181818;stroke-width:0.5;"/><text fill="#000000" font-family="sans-serif" font-size="14" lengthAdjust="spacing" textLength="67" x="6" y="145.1426">Kiwi TCMS</text></g><!--link Kiwi to CU34--><g id="link_Kiwi_CU34"><path d="M73.29,109.6094 C90.29,109.6094 105.81,109.6094 126.65,109.6094 " fill="none" id="Kiwi-to-CU34" style="stroke:#181818;stroke-width:1.0;"/><polygon fill="#181818" points="132.65,109.6094,123.65,105.6094,127.65,109.6094,123.65,113.6094,132.65,109.6094" style="stroke:#181818;stroke-width:1.0;"/></g><!--SRC=[FSon3i8m34NHtL_nbBqJp2mP4Gk5ZSMa9bWg3KfSTK3yEwP8ZBwspoWtWnLKpNV3e5MIQPd8r4P1v5OQ1i7S2ZhiTL6Sug4ducIb8lnB0BTrJ_GbUCh-7dfj9WyEU17SaCJDwr6ozyeLFfVBvFwppdBb5OddpTQlwKsqwbst-pNw0000]--></g></svg>