<svg xmlns="http://www.w3.org/2000/svg" xmlns:xlink="http://www.w3.org/1999/xlink" contentStyleType="text/css" data-diagram-type="DESCRIPTION" height="275px" preserveAspectRatio="none" style="width:502px;height:275px;background:#FFFFFF;" version="1.1" viewBox="0 0 502 275" width="502px" zoomAndPan="magnify"><defs/><g><!--entity Proyecto--><g class="entity" data-entity="Proyecto" data-source-line="1" data-uid="ent0002" id="entity_Proyecto"><rect fill="#F1F1F1" height="36.2969" rx="2.5" ry="2.5" style="stroke:#181818;stroke-width:0.5;" width="81.4141" x="105" y="7"/><text fill="#000000" font-family="sans-serif" font-size="14" lengthAdjust="spacing" textLength="61.4141" x="115" y="29.9951">Proyecto</text></g><!--entity Documentacion--><g class="entity" data-entity="Documentacion" data-source-line="2" data-uid="ent0003" id="entity_Documentacion"><rect fill="#F1F1F1" height="36.2969" rx="2.5" ry="2.5" style="stroke:#181818;stroke-width:0.5;" width="130.1338" x="80.5" y="120"/><text fill="#000000" font-family="sans-serif" font-size="14" lengthAdjust="spacing" textLength="110.1338" x="90.5" y="142.9951">Documentacion</text></g><!--entity DRF--><g class="entity" data-entity="DRF" data-source-line="3" data-uid="ent0004" id="entity_DRF"><rect fill="#F1F1F1" height="36.2969" rx="2.5" ry="2.5" style="stroke:#181818;stroke-width:0.5;" width="48.5605" x="7" y="233"/><text fill="#000000" font-family="sans-serif" font-size="14" lengthAdjust="spacing" textLength="28.5605" x="17" y="255.9951">DRF</text></g><!--entity DDS--><g class="entity" data-entity="DDS" data-source-line="4" data-uid="ent0005" id="entity_DDS"><rect fill="#F1F1F1" height="36.2969" rx="2.5" ry="2.5" style="stroke:#181818;stroke-width:0.5;" width="50.4473" x="91.5" y="233"/><text fill="#000000" font-family="sans-serif" font-size="14" lengthAdjust="spacing" textLength="30.4473" x="101.5" y="255.9951">DDS</text></g><!--entity CasoDeUso--><g class="entity" data-entity="CasoDeUso" data-source-line="5" data-uid="ent0006" id="entity_CasoDeUso"><rect fill="#F1F1F1" height="36.2969" rx="2.5" ry="2.5" style="stroke:#181818;stroke-width:0.5;" width="99.7139" x="187.5" y="233"/><text fill="#000000" font-family="sans-serif" font-size="14" lengthAdjust="spacing" textLength="79.7139" x="197.5" y="255.9951">CasoDeUso</text></g><!--entity RequisitoFuncional--><g class="entity" data-entity="RequisitoFuncional" data-source-line="6" data-uid="ent0007" id="entity_RequisitoFuncional"><rect fill="#F1F1F1" height="36.2969" rx="2.5" ry="2.5" style="stroke:#181818;stroke-width:0.5;" width="152.5215" x="344" y="233"/><text fill="#000000" font-family="sans-serif" font-size="14" lengthAdjust="spacing" textLength="132.5215" x="354" y="255.9951">RequisitoFuncional</text></g><!--entity EscenarioPrueba--><g class="entity" data-entity="EscenarioPrueba" data-source-line="7" data-uid="ent0008" id="entity_EscenarioPrueba"><rect fill="#F1F1F1" height="36.2969" rx="2.5" ry="2.5" style="stroke:#181818;stroke-width:0.5;" width="137.2637" x="322" y="120"/><text fill="#000000" font-family="sans-serif" font-size="14" lengthAdjust="spacing" textLength="117.2637" x="332" y="142.9951">EscenarioPrueba</text></g><!--reverse link Proyecto to Documentacion--><g class="link" data-entity-1="Proyecto" data-entity-2="Documentacion" data-source-line="9" data-uid="lnk9" id="link_Proyecto_Documentacion"><path d="M145.5,55.34 C145.5,76.2 145.5,98.98 145.5,119.78" fill="none" id="Proyecto-backto-Documentacion" style="stroke:#181818;stroke-width:1;"/><polygon fill="none" points="145.5,43.34,141.5,49.34,145.5,55.34,149.5,49.34,145.5,43.34" style="stroke:#181818;stroke-width:1;"/><text fill="#000000" font-family="sans-serif" font-size="13" lengthAdjust="spacing" textLength="56.2847" x="146.5" y="86.0669">contiene</text></g><!--reverse link Documentacion to DRF--><g class="link" data-entity-1="Documentacion" data-entity-2="DRF" data-source-line="11" data-uid="lnk10" id="link_Documentacion_DRF"><path d="M114.7946,168.8982 C93.3746,189.7582 70.55,211.98 49.19,232.78" fill="none" id="Documentacion-backto-DRF" style="stroke:#181818;stroke-width:1;"/><polygon fill="none" points="127.69,156.34,110.6085,164.5998,118.9807,173.1967,127.69,156.34" style="stroke:#181818;stroke-width:1;"/></g><!--reverse link Documentacion to DDS--><g class="link" data-entity-1="Documentacion" data-entity-2="DDS" data-source-line="12" data-uid="lnk11" id="link_Documentacion_DDS"><path d="M136.4199,173.7554 C130.9699,194.6154 126.43,211.98 121,232.78" fill="none" id="Documentacion-backto-DDS" style="stroke:#181818;stroke-width:1;"/><polygon fill="none" points="140.97,156.34,130.6148,172.2387,142.2251,175.2721,140.97,156.34" style="stroke:#181818;stroke-width:1;"/></g><!--reverse link Documentacion to CasoDeUso--><g class="link" data-entity-1="Documentacion" data-entity-2="CasoDeUso" data-source-line="14" data-uid="lnk12" id="link_Documentacion_CasoDeUso"><path d="M152.8944,167.6689 C156.8144,181.3989 160.49,189.08 171.5,203 C180.92,214.92 194.14,225.15 206.28,232.99" fill="none" id="Documentacion-backto-CasoDeUso" style="stroke:#181818;stroke-width:1;"/><polygon fill="#181818" points="149.6,156.13,147.4009,162.9976,152.8944,167.6689,155.0935,160.8013,149.6,156.13" style="stroke:#181818;stroke-width:1;"/><text fill="#000000" font-family="sans-serif" font-size="13" lengthAdjust="spacing" textLength="46.541" x="172.5" y="199.0669">incluye</text></g><!--reverse link Documentacion to RequisitoFuncional--><g class="link" data-entity-1="Documentacion" data-entity-2="RequisitoFuncional" data-source-line="15" data-uid="lnk13" id="link_Documentacion_RequisitoFuncional"><path d="M184.4452,162.3084 C214.1452,180.0284 247.11,199.43 255.5,203 C284.14,215.18 316.89,225.25 345.63,232.9" fill="none" id="Documentacion-backto-RequisitoFuncional" style="stroke:#181818;stroke-width:1;"/><polygon fill="#181818" points="174.14,156.16,177.2431,162.6693,184.4452,162.3084,181.3421,155.7991,174.14,156.16" style="stroke:#181818;stroke-width:1;"/><text fill="#000000" font-family="sans-serif" font-size="13" lengthAdjust="spacing" textLength="46.541" x="256.5" y="199.0669">incluye</text></g><!--link EscenarioPrueba to CasoDeUso--><g class="link" data-entity-1="EscenarioPrueba" data-entity-2="CasoDeUso" data-source-line="17" data-uid="lnk14" id="link_EscenarioPrueba_CasoDeUso"><path d="M370.54,156.24 C354.86,169.51 332.28,188.06 311.5,203 C296.92,213.48 280.06,224.29 266.12,232.89" fill="none" id="EscenarioPrueba-CasoDeUso" style="stroke:#181818;stroke-width:1;"/><text fill="#000000" font-family="sans-serif" font-size="13" lengthAdjust="spacing" textLength="39.1016" x="335.5" y="199.0669">valida</text></g><!--link EscenarioPrueba to RequisitoFuncional--><g class="link" data-entity-1="EscenarioPrueba" data-entity-2="RequisitoFuncional" data-source-line="18" data-uid="lnk15" id="link_EscenarioPrueba_RequisitoFuncional"><path d="M395.19,156.34 C400.82,177.2 410.22,211.98 415.85,232.78" fill="none" id="EscenarioPrueba-RequisitoFuncional" style="stroke:#181818;stroke-width:1;"/><text fill="#000000" font-family="sans-serif" font-size="13" lengthAdjust="spacing" textLength="39.1016" x="408.5" y="199.0669">valida</text></g><!--SRC=[ROvD2i8m48NtEKNMGYyWxenTbue76CT11k8CvaSeU7XJn9BMBDzx7uyl42QGkoSx19rAK1EMoYdc1qa2P9Mw7_iwkNELZX3LqINMFoCzCqTEscUPhy1NuoaY2GJM8MIwWZ4_4QjTjrQmUuigYKd8cFLoUCzmyMhLHN3Jxqgzc9PR5lHveWRrxrxXPYDlDxSly7o35jMy_U8V]--></g></svg>