<?xml version="1.0" encoding="us-ascii" standalone="no"?><svg xmlns="http://www.w3.org/2000/svg" xmlns:xlink="http://www.w3.org/1999/xlink" contentStyleType="text/css" height="3085px" preserveAspectRatio="none" style="width:518px;height:3085px;background:#FFFFFF;" version="1.1" viewBox="0 0 518 3085" width="518px" zoomAndPan="magnify"><defs/><g><text fill="#000000" font-family="sans-serif" font-size="14" font-weight="bold" lengthAdjust="spacing" textLength="222" x="141" y="24.5332">Casos de uso - Ingeniero de QA</text><!--cluster Sistema--><g id="cluster_Sistema"><rect fill="none" height="3034" rx="2.5" ry="2.5" style="stroke:#181818;stroke-width:1.0;" width="359" x="153" y="45.6094"/><text fill="#000000" font-family="sans-serif" font-size="14" font-weight="bold" lengthAdjust="spacing" textLength="55" x="305" y="62.1426">Sistema</text></g><g id="elem_CU01"><ellipse cx="332.4767" cy="109.5128" fill="#F1F1F1" rx="40.4767" ry="27.9034" style="stroke:#181818;stroke-width:0.5;"/><text fill="#000000" font-family="sans-serif" font-size="14" lengthAdjust="spacing" textLength="37" x="313.9767" y="104.4366">Iniciar</text><text fill="#000000" font-family="sans-serif" font-size="14" lengthAdjust="spacing" textLength="41" x="311.9767" y="122.046">sesion</text></g><g id="elem_CU02"><ellipse cx="332.4767" cy="200.5128" fill="#F1F1F1" rx="40.4767" ry="27.9034" style="stroke:#181818;stroke-width:0.5;"/><text fill="#000000" font-family="sans-serif" font-size="14" lengthAdjust="spacing" textLength="41" x="311.9767" y="195.4366">Cerrar</text><text fill="#000000" font-family="sans-serif" font-size="14" lengthAdjust="spacing" textLength="41" x="311.9767" y="213.046">sesion</text></g><g id="elem_CU03"><ellipse cx="332.501" cy="291.5128" fill="#F1F1F1" rx="122.501" ry="27.9034" style="stroke:#181818;stroke-width:0.5;"/><text fill="#000000" font-family="sans-serif" font-size="14" lengthAdjust="spacing" textLength="59" x="303.001" y="286.4366">Introducir</text><text fill="#000000" font-family="sans-serif" font-size="14" lengthAdjust="spacing" textLength="157" x="254.001" y="304.046">documentacion funcional</text></g><g id="elem_CU04"><ellipse cx="332.4197" cy="382.6213" fill="#F1F1F1" rx="115.9197" ry="28.0119" style="stroke:#181818;stroke-width:0.5;"/><text fill="#000000" font-family="sans-serif" font-size="14" lengthAdjust="spacing" textLength="147" x="255.9197" y="378.3332">Asociar documentacion</text><text fill="#000000" font-family="sans-serif" font-size="14" lengthAdjust="spacing" textLength="67" x="295.9197" y="395.9426">a proyecto</text></g><g id="elem_CU05"><ellipse cx="332.3379" cy="480.677" fill="#F1F1F1" rx="163.3379" ry="35.0676" style="stroke:#181818;stroke-width:0.5;"/><text fill="#000000" font-family="sans-serif" font-size="14" lengthAdjust="spacing" textLength="256" x="204.3379" y="475.6008">Consultar referencias de documentacion</text><text fill="#000000" font-family="sans-serif" font-size="14" lengthAdjust="spacing" textLength="95" x="284.8379" y="493.2102">de un proyecto</text></g><g id="elem_CU06"><ellipse cx="332.3823" cy="578.5128" fill="#F1F1F1" rx="70.8823" ry="27.9034" style="stroke:#181818;stroke-width:0.5;"/><text fill="#000000" font-family="sans-serif" font-size="14" lengthAdjust="spacing" textLength="45" x="309.8823" y="573.4366">Extraer</text><text fill="#000000" font-family="sans-serif" font-size="14" lengthAdjust="spacing" textLength="84" x="290.3823" y="591.046">casos de uso</text></g><g id="elem_CU07"><ellipse cx="332.3823" cy="669.5128" fill="#F1F1F1" rx="70.8823" ry="27.9034" style="stroke:#181818;stroke-width:0.5;"/><text fill="#000000" font-family="sans-serif" font-size="14" lengthAdjust="spacing" textLength="35" x="314.8823" y="664.4366">Listar</text><text fill="#000000" font-family="sans-serif" font-size="14" lengthAdjust="spacing" textLength="84" x="290.3823" y="682.046">casos de uso</text></g><g id="elem_CU08"><ellipse cx="332.4325" cy="760.5128" fill="#F1F1F1" rx="65.9325" ry="27.9034" style="stroke:#181818;stroke-width:0.5;"/><text fill="#000000" font-family="sans-serif" font-size="14" lengthAdjust="spacing" textLength="61" x="301.9325" y="755.4366">Consultar</text><text fill="#000000" font-family="sans-serif" font-size="14" lengthAdjust="spacing" textLength="77" x="293.9325" y="773.046">caso de uso</text></g><g id="elem_CU09"><ellipse cx="332.4325" cy="851.5128" fill="#F1F1F1" rx="65.9325" ry="27.9034" style="stroke:#181818;stroke-width:0.5;"/><text fill="#000000" font-family="sans-serif" font-size="14" lengthAdjust="spacing" textLength="36" x="314.4325" y="846.4366">Crear</text><text fill="#000000" font-family="sans-serif" font-size="14" lengthAdjust="spacing" textLength="77" x="293.9325" y="864.046">caso de uso</text></g><g id="elem_CU10"><ellipse cx="332.4325" cy="942.5128" fill="#F1F1F1" rx="65.9325" ry="27.9034" style="stroke:#181818;stroke-width:0.5;"/><text fill="#000000" font-family="sans-serif" font-size="14" lengthAdjust="spacing" textLength="61" x="301.9325" y="937.4366">Actualizar</text><text fill="#000000" font-family="sans-serif" font-size="14" lengthAdjust="spacing" textLength="77" x="293.9325" y="955.046">caso de uso</text></g><g id="elem_CU11"><ellipse cx="332.4325" cy="1033.5128" fill="#F1F1F1" rx="65.9325" ry="27.9034" style="stroke:#181818;stroke-width:0.5;"/><text fill="#000000" font-family="sans-serif" font-size="14" lengthAdjust="spacing" textLength="50" x="307.4325" y="1028.4366">Eliminar</text><text fill="#000000" font-family="sans-serif" font-size="14" lengthAdjust="spacing" textLength="77" x="293.9325" y="1046.046">caso de uso</text></g><g id="elem_CU12"><ellipse cx="332.267" cy="1124.5128" fill="#F1F1F1" rx="89.267" ry="27.9034" style="stroke:#181818;stroke-width:0.5;"/><text fill="#000000" font-family="sans-serif" font-size="14" lengthAdjust="spacing" textLength="110" x="277.267" y="1119.4366">Extraer requisitos</text><text fill="#000000" font-family="sans-serif" font-size="14" lengthAdjust="spacing" textLength="72" x="296.267" y="1137.046">funcionales</text></g><g id="elem_CU13"><ellipse cx="332.696" cy="1215.5128" fill="#F1F1F1" rx="82.196" ry="27.9034" style="stroke:#181818;stroke-width:0.5;"/><text fill="#000000" font-family="sans-serif" font-size="14" lengthAdjust="spacing" textLength="100" x="282.696" y="1210.4366">Listar requisitos</text><text fill="#000000" font-family="sans-serif" font-size="14" lengthAdjust="spacing" textLength="72" x="296.696" y="1228.046">funcionales</text></g><g id="elem_CU14"><ellipse cx="332.6836" cy="1306.5269" fill="#F1F1F1" rx="95.6836" ry="27.9176" style="stroke:#181818;stroke-width:0.5;"/><text fill="#000000" font-family="sans-serif" font-size="14" lengthAdjust="spacing" textLength="119" x="270.9754" y="1302.0444">Consultar requisito</text><text fill="#000000" font-family="sans-serif" font-size="14" lengthAdjust="spacing" textLength="57" x="301.9754" y="1319.6538">funcional</text></g><g id="elem_CU15"><ellipse cx="332.4533" cy="1397.5128" fill="#F1F1F1" rx="77.9533" ry="27.9034" style="stroke:#181818;stroke-width:0.5;"/><text fill="#000000" font-family="sans-serif" font-size="14" lengthAdjust="spacing" textLength="94" x="285.4533" y="1392.4366">Crear requisito</text><text fill="#000000" font-family="sans-serif" font-size="14" lengthAdjust="spacing" textLength="57" x="303.9533" y="1410.046">funcional</text></g><g id="elem_CU16"><ellipse cx="332.6836" cy="1488.5269" fill="#F1F1F1" rx="95.6836" ry="27.9176" style="stroke:#181818;stroke-width:0.5;"/><text fill="#000000" font-family="sans-serif" font-size="14" lengthAdjust="spacing" textLength="119" x="270.9754" y="1484.0444">Actualizar requisito</text><text fill="#000000" font-family="sans-serif" font-size="14" lengthAdjust="spacing" textLength="57" x="301.9754" y="1501.6538">funcional</text></g><g id="elem_CU17"><ellipse cx="332.3528" cy="1579.5128" fill="#F1F1F1" rx="87.8528" ry="27.9034" style="stroke:#181818;stroke-width:0.5;"/><text fill="#000000" font-family="sans-serif" font-size="14" lengthAdjust="spacing" textLength="108" x="278.3528" y="1574.4366">Eliminar requisito</text><text fill="#000000" font-family="sans-serif" font-size="14" lengthAdjust="spacing" textLength="57" x="303.8528" y="1592.046">funcional</text></g><g id="elem_CU18"><ellipse cx="332.7378" cy="1670.5529" fill="#F1F1F1" rx="100.7378" ry="27.9435" style="stroke:#181818;stroke-width:0.5;"/><text fill="#000000" font-family="sans-serif" font-size="14" lengthAdjust="spacing" textLength="126" x="266.7378" y="1666.2648">Generar escenarios</text><text fill="#000000" font-family="sans-serif" font-size="14" lengthAdjust="spacing" textLength="50" x="304.7378" y="1683.8742">Gherkin</text></g><g id="elem_CU19"><ellipse cx="332.3528" cy="1761.5128" fill="#F1F1F1" rx="87.8528" ry="27.9034" style="stroke:#181818;stroke-width:0.5;"/><text fill="#000000" font-family="sans-serif" font-size="14" lengthAdjust="spacing" textLength="108" x="278.3528" y="1756.4366">Listar escenarios</text><text fill="#000000" font-family="sans-serif" font-size="14" lengthAdjust="spacing" textLength="50" x="307.3528" y="1774.046">Gherkin</text></g><g id="elem_CU20"><ellipse cx="332.3187" cy="1852.5173" fill="#F1F1F1" rx="92.8187" ry="27.9079" style="stroke:#181818;stroke-width:0.5;"/><text fill="#000000" font-family="sans-serif" font-size="14" lengthAdjust="spacing" textLength="115" x="273.6145" y="1847.775">Crear borrador de</text><text fill="#000000" font-family="sans-serif" font-size="14" lengthAdjust="spacing" textLength="99" x="281.6145" y="1865.3844">caso de prueba</text></g><g id="elem_CU21"><ellipse cx="332.4828" cy="1943.5128" fill="#F1F1F1" rx="60.9828" ry="27.9034" style="stroke:#181818;stroke-width:0.5;"/><text fill="#000000" font-family="sans-serif" font-size="14" lengthAdjust="spacing" textLength="35" x="314.9828" y="1938.4366">Listar</text><text fill="#000000" font-family="sans-serif" font-size="14" lengthAdjust="spacing" textLength="70" x="297.4828" y="1956.046">borradores</text></g><g id="elem_CU22"><ellipse cx="332.6188" cy="2034.5128" fill="#F1F1F1" rx="54.6188" ry="27.9034" style="stroke:#181818;stroke-width:0.5;"/><text fill="#000000" font-family="sans-serif" font-size="14" lengthAdjust="spacing" textLength="61" x="302.1188" y="2029.4366">Consultar</text><text fill="#000000" font-family="sans-serif" font-size="14" lengthAdjust="spacing" textLength="55" x="305.1188" y="2047.046">borrador</text></g><g id="elem_CU23"><ellipse cx="332.3173" cy="2125.5128" fill="#F1F1F1" rx="84.3173" ry="27.9034" style="stroke:#181818;stroke-width:0.5;"/><text fill="#000000" font-family="sans-serif" font-size="14" lengthAdjust="spacing" textLength="103" x="280.8173" y="2120.4366">Anadir feedback</text><text fill="#000000" font-family="sans-serif" font-size="14" lengthAdjust="spacing" textLength="67" x="298.8173" y="2138.046">a borrador</text></g><g id="elem_CU24"><ellipse cx="332.5685" cy="2216.5128" fill="#F1F1F1" rx="59.5685" ry="27.9034" style="stroke:#181818;stroke-width:0.5;"/><text fill="#000000" font-family="sans-serif" font-size="14" lengthAdjust="spacing" textLength="68" x="298.5685" y="2211.4366">Regenerar</text><text fill="#000000" font-family="sans-serif" font-size="14" lengthAdjust="spacing" textLength="55" x="305.0685" y="2229.046">borrador</text></g><g id="elem_CU25"><ellipse cx="332.3762" cy="2307.5128" fill="#F1F1F1" rx="50.3762" ry="27.9034" style="stroke:#181818;stroke-width:0.5;"/><text fill="#000000" font-family="sans-serif" font-size="14" lengthAdjust="spacing" textLength="49" x="307.8762" y="2302.4366">Aceptar</text><text fill="#000000" font-family="sans-serif" font-size="14" lengthAdjust="spacing" textLength="55" x="304.8762" y="2320.046">borrador</text></g><g id="elem_CU26"><ellipse cx="332.4117" cy="2398.5128" fill="#F1F1F1" rx="53.9117" ry="27.9034" style="stroke:#181818;stroke-width:0.5;"/><text fill="#000000" font-family="sans-serif" font-size="14" lengthAdjust="spacing" textLength="60" x="302.4117" y="2393.4366">Rechazar</text><text fill="#000000" font-family="sans-serif" font-size="14" lengthAdjust="spacing" textLength="55" x="304.9117" y="2411.046">borrador</text></g><g id="elem_CU27"><ellipse cx="332.4265" cy="2489.6454" fill="#F1F1F1" rx="122.4265" ry="28.036" style="stroke:#181818;stroke-width:0.5;"/><text fill="#000000" font-family="sans-serif" font-size="14" lengthAdjust="spacing" textLength="156" x="251.4265" y="2485.3573">Generar caso de prueba</text><text fill="#000000" font-family="sans-serif" font-size="14" lengthAdjust="spacing" textLength="134" x="262.4265" y="2502.9667">derivado de borrador</text></g><g id="elem_CU28"><ellipse cx="332.4806" cy="2580.6403" fill="#F1F1F1" rx="120.9806" ry="28.0309" style="stroke:#181818;stroke-width:0.5;"/><text fill="#000000" font-family="sans-serif" font-size="14" lengthAdjust="spacing" textLength="154" x="252.4806" y="2576.3522">Publicar caso de prueba</text><text fill="#000000" font-family="sans-serif" font-size="14" lengthAdjust="spacing" textLength="87" x="285.9806" y="2593.9616">en Kiwi TCMS</text></g><g id="elem_CU29"><ellipse cx="332.4806" cy="2671.6403" fill="#F1F1F1" rx="120.9806" ry="28.0309" style="stroke:#181818;stroke-width:0.5;"/><text fill="#000000" font-family="sans-serif" font-size="14" lengthAdjust="spacing" textLength="154" x="252.4806" y="2667.3522">Buscar casos de prueba</text><text fill="#000000" font-family="sans-serif" font-size="14" lengthAdjust="spacing" textLength="87" x="285.9806" y="2684.9616">en Kiwi TCMS</text></g><g id="elem_CU30"><ellipse cx="332.5149" cy="2762.5491" fill="#F1F1F1" rx="100.0149" ry="27.9397" style="stroke:#181818;stroke-width:0.5;"/><text fill="#000000" font-family="sans-serif" font-size="14" lengthAdjust="spacing" textLength="125" x="267.0149" y="2758.261">Ver caso de prueba</text><text fill="#000000" font-family="sans-serif" font-size="14" lengthAdjust="spacing" textLength="87" x="286.0149" y="2775.8704">en Kiwi TCMS</text></g><g id="elem_CU31"><ellipse cx="332.3112" cy="2853.5128" fill="#F1F1F1" rx="63.8112" ry="27.9034" style="stroke:#181818;stroke-width:0.5;"/><text fill="#000000" font-family="sans-serif" font-size="14" lengthAdjust="spacing" textLength="74" x="295.3112" y="2848.4366">Seleccionar</text><text fill="#000000" font-family="sans-serif" font-size="14" lengthAdjust="spacing" textLength="56" x="304.3112" y="2866.046">sesiones</text></g><g id="elem_CU32"><ellipse cx="332.3467" cy="2944.5128" fill="#F1F1F1" rx="67.3467" ry="27.9034" style="stroke:#181818;stroke-width:0.5;"/><text fill="#000000" font-family="sans-serif" font-size="14" lengthAdjust="spacing" textLength="79" x="292.8467" y="2939.4366">Crear nueva</text><text fill="#000000" font-family="sans-serif" font-size="14" lengthAdjust="spacing" textLength="41" x="311.8467" y="2957.046">sesion</text></g><g id="elem_CU33"><ellipse cx="332.6543" cy="3035.5128" fill="#F1F1F1" rx="58.1543" ry="27.9034" style="stroke:#181818;stroke-width:0.5;"/><text fill="#000000" font-family="sans-serif" font-size="14" lengthAdjust="spacing" textLength="53" x="306.1543" y="3030.4366">Guardar</text><text fill="#000000" font-family="sans-serif" font-size="14" lengthAdjust="spacing" textLength="66" x="299.6543" y="3048.046">resultados</text></g><!--entity QA--><g id="elem_QA"><ellipse cx="57.5" cy="1549.1094" fill="#F1F1F1" rx="8" ry="8" style="stroke:#181818;stroke-width:0.5;"/><path d="M57.5,1557.1094 L57.5,1584.1094 M44.5,1565.1094 L70.5,1565.1094 M57.5,1584.1094 L44.5,1599.1094 M57.5,1584.1094 L70.5,1599.1094 " fill="none" style="stroke:#181818;stroke-width:0.5;"/><text fill="#000000" font-family="sans-serif" font-size="14" lengthAdjust="spacing" textLength="103" x="6" y="1615.1426">Ingeniero de QA</text></g><!--link QA to CU01--><g id="link_QA_CU01"><path d="M58.15,1540.4694 C56.58,1322.4294 53.68,263.6194 145,154.6094 C180.61,112.0994 242.7911,105.7344 286.1111,106.5644 " fill="none" id="QA-to-CU01" style="stroke:#181818;stroke-width:1.0;"/><polygon fill="#181818" points="292.11,106.6794,283.1883,102.5077,287.1109,106.5836,283.035,110.5062,292.11,106.6794" style="stroke:#181818;stroke-width:1.0;"/></g><!--link QA to CU02--><g id="link_QA_CU02"><path d="M58.33,1540.5894 C57.75,1331.2694 59.61,347.1194 145,245.6094 C180.7,203.1694 242.851,196.7885 286.141,197.5885 " fill="none" id="QA-to-CU02" style="stroke:#181818;stroke-width:1.0;"/><polygon fill="#181818" points="292.14,197.6994,283.2154,193.5338,287.1409,197.607,283.0676,201.5324,292.14,197.6994" style="stroke:#181818;stroke-width:1.0;"/></g><!--link QA to CU03--><g id="link_QA_CU03"><path d="M58.52,1540.3194 C59,1339.1694 65.58,430.5694 145,336.6094 C162.09,316.3894 180.7685,305.9472 206.3685,299.0172 " fill="none" id="QA-to-CU03" style="stroke:#181818;stroke-width:1.0;"/><polygon fill="#181818" points="212.16,297.4494,202.4275,295.94,207.3337,298.7559,204.5179,303.6621,212.16,297.4494" style="stroke:#181818;stroke-width:1.0;"/></g><!--link QA to CU04--><g id="link_QA_CU04"><path d="M58.75,1540.3694 C60.35,1348.4294 71.49,514.0994 145,427.6094 C163.34,406.0394 184.2294,395.2452 211.7394,388.5652 " fill="none" id="QA-to-CU04" style="stroke:#181818;stroke-width:1.0;"/><polygon fill="#181818" points="217.57,387.1494,207.8803,385.386,212.7112,388.3292,209.768,393.1601,217.57,387.1494" style="stroke:#181818;stroke-width:1.0;"/></g><!--link QA to CU05--><g id="link_QA_CU05"><path d="M59.13,1540.4494 C62.37,1359.7094 79.68,611.6494 145,532.6094 C157.53,517.4494 168.5696,508.9063 186.6296,501.0363 " fill="none" id="QA-to-CU05" style="stroke:#181818;stroke-width:1.0;"/><polygon fill="#181818" points="192.13,498.6394,182.2814,498.5678,187.5463,500.6368,185.4773,505.9017,192.13,498.6394" style="stroke:#181818;stroke-width:1.0;"/></g><!--link QA to CU06--><g id="link_QA_CU06"><path d="M59.39,1540.4194 C63.64,1369.4194 84.19,694.0594 145,623.6094 C173.4,590.7094 215.3259,580.0961 255.4759,577.1661 " fill="none" id="QA-to-CU06" style="stroke:#181818;stroke-width:1.0;"/><polygon fill="#181818" points="261.46,576.7294,252.1927,573.395,256.4733,577.0933,252.775,581.3738,261.46,576.7294" style="stroke:#181818;stroke-width:1.0;"/></g><!--link QA to CU07--><g id="link_QA_CU07"><path d="M59.79,1540.4194 C65.42,1379.8394 90.06,777.6494 145,714.6094 C173.56,681.8394 215.4763,671.231 255.5863,668.271 " fill="none" id="QA-to-CU07" style="stroke:#181818;stroke-width:1.0;"/><polygon fill="#181818" points="261.57,667.8294,252.3,664.5026,256.5836,668.1974,252.8888,672.4809,261.57,667.8294" style="stroke:#181818;stroke-width:1.0;"/></g><!--link QA to CU08--><g id="link_QA_CU08"><path d="M60.27,1540.5394 C67.38,1391.1094 95.9,861.2894 145,805.6094 C174.85,771.7594 219.3613,761.5066 260.2913,758.9966 " fill="none" id="QA-to-CU08" style="stroke:#181818;stroke-width:1.0;"/><polygon fill="#181818" points="266.28,758.6294,257.052,755.1878,261.2894,758.9354,257.5417,763.1728,266.28,758.6294" style="stroke:#181818;stroke-width:1.0;"/></g><!--link QA to CU09--><g id="link_QA_CU09"><path d="M57.86,1540.4894 C56.54,1409.9894 59.22,992.4694 145,896.6094 C175.1,862.9794 219.5917,852.7146 260.4517,850.1546 " fill="none" id="QA-to-CU09" style="stroke:#181818;stroke-width:1.0;"/><polygon fill="#181818" points="266.44,849.7794,257.2075,846.35,261.4498,850.092,257.7077,854.3343,266.44,849.7794" style="stroke:#181818;stroke-width:1.0;"/></g><!--link QA to CU10--><g id="link_QA_CU10"><path d="M58.71,1540.3694 C60.17,1421.5594 70.8,1068.9494 145,987.6094 C175.31,954.3894 219.5231,944.0852 260.2131,941.3952 " fill="none" id="QA-to-CU10" style="stroke:#181818;stroke-width:1.0;"/><polygon fill="#181818" points="266.2,940.9994,256.9557,937.6018,261.2109,941.3292,257.4835,945.5844,266.2,940.9994" style="stroke:#181818;stroke-width:1.0;"/></g><!--link QA to CU11--><g id="link_QA_CU11"><path d="M59.87,1540.4394 C64.37,1434.4794 82.26,1145.6194 145,1078.6094 C175.73,1045.7894 219.9342,1035.4825 260.5042,1032.6825 " fill="none" id="QA-to-CU11" style="stroke:#181818;stroke-width:1.0;"/><polygon fill="#181818" points="266.49,1032.2694,257.2359,1028.8985,261.5019,1032.6136,257.7868,1036.8796,266.49,1032.2694" style="stroke:#181818;stroke-width:1.0;"/></g><!--link QA to CU12--><g id="link_QA_CU12"><path d="M61.53,1540.2994 C69.42,1448.2294 93.67,1222.4394 145,1169.6094 C170.42,1143.4494 202.2752,1132.3212 237.2052,1127.1312 " fill="none" id="QA-to-CU12" style="stroke:#181818;stroke-width:1.0;"/><polygon fill="#181818" points="243.14,1126.2494,233.6499,1123.6155,238.1943,1126.9842,234.8256,1131.5287,243.14,1126.2494" style="stroke:#181818;stroke-width:1.0;"/></g><!--link QA to CU13--><g id="link_QA_CU13"><path d="M64.06,1540.5494 C75.7,1464.2894 104.89,1299.6094 145,1260.6094 C172.82,1233.5594 207.9904,1222.5856 244.5504,1217.8156 " fill="none" id="QA-to-CU13" style="stroke:#181818;stroke-width:1.0;"/><polygon fill="#181818" points="250.5,1217.0394,241.0581,1214.2374,245.542,1217.6862,242.0931,1222.1701,250.5,1217.0394" style="stroke:#181818;stroke-width:1.0;"/></g><!--link QA to CU14--><g id="link_QA_CU14"><path d="M62.31,1540.2894 C69.41,1489.1594 89.42,1400.5994 145,1351.6094 C170.61,1329.0294 199.7056,1318.386 232.4756,1312.466 " fill="none" id="QA-to-CU14" style="stroke:#181818;stroke-width:1.0;"/><polygon fill="#181818" points="238.38,1311.3994,228.8123,1309.0631,233.4596,1312.2883,230.2345,1316.9356,238.38,1311.3994" style="stroke:#181818;stroke-width:1.0;"/></g><!--link QA to CU15--><g id="link_QA_CU15"><path d="M73.49,1540.2994 C87.39,1509.1594 111.06,1466.9594 145,1442.6094 C177.07,1419.6094 213.4794,1409.1693 249.7194,1403.6093 " fill="none" id="QA-to-CU15" style="stroke:#181818;stroke-width:1.0;"/><polygon fill="#181818" points="255.65,1402.6994,246.1475,1400.1105,250.7078,1403.4576,247.3607,1408.0179,255.65,1402.6994" style="stroke:#181818;stroke-width:1.0;"/></g><!--link QA to CU16--><g id="link_QA_CU16"><path d="M109.19,1549.9294 C120.71,1543.9594 133.07,1538.1394 145,1533.6094 C178.94,1520.7294 211.9289,1511.9428 245.3589,1504.6228 " fill="none" id="QA-to-CU16" style="stroke:#181818;stroke-width:1.0;"/><polygon fill="#181818" points="251.22,1503.3394,241.5727,1501.357,246.3357,1504.4089,243.2839,1509.1719,251.22,1503.3394" style="stroke:#181818;stroke-width:1.0;"/></g><!--link QA to CU17--><g id="link_QA_CU17"><path d="M109.21,1579.6094 C147.07,1579.6094 193.73,1579.6094 238.29,1579.6094 " fill="none" id="QA-to-CU17" style="stroke:#181818;stroke-width:1.0;"/><polygon fill="#181818" points="244.29,1579.6094,235.29,1575.6094,239.29,1579.6094,235.29,1583.6094,244.29,1579.6094" style="stroke:#181818;stroke-width:1.0;"/></g><!--link QA to CU18--><g id="link_QA_CU18"><path d="M109.26,1608.5694 C120.78,1614.4094 133.12,1620.1294 145,1624.6094 C178.39,1637.2094 210.5888,1645.9813 243.5888,1653.4713 " fill="none" id="QA-to-CU18" style="stroke:#181818;stroke-width:1.0;"/><polygon fill="#181818" points="249.44,1654.7994,241.5486,1648.9065,244.564,1653.6927,239.7779,1656.7081,249.44,1654.7994" style="stroke:#181818;stroke-width:1.0;"/></g><!--link QA to CU19--><g id="link_QA_CU19"><path d="M73.74,1618.8994 C87.71,1649.7594 111.37,1691.4394 145,1715.6094 C174.52,1736.8194 206.8066,1747.237 240.9366,1753.437 " fill="none" id="QA-to-CU19" style="stroke:#181818;stroke-width:1.0;"/><polygon fill="#181818" points="246.84,1754.5094,238.6999,1748.9652,241.9205,1753.6157,237.27,1756.8364,246.84,1754.5094" style="stroke:#181818;stroke-width:1.0;"/></g><!--link QA to CU20--><g id="link_QA_CU20"><path d="M62.4,1618.7194 C69.6,1669.5894 89.72,1757.7094 145,1806.6094 C171.23,1829.8094 201.4033,1840.6652 234.8533,1846.6352 " fill="none" id="QA-to-CU20" style="stroke:#181818;stroke-width:1.0;"/><polygon fill="#181818" points="240.76,1847.6894,232.6028,1842.1703,235.8378,1846.8109,231.1972,1850.0459,240.76,1847.6894" style="stroke:#181818;stroke-width:1.0;"/></g><!--link QA to CU21--><g id="link_QA_CU21"><path d="M64.14,1618.8294 C75.87,1694.9494 105.14,1858.6894 145,1897.6094 C178.28,1930.1094 224.6866,1940.4034 265.4766,1943.4434 " fill="none" id="QA-to-CU21" style="stroke:#181818;stroke-width:1.0;"/><polygon fill="#181818" points="271.46,1943.8894,262.7822,1939.2315,266.4738,1943.5178,262.1876,1947.2094,271.46,1943.8894" style="stroke:#181818;stroke-width:1.0;"/></g><!--link QA to CU22--><g id="link_QA_CU22"><path d="M61.56,1618.8094 C69.52,1710.6194 93.91,1935.7894 145,1988.6094 C179.2,2023.9694 229.907,2033.5592 271.827,2035.5892 " fill="none" id="QA-to-CU22" style="stroke:#181818;stroke-width:1.0;"/><polygon fill="#181818" points="277.82,2035.8794,269.024,2031.4487,272.8259,2035.6375,268.6371,2039.4394,277.82,2035.8794" style="stroke:#181818;stroke-width:1.0;"/></g><!--link QA to CU23--><g id="link_QA_CU23"><path d="M59.9,1618.6794 C64.47,1724.3994 82.54,2012.5794 145,2079.6094 C171.15,2107.6694 205.4924,2119.008 241.9424,2123.858 " fill="none" id="QA-to-CU23" style="stroke:#181818;stroke-width:1.0;"/><polygon fill="#181818" points="247.89,2124.6494,239.4962,2119.4973,242.9337,2123.9899,238.441,2127.4274,247.89,2124.6494" style="stroke:#181818;stroke-width:1.0;"/></g><!--link QA to CU24--><g id="link_QA_CU24"><path d="M58.74,1618.7694 C60.28,1737.3294 71.11,2089.2294 145,2170.6094 C176.94,2205.7894 225.1182,2215.7451 266.8682,2217.9351 " fill="none" id="QA-to-CU24" style="stroke:#181818;stroke-width:1.0;"/><polygon fill="#181818" points="272.86,2218.2494,264.0819,2213.7834,267.8669,2217.9875,263.6628,2221.7724,272.86,2218.2494" style="stroke:#181818;stroke-width:1.0;"/></g><!--link QA to CU25--><g id="link_QA_CU25"><path d="M57.88,1618.6594 C56.65,1748.9094 59.57,2165.6794 145,2261.6094 C179.04,2299.8394 233.3117,2308.6165 276.1217,2309.6365 " fill="none" id="QA-to-CU25" style="stroke:#181818;stroke-width:1.0;"/><polygon fill="#181818" points="282.12,2309.7794,273.2178,2305.5661,277.1214,2309.6603,273.0273,2313.5639,282.12,2309.7794" style="stroke:#181818;stroke-width:1.0;"/></g><!--link QA to CU26--><g id="link_QA_CU26"><path d="M60.28,1618.6194 C67.44,1767.8394 96.1,2296.8794 145,2352.6094 C177.88,2390.0894 229.9629,2399.2923 272.6029,2400.6223 " fill="none" id="QA-to-CU26" style="stroke:#181818;stroke-width:1.0;"/><polygon fill="#181818" points="278.6,2400.8094,269.7291,2396.5307,273.6024,2400.6535,269.4797,2404.5268,278.6,2400.8094" style="stroke:#181818;stroke-width:1.0;"/></g><!--link QA to CU27--><g id="link_QA_CU27"><path d="M59.8,1618.7494 C65.47,1779.1194 90.28,2380.5094 145,2443.6094 C162.48,2463.7694 181.4618,2474.2393 207.2518,2481.2793 " fill="none" id="QA-to-CU27" style="stroke:#181818;stroke-width:1.0;"/><polygon fill="#181818" points="213.04,2482.8594,205.411,2476.6305,208.2165,2481.5427,203.3043,2484.3481,213.04,2482.8594" style="stroke:#181818;stroke-width:1.0;"/></g><!--link QA to CU28--><g id="link_QA_CU28"><path d="M59.41,1618.7494 C63.7,1789.5394 84.43,2464.0894 145,2534.6094 C162.71,2555.2294 182.241,2565.8393 208.561,2572.8293 " fill="none" id="QA-to-CU28" style="stroke:#181818;stroke-width:1.0;"/><polygon fill="#181818" points="214.36,2574.3694,206.6883,2568.1933,209.5275,2573.086,204.6348,2575.9252,214.36,2574.3694" style="stroke:#181818;stroke-width:1.0;"/></g><!--link QA to CU29--><g id="link_QA_CU29"><path d="M59.08,1618.7794 C62.1,1799.5394 78.56,2547.6394 145,2625.6094 C162.63,2646.2994 182.1312,2656.9287 208.4412,2663.9187 " fill="none" id="QA-to-CU29" style="stroke:#181818;stroke-width:1.0;"/><polygon fill="#181818" points="214.24,2665.4594,206.5688,2659.2825,209.4076,2664.1755,204.5147,2667.0143,214.24,2665.4594" style="stroke:#181818;stroke-width:1.0;"/></g><!--link QA to CU30--><g id="link_QA_CU30"><path d="M58.8,1618.6394 C60.62,1808.6494 72.65,2631.1394 145,2716.6094 C166.65,2742.1894 194.1444,2753.719 226.7244,2759.569 " fill="none" id="QA-to-CU30" style="stroke:#181818;stroke-width:1.0;"/><polygon fill="#181818" points="232.63,2760.6294,224.4786,2755.1018,227.7087,2759.7457,223.0647,2762.9758,232.63,2760.6294" style="stroke:#181818;stroke-width:1.0;"/></g><!--link QA to CU31--><g id="link_QA_CU31"><path d="M58.57,1618.7494 C59.27,1818.0894 66.77,2714.6594 145,2807.6094 C174.74,2842.9494 220.8988,2853.184 262.5088,2855.444 " fill="none" id="QA-to-CU31" style="stroke:#181818;stroke-width:1.0;"/><polygon fill="#181818" points="268.5,2855.7694,259.7302,2851.2872,263.5074,2855.4982,259.2963,2859.2754,268.5,2855.7694" style="stroke:#181818;stroke-width:1.0;"/></g><!--link QA to CU32--><g id="link_QA_CU32"><path d="M58.37,1618.8594 C58,1827.2394 60.87,2798.1694 145,2898.6094 C173.8,2932.9994 217.8325,2943.5623 258.8225,2946.2123 " fill="none" id="QA-to-CU32" style="stroke:#181818;stroke-width:1.0;"/><polygon fill="#181818" points="264.81,2946.5994,256.0868,2942.0271,259.8204,2946.2768,255.5707,2950.0104,264.81,2946.5994" style="stroke:#181818;stroke-width:1.0;"/></g><!--link QA to CU33--><g id="link_QA_CU33"><path d="M58.19,1618.6894 C56.82,1835.1794 54.93,2881.5994 145,2989.6094 C176.08,3026.8694 226.0737,3036.4294 268.6237,3037.9194 " fill="none" id="QA-to-CU33" style="stroke:#181818;stroke-width:1.0;"/><polygon fill="#181818" points="274.62,3038.1294,265.7655,3033.8169,269.6231,3037.9544,265.4855,3041.812,274.62,3038.1294" style="stroke:#181818;stroke-width:1.0;"/></g><!--SRC=[ZLNBZXen4BpFLrZSaR27voKIGH6AaaZPaEJ4nNWQi7QmYH-RPAFyUsnOGtjcO7EYPQgwx2gtfuQj8quJ8tTxHoffG3YfLU6agu4ikDMML42yrQHFtgiTA0b6nwM7UL5muRGXlSPwZt1x-ZisuseN6lLMqZeuy1xvKv3G3GIt48bII6xMoe8DgYVYujk0Oim2Z6b3M97tSKPNNiY0gxJm1r2EYm0dMw_YBwyJiSIykTLHdsISjUBaQFJli7cTMCDiHrfPNxl0Cx050q61drngj8c-gLQhKRRpTx-SuH2sBP3L2Jh6o8_1GNu3EEdStXdRW4upg84Ri5bcat2Ur_Av6qi7sO5gUP3g1f9sdJsu-CDBAvssQtN92smYiROBhr7AMt6zi10fKOOjN-x2Hzt-tEMCktowovXaVYr1GHW50bP0OCfu-EKUpADCOq6d7LxTWS-AzgatEinR5SQwWck6H-DXmrzeRD1rBnFlaWAZDsvbGYPS5l1SyV0AaIr0jU7YCGvZ4v-b-mLsPrlQVOTvHd3iL1_btSIUFtV1nfrHvFx4aJVoAT3YMhD3DgIV_QQMegC3AF91_fJaw-BJAZ6pLDzwctZsDM8snT_XlzJABDqLr21Eb_Bo15y2BcdxzYWFJxpnM9TPm4lFJHMxXPiIBqIbB_tAuczHFCn9l__c_1curWpL9Qg7g1wXUepg2Qgdg9vTw_26NMkaIv4kHReKwLAaIv4kHReKwLAaov0kGxeCwJAaov0kGxeCwJAaov0kGxebqYsHRebqGnp_0000]--></g></svg>