<svg xmlns="http://www.w3.org/2000/svg" xmlns:xlink="http://www.w3.org/1999/xlink" contentStyleType="text/css" data-diagram-type="DESCRIPTION" height="450px" preserveAspectRatio="none" style="width:420px;height:450px;background:#FFFFFF;" version="1.1" viewBox="0 0 420 450" width="420px" zoomAndPan="magnify"><defs/><g><!--cluster Testing--><g class="cluster" data-entity="Testing" data-source-line="5" data-uid="ent0003" id="cluster_Testing"><rect fill="none" height="437" rx="2.5" ry="2.5" style="stroke:#181818;stroke-width:1;" width="273" x="141" y="7"/><text fill="#000000" font-family="sans-serif" font-size="14" font-weight="bold" lengthAdjust="spacing" textLength="58.8574" x="248.0713" y="21.9951">Testing</text></g><!--entity UC1--><g class="entity" data-entity="UC1" data-source-line="6" data-uid="ent0004" id="entity_UC1"><ellipse cx="277.3915" cy="63.7783" fill="#F1F1F1" rx="96.8915" ry="21.7783" style="stroke:#181818;stroke-width:0.5;"/><text fill="#000000" font-family="sans-serif" font-size="14" lengthAdjust="spacing" textLength="169.1826" x="192.8002" y="68.4267">Analizar documentaci&#243;n</text></g><!--entity UC2--><g class="entity" data-entity="UC2" data-source-line="7" data-uid="ent0005" id="entity_UC2"><ellipse cx="277.6422" cy="148.0284" fill="#F1F1F1" rx="120.6422" ry="26.5284" style="stroke:#181818;stroke-width:0.5;"/><text fill="#000000" font-family="sans-serif" font-size="14" lengthAdjust="spacing" textLength="173.4209" x="190.9318" y="144.9244">Estructurar casos de uso</text><text fill="#000000" font-family="sans-serif" font-size="14" lengthAdjust="spacing" textLength="165.8125" x="194.736" y="161.2213">y requisitos funcionales</text></g><!--entity UC3--><g class="entity" data-entity="UC3" data-source-line="8" data-uid="ent0006" id="entity_UC3"><ellipse cx="277.3036" cy="234.06" fill="#F1F1F1" rx="91.3036" ry="24.06" style="stroke:#181818;stroke-width:0.5;"/><text fill="#000000" font-family="sans-serif" font-size="14" lengthAdjust="spacing" textLength="136.6641" x="208.9716" y="233.5176">Generar escenarios</text><text fill="#000000" font-family="sans-serif" font-size="14" lengthAdjust="spacing" textLength="71.5449" x="241.5311" y="249.8145">de prueba</text></g><!--entity UC4--><g class="entity" data-entity="UC4" data-source-line="9" data-uid="ent0007" id="entity_UC4"><ellipse cx="277.5798" cy="317.1685" fill="#F1F1F1" rx="88.5798" ry="24.1685" style="stroke:#181818;stroke-width:0.5;"/><text fill="#000000" font-family="sans-serif" font-size="14" lengthAdjust="spacing" textLength="131.7695" x="211.695" y="316.4555">Revisar escenarios</text><text fill="#000000" font-family="sans-serif" font-size="14" lengthAdjust="spacing" textLength="74.0674" x="240.5461" y="332.7523">generados</text></g><!--entity UC5--><g class="entity" data-entity="UC5" data-source-line="10" data-uid="ent0008" id="entity_UC5"><ellipse cx="277.4472" cy="401.9552" fill="#F1F1F1" rx="96.4472" ry="25.4552" style="stroke:#181818;stroke-width:0.5;"/><text fill="#000000" font-family="sans-serif" font-size="14" lengthAdjust="spacing" textLength="135.6387" x="209.6279" y="399.3038">Publicar escenarios</text><text fill="#000000" font-family="sans-serif" font-size="14" lengthAdjust="spacing" textLength="120.6885" x="217.103" y="415.6007">en API Kiwi TCMS</text></g><!--entity QA--><g class="entity" data-entity="QA" data-source-line="3" data-uid="ent0002" id="entity_QA"><ellipse cx="51.623" cy="204.5" fill="#F1F1F1" rx="8" ry="8" style="stroke:#181818;stroke-width:0.5;"/><path d="M51.623,212.5 L51.623,239.5 M38.623,220.5 L64.623,220.5 M51.623,239.5 L38.623,254.5 M51.623,239.5 L64.623,254.5" fill="none" style="stroke:#181818;stroke-width:0.5;"/><text fill="#000000" font-family="sans-serif" font-size="14" lengthAdjust="spacing" textLength="91.2461" x="6" y="268.9951">Ingeniero QA</text></g><!--link QA to UC1--><g class="link" data-entity-1="QA" data-entity-2="UC1" data-source-line="13" data-uid="lnk9" id="link_QA_UC1"><path d="M67.02,195.81 C80.03,166.55 101.9,127.35 133,104 C150.99,90.49 167.5425,83.1225 189.1925,77.2025" fill="none" id="QA-to-UC1" style="stroke:#181818;stroke-width:1;"/><polygon fill="#181818" points="194.98,75.62,185.2437,74.1355,190.1571,76.9388,187.3537,81.8522,194.98,75.62" style="stroke:#181818;stroke-width:1;"/></g><!--link QA to UC2--><g class="link" data-entity-1="QA" data-entity-2="UC2" data-source-line="14" data-uid="lnk10" id="link_QA_UC2"><path d="M97.36,208.75 C108.79,202.83 121.19,196.85 133,192 C154.46,183.2 172.5989,176.9434 194.6289,170.2534" fill="none" id="QA-to-UC2" style="stroke:#181818;stroke-width:1;"/><polygon fill="#181818" points="200.37,168.51,190.596,167.2978,195.5857,169.9629,192.9206,174.9526,200.37,168.51" style="stroke:#181818;stroke-width:1;"/></g><!--link QA to UC3--><g class="link" data-entity-1="QA" data-entity-2="UC3" data-source-line="15" data-uid="lnk11" id="link_QA_UC3"><path d="M97.02,234 C122.41,234 149.18,234 179.75,234" fill="none" id="QA-to-UC3" style="stroke:#181818;stroke-width:1;"/><polygon fill="#181818" points="185.75,234,176.75,230,180.75,234,176.75,238,185.75,234" style="stroke:#181818;stroke-width:1;"/></g><!--link QA to UC4--><g class="link" data-entity-1="QA" data-entity-2="UC4" data-source-line="16" data-uid="lnk12" id="link_QA_UC4"><path d="M97.37,258.71 C108.8,264.49 121.19,270.31 133,275 C158.21,285.01 180.9707,292.2278 205.9207,299.1878" fill="none" id="QA-to-UC4" style="stroke:#181818;stroke-width:1;"/><polygon fill="#181818" points="211.7,300.8,204.1058,294.5288,206.8839,299.4565,201.9562,302.2346,211.7,300.8" style="stroke:#181818;stroke-width:1;"/></g><!--link QA to UC5--><g class="link" data-entity-1="QA" data-entity-2="UC5" data-source-line="17" data-uid="lnk13" id="link_QA_UC5"><path d="M68.58,272.23 C82.01,299.8 103.7,335.9 133,358 C151.51,371.97 168.7471,379.8357 190.8571,386.3857" fill="none" id="QA-to-UC5" style="stroke:#181818;stroke-width:1;"/><polygon fill="#181818" points="196.61,388.09,189.1169,381.6984,191.8159,386.6698,186.8445,389.3688,196.61,388.09" style="stroke:#181818;stroke-width:1;"/></g><!--SRC=[NOzDJWCn34RtEOKr-oxepnPfL25K8QGMoguRD-CEbeBJnWu84AVY25oCT3GmewxooVdUSnBeO60H4hVF1WqdyiPHd4DlCK6rafQ4AKNOr1MWbiEvSmcb3GJLbjHOsWe-7K1MygXbMWi6_i04JVJvXSJGyy-tT8AdvTMuUgEMihUSIhjCea93vJRkv1qIdJ8hMnaUilZoBWoalMKwjjoIqDb0waamSTIT5CynPTfZ3yp6m0Ezibu0RITfuj-6-HXOvtrWVq6GGBrUmHs_CMoNzuyzk71Vpcrgc4okk-_-n-aGPqES3t7n2m00]--></g></svg>