<?xml version="1.0" encoding="us-ascii" standalone="no"?><svg xmlns="http://www.w3.org/2000/svg" xmlns:xlink="http://www.w3.org/1999/xlink" contentStyleType="text/css" height="574px" preserveAspectRatio="none" style="width:3703px;height:574px;background:#FFFFFF;" version="1.1" viewBox="0 0 3703 574" width="3703px" zoomAndPan="magnify"><defs/><g><ellipse cx="16" cy="463.3564" fill="#222222" rx="10" ry="10" style="stroke:#222222;stroke-width:1.0;"/><g id="SISTEMA_CERRADO"><rect fill="#F1F1F1" height="50" rx="12.5" ry="12.5" style="stroke:#181818;stroke-width:0.5;" width="156" x="87" y="438.3564"/><line style="stroke:#181818;stroke-width:0.5;" x1="87" x2="243" y1="465.9658" y2="465.9658"/><text fill="#000000" font-family="sans-serif" font-size="14" lengthAdjust="spacing" textLength="136" x="97" y="457.8896">SISTEMA_CERRADO</text></g><g id="SESIONES_ABIERTAS"><rect fill="#F1F1F1" height="50" rx="12.5" ry="12.5" style="stroke:#181818;stroke-width:0.5;" width="163" x="387" y="438.3564"/><line style="stroke:#181818;stroke-width:0.5;" x1="387" x2="550" y1="465.9658" y2="465.9658"/><text fill="#000000" font-family="sans-serif" font-size="14" lengthAdjust="spacing" textLength="143" x="397" y="457.8896">SESIONES_ABIERTAS</text></g><g id="DOCUMENTACION_ABIERTA"><rect fill="#F1F1F1" height="50" rx="12.5" ry="12.5" style="stroke:#181818;stroke-width:0.5;" width="206" x="740" y="438.3564"/><line style="stroke:#181818;stroke-width:0.5;" x1="740" x2="946" y1="465.9658" y2="465.9658"/><text fill="#000000" font-family="sans-serif" font-size="14" lengthAdjust="spacing" textLength="186" x="750" y="457.8896">DOCUMENTACION_ABIERTA</text></g><g id="CASOS_USO_ABIERTO"><rect fill="#F1F1F1" height="50" rx="12.5" ry="12.5" style="stroke:#181818;stroke-width:0.5;" width="173" x="1118" y="293.3564"/><line style="stroke:#181818;stroke-width:0.5;" x1="1118" x2="1291" y1="320.9658" y2="320.9658"/><text fill="#000000" font-family="sans-serif" font-size="14" lengthAdjust="spacing" textLength="153" x="1128" y="312.8896">CASOS_USO_ABIERTO</text></g><g id="CASO_USO_ABIERTO"><rect fill="#F1F1F1" height="50" rx="12.5" ry="12.5" style="stroke:#181818;stroke-width:0.5;" width="164" x="1572" y="293.3564"/><line style="stroke:#181818;stroke-width:0.5;" x1="1572" x2="1736" y1="320.9658" y2="320.9658"/><text fill="#000000" font-family="sans-serif" font-size="14" lengthAdjust="spacing" textLength="144" x="1582" y="312.8896">CASO_USO_ABIERTO</text></g><g id="REQUISITOS_FUNCIONALES_ABIERTO"><rect fill="#F1F1F1" height="50" rx="12.5" ry="12.5" style="stroke:#181818;stroke-width:0.5;" width="274" x="1999" y="460.3564"/><line style="stroke:#181818;stroke-width:0.5;" x1="1999" x2="2273" y1="487.9658" y2="487.9658"/><text fill="#000000" font-family="sans-serif" font-size="14" lengthAdjust="spacing" textLength="254" x="2009" y="479.8896">REQUISITOS_FUNCIONALES_ABIERTO</text></g><g id="REQUISITO_FUNCIONAL_ABIERTO"><rect fill="#F1F1F1" height="50" rx="12.5" ry="12.5" style="stroke:#181818;stroke-width:0.5;" width="247" x="2509" y="460.3564"/><line style="stroke:#181818;stroke-width:0.5;" x1="2509" x2="2756" y1="487.9658" y2="487.9658"/><text fill="#000000" font-family="sans-serif" font-size="14" lengthAdjust="spacing" textLength="227" x="2519" y="479.8896">REQUISITO_FUNCIONAL_ABIERTO</text></g><g id="ESCENARIOS_GHERKIN_ABIERTO"><rect fill="#F1F1F1" height="50" rx="12.5" ry="12.5" style="stroke:#181818;stroke-width:0.5;" width="244" x="1532" y="180.3564"/><line style="stroke:#181818;stroke-width:0.5;" x1="1532" x2="1776" y1="207.9658" y2="207.9658"/><text fill="#000000" font-family="sans-serif" font-size="14" lengthAdjust="spacing" textLength="224" x="1542" y="199.8896">ESCENARIOS_GHERKIN_ABIERTO</text></g><g id="BORRADORES_ABIERTO"><rect fill="#F1F1F1" height="50" rx="12.5" ry="12.5" style="stroke:#181818;stroke-width:0.5;" width="186" x="2043" y="155.3564"/><line style="stroke:#181818;stroke-width:0.5;" x1="2043" x2="2229" y1="182.9658" y2="182.9658"/><text fill="#000000" font-family="sans-serif" font-size="14" lengthAdjust="spacing" textLength="166" x="2053" y="174.8896">BORRADORES_ABIERTO</text></g><g id="BORRADOR_ABIERTO"><rect fill="#F1F1F1" height="50" rx="12.5" ry="12.5" style="stroke:#181818;stroke-width:0.5;" width="168" x="2548.5" y="128.3564"/><line style="stroke:#181818;stroke-width:0.5;" x1="2548.5" x2="2716.5" y1="155.9658" y2="155.9658"/><text fill="#000000" font-family="sans-serif" font-size="14" lengthAdjust="spacing" textLength="148" x="2558.5" y="147.8896">BORRADOR_ABIERTO</text></g><g id="CASO_PRUEBA_PREPARADO"><rect fill="#F1F1F1" height="50" rx="12.5" ry="12.5" style="stroke:#181818;stroke-width:0.5;" width="216" x="3054" y="128.3564"/><line style="stroke:#181818;stroke-width:0.5;" x1="3054" x2="3270" y1="155.9658" y2="155.9658"/><text fill="#000000" font-family="sans-serif" font-size="14" lengthAdjust="spacing" textLength="196" x="3064" y="147.8896">CASO_PRUEBA_PREPARADO</text></g><g id="KIWI_TCMS_ABIERTO"><rect fill="#F1F1F1" height="50" rx="12.5" ry="12.5" style="stroke:#181818;stroke-width:0.5;" width="163" x="3533" y="128.3564"/><line style="stroke:#181818;stroke-width:0.5;" x1="3533" x2="3696" y1="155.9658" y2="155.9658"/><text fill="#000000" font-family="sans-serif" font-size="14" lengthAdjust="spacing" textLength="143" x="3543" y="147.8896">KIWI_TCMS_ABIERTO</text></g><!--link *start* to SISTEMA_CERRADO--><g id="link_*start*_SISTEMA_CERRADO"><path d="M26.2,463.3564 C38.77,463.3564 56.54,463.3564 80.85,463.3564 " fill="none" id="*start*-to-SISTEMA_CERRADO" style="stroke:#181818;stroke-width:1.0;"/><polygon fill="#181818" points="86.85,463.3564,77.85,459.3564,81.85,463.3564,77.85,467.3564,86.85,463.3564" style="stroke:#181818;stroke-width:1.0;"/></g><!--link SISTEMA_CERRADO to SESIONES_ABIERTAS--><g id="link_SISTEMA_CERRADO_SESIONES_ABIERTAS"><path d="M243.25,463.3564 C287.22,463.3564 336.23,463.3564 380.76,463.3564 " fill="none" id="SISTEMA_CERRADO-to-SESIONES_ABIERTAS" style="stroke:#181818;stroke-width:1.0;"/><polygon fill="#181818" points="386.76,463.3564,377.76,459.3564,381.76,463.3564,377.76,467.3564,386.76,463.3564" style="stroke:#181818;stroke-width:1.0;"/><text fill="#000000" font-family="sans-serif" font-size="13" lengthAdjust="spacing" textLength="82" x="274" y="459.8516">iniciarSesion()</text></g><!--link SESIONES_ABIERTAS to SISTEMA_CERRADO--><g id="link_SESIONES_ABIERTAS_SISTEMA_CERRADO"><path d="M386.71,484.6264 C376.76,486.5764 366.69,488.2364 357,489.3564 C319.92,493.6664 310.07,493.7964 273,489.3564 C263.22,488.1864 258.928,487.6402 248.918,485.5902 " fill="none" id="SESIONES_ABIERTAS-to-SISTEMA_CERRADO" style="stroke:#181818;stroke-width:1.0;"/><polygon fill="#181818" points="243.04,484.3864,251.0545,490.1108,247.9383,485.3896,252.6595,482.2735,243.04,484.3864" style="stroke:#181818;stroke-width:1.0;"/><text fill="#000000" font-family="sans-serif" font-size="13" lengthAdjust="spacing" textLength="81" x="274.5" y="485.8516">cerrarSesion()</text></g><!--link SESIONES_ABIERTAS to DOCUMENTACION_ABIERTA--><g id="link_SESIONES_ABIERTAS_DOCUMENTACION_ABIERTA"><path d="M550.33,463.3564 C605.85,463.3564 674.02,463.3564 733.67,463.3564 " fill="none" id="SESIONES_ABIERTAS-to-DOCUMENTACION_ABIERTA" style="stroke:#181818;stroke-width:1.0;"/><polygon fill="#181818" points="739.67,463.3564,730.67,459.3564,734.67,463.3564,730.67,467.3564,739.67,463.3564" style="stroke:#181818;stroke-width:1.0;"/><text fill="#000000" font-family="sans-serif" font-size="13" lengthAdjust="spacing" textLength="128" x="581" y="459.8516">seleccionarSesiones()</text></g><!--link SESIONES_ABIERTAS to DOCUMENTACION_ABIERTA--><g id="link_SESIONES_ABIERTAS_DOCUMENTACION_ABIERTA"><path d="M550.29,484.6264 C560.24,486.5764 570.31,488.2364 580,489.3564 C637.39,496.0164 652.5,494.9664 710,489.3564 C719.76,488.4064 723.9515,487.9898 734.0315,486.4198 " fill="none" id="SESIONES_ABIERTAS-to-DOCUMENTACION_ABIERTA-1" style="stroke:#181818;stroke-width:1.0;"/><polygon fill="#181818" points="739.96,485.4964,730.4516,482.9292,735.0196,486.2659,731.6828,490.8339,739.96,485.4964" style="stroke:#181818;stroke-width:1.0;"/><text fill="#000000" font-family="sans-serif" font-size="13" lengthAdjust="spacing" textLength="112" x="589" y="485.8516">crearNuevaSesion()</text></g><!--link DOCUMENTACION_ABIERTA to DOCUMENTACION_ABIERTA--><g id="link_DOCUMENTACION_ABIERTA_DOCUMENTACION_ABIERTA"><path d="M832.4,438.0764 C829.18,420.5864 832.72,403.3564 843,403.3564 C853.28,403.3564 857.9064,414.6856 854.6864,432.1756 " fill="none" id="DOCUMENTACION_ABIERTA-to-DOCUMENTACION_ABIERTA" style="stroke:#181818;stroke-width:1.0;"/><polygon fill="#181818" points="853.6,438.0764,859.1634,429.9494,854.5053,433.1591,851.2957,428.501,853.6,438.0764" style="stroke:#181818;stroke-width:1.0;"/><text fill="#000000" font-family="sans-serif" font-size="13" lengthAdjust="spacing" textLength="207" x="739.5" y="394.8516">introducirDocumentacionFuncional()</text></g><!--link DOCUMENTACION_ABIERTA to DOCUMENTACION_ABIERTA--><g id="link_DOCUMENTACION_ABIERTA_DOCUMENTACION_ABIERTA"><path d="M826.53,438.0664 C813.28,406.2464 818.77,368.3564 843,368.3564 C867.23,368.3564 875.0265,400.7075 861.7765,432.5275 " fill="none" id="DOCUMENTACION_ABIERTA-to-DOCUMENTACION_ABIERTA-1" style="stroke:#181818;stroke-width:1.0;"/><polygon fill="#181818" points="859.47,438.0664,866.6223,431.2956,861.392,433.4506,859.237,428.2203,859.47,438.0664" style="stroke:#181818;stroke-width:1.0;"/><text fill="#000000" font-family="sans-serif" font-size="13" lengthAdjust="spacing" textLength="201" x="742.5" y="359.8516">asociarDocumentacionAProyecto()</text></g><!--link DOCUMENTACION_ABIERTA to DOCUMENTACION_ABIERTA--><g id="link_DOCUMENTACION_ABIERTA_DOCUMENTACION_ABIERTA"><path d="M823.11,438.1564 C797.36,393.0764 803.99,333.3564 843,333.3564 C882.01,333.3564 891.616,387.8665 865.866,432.9465 " fill="none" id="DOCUMENTACION_ABIERTA-to-DOCUMENTACION_ABIERTA-2" style="stroke:#181818;stroke-width:1.0;"/><polygon fill="#181818" points="862.89,438.1564,870.8272,432.3255,865.37,433.8148,863.8806,428.3575,862.89,438.1564" style="stroke:#181818;stroke-width:1.0;"/><text fill="#000000" font-family="sans-serif" font-size="13" lengthAdjust="spacing" textLength="271" x="707.5" y="324.8516">consultarReferenciasDocumentacionProyecto()</text></g><!--link DOCUMENTACION_ABIERTA to CASOS_USO_ABIERTO--><g id="link_DOCUMENTACION_ABIERTA_CASOS_USO_ABIERTO"><path d="M877.13,438.2364 C902.9,419.7164 940.19,395.1064 976,379.3564 C1021.2,359.4764 1068.5218,346.1274 1112.0918,336.1374 " fill="none" id="DOCUMENTACION_ABIERTA-to-CASOS_USO_ABIERTO" style="stroke:#181818;stroke-width:1.0;"/><polygon fill="#181818" points="1117.94,334.7964,1108.2737,332.909,1113.0665,335.9139,1110.0616,340.7067,1117.94,334.7964" style="stroke:#181818;stroke-width:1.0;"/><text fill="#000000" font-family="sans-serif" font-size="13" lengthAdjust="spacing" textLength="108" x="978" y="339.8516">extraerCasosUso()</text></g><!--link CASOS_USO_ABIERTO to DOCUMENTACION_ABIERTA--><g id="link_CASOS_USO_ABIERTO_DOCUMENTACION_ABIERTA"><path d="M1176.68,343.7064 C1154.52,363.3064 1121.4,389.6564 1088,405.3564 C1043.67,426.1964 997.067,438.7677 952.157,447.6077 " fill="none" id="CASOS_USO_ABIERTO-to-DOCUMENTACION_ABIERTA" style="stroke:#181818;stroke-width:1.0;"/><polygon fill="#181818" points="946.27,448.7664,955.8731,450.9529,951.1759,447.8008,954.328,443.1036,946.27,448.7664" style="stroke:#181818;stroke-width:1.0;"/><text fill="#000000" font-family="sans-serif" font-size="13" lengthAdjust="spacing" textLength="110" x="977" y="401.8516">completarGestion()</text></g><!--link CASOS_USO_ABIERTO to CASOS_USO_ABIERTO--><g id="link_CASOS_USO_ABIERTO_CASOS_USO_ABIERTO"><path d="M1189.95,293.0764 C1185.54,275.5864 1190.39,258.3564 1204.5,258.3564 C1218.61,258.3564 1224.927,269.7685 1220.517,287.2585 " fill="none" id="CASOS_USO_ABIERTO-to-CASOS_USO_ABIERTO" style="stroke:#181818;stroke-width:1.0;"/><polygon fill="#181818" points="1219.05,293.0764,1225.129,285.3276,1220.2725,288.2282,1217.3718,283.3716,1219.05,293.0764" style="stroke:#181818;stroke-width:1.0;"/><text fill="#000000" font-family="sans-serif" font-size="13" lengthAdjust="spacing" textLength="96" x="1156.5" y="249.8516">listarCasosUso()</text></g><!--link CASOS_USO_ABIERTO to CASOS_USO_ABIERTO--><g id="link_CASOS_USO_ABIERTO_CASOS_USO_ABIERTO"><path d="M1181.9,293.0664 C1163.71,261.2464 1171.24,223.3564 1204.5,223.3564 C1237.76,223.3564 1248.2677,256.0375 1230.0777,287.8575 " fill="none" id="CASOS_USO_ABIERTO-to-CASOS_USO_ABIERTO-1" style="stroke:#181818;stroke-width:1.0;"/><polygon fill="#181818" points="1227.1,293.0664,1235.0392,287.2382,1229.5814,288.7256,1228.0939,283.2679,1227.1,293.0664" style="stroke:#181818;stroke-width:1.0;"/><text fill="#000000" font-family="sans-serif" font-size="13" lengthAdjust="spacing" textLength="116" x="1146.5" y="214.8516">guardarResultados()</text></g><!--link CASOS_USO_ABIERTO to CASO_USO_ABIERTO--><g id="link_CASOS_USO_ABIERTO_CASO_USO_ABIERTO"><path d="M1232.95,293.1964 C1254.94,274.8464 1287.55,251.4864 1321,241.3564 C1397.99,218.0464 1423.78,222.5664 1502,241.3564 C1543.63,251.3564 1581.6343,271.6827 1611.0743,290.1127 " fill="none" id="CASOS_USO_ABIERTO-to-CASO_USO_ABIERTO" style="stroke:#181818;stroke-width:1.0;"/><polygon fill="#181818" points="1616.16,293.2964,1610.654,285.1304,1611.922,290.6433,1606.409,291.9113,1616.16,293.2964" style="stroke:#181818;stroke-width:1.0;"/><text fill="#000000" font-family="sans-serif" font-size="13" lengthAdjust="spacing" textLength="114" x="1354.5" y="222.8516">consultarCasoUso()</text></g><!--link CASOS_USO_ABIERTO to CASO_USO_ABIERTO--><g id="link_CASOS_USO_ABIERTO_CASO_USO_ABIERTO"><path d="M1291.09,302.6864 C1301.14,301.3164 1311.28,300.1564 1321,299.3564 C1401.18,292.8064 1421.71,294.3264 1502,299.3564 C1524.68,300.7764 1543.2071,302.6357 1565.7271,305.4757 " fill="none" id="CASOS_USO_ABIERTO-to-CASO_USO_ABIERTO-1" style="stroke:#181818;stroke-width:1.0;"/><polygon fill="#181818" points="1571.68,306.2264,1563.2512,301.1318,1566.7193,305.6008,1562.2502,309.0689,1571.68,306.2264" style="stroke:#181818;stroke-width:1.0;"/><text fill="#000000" font-family="sans-serif" font-size="13" lengthAdjust="spacing" textLength="90" x="1366.5" y="291.8516">crearCasoUso()</text></g><!--link CASOS_USO_ABIERTO to CASO_USO_ABIERTO--><g id="link_CASOS_USO_ABIERTO_CASO_USO_ABIERTO"><path d="M1291.25,324.1364 C1301.28,324.6364 1311.36,325.0664 1321,325.3564 C1401.41,327.7964 1421.58,327.2164 1502,325.3564 C1524.69,324.8364 1543.2966,324.1472 1565.9266,323.0872 " fill="none" id="CASOS_USO_ABIERTO-to-CASO_USO_ABIERTO-2" style="stroke:#181818;stroke-width:1.0;"/><polygon fill="#181818" points="1571.92,322.8064,1562.7427,319.2319,1566.9255,323.0404,1563.117,327.2232,1571.92,322.8064" style="stroke:#181818;stroke-width:1.0;"/><text fill="#000000" font-family="sans-serif" font-size="13" lengthAdjust="spacing" textLength="117" x="1353" y="321.8516">actualizarCasoUso()</text></g><!--link CASOS_USO_ABIERTO to CASO_USO_ABIERTO--><g id="link_CASOS_USO_ABIERTO_CASO_USO_ABIERTO"><path d="M1276.22,343.3564 C1290.85,347.5164 1306.28,351.1764 1321,353.3564 C1400.58,365.1464 1422.08,362.4964 1502,353.3564 C1524.86,350.7464 1543.4447,347.3202 1565.8547,342.1302 " fill="none" id="CASOS_USO_ABIERTO-to-CASO_USO_ABIERTO-3" style="stroke:#181818;stroke-width:1.0;"/><polygon fill="#181818" points="1571.7,340.7764,1562.0296,338.9102,1566.8289,341.9046,1563.8346,346.7039,1571.7,340.7764" style="stroke:#181818;stroke-width:1.0;"/><text fill="#000000" font-family="sans-serif" font-size="13" lengthAdjust="spacing" textLength="106" x="1358.5" y="349.8516">eliminarCasoUso()</text></g><!--link CASO_USO_ABIERTO to CASOS_USO_ABIERTO--><g id="link_CASO_USO_ABIERTO_CASOS_USO_ABIERTO"><path d="M1611.1,343.4364 C1581.71,359.5064 1540.87,378.8964 1502,387.3564 C1423.4,404.4664 1398.55,408.7564 1321,387.3564 C1290.15,378.8464 1264.0998,363.2053 1242.0298,347.2253 " fill="none" id="CASO_USO_ABIERTO-to-CASOS_USO_ABIERTO" style="stroke:#181818;stroke-width:1.0;"/><polygon fill="#181818" points="1237.17,343.7064,1242.1139,352.2245,1241.2199,346.6388,1246.8056,345.7448,1237.17,343.7064" style="stroke:#181818;stroke-width:1.0;"/><text fill="#000000" font-family="sans-serif" font-size="13" lengthAdjust="spacing" textLength="110" x="1356.5" y="383.8516">completarGestion()</text></g><!--link DOCUMENTACION_ABIERTA to REQUISITOS_FUNCIONALES_ABIERTO--><g id="link_DOCUMENTACION_ABIERTA_REQUISITOS_FUNCIONALES_ABIERTO"><path d="M946.11,465.0964 C1176.87,469.0264 1732.6809,478.5043 1992.7509,482.9343 " fill="none" id="DOCUMENTACION_ABIERTA-to-REQUISITOS_FUNCIONALES_ABIERTO" style="stroke:#181818;stroke-width:1.0;"/><polygon fill="#181818" points="1998.75,483.0364,1989.8194,478.8837,1993.7507,482.9513,1989.6832,486.8826,1998.75,483.0364" style="stroke:#181818;stroke-width:1.0;"/><text fill="#000000" font-family="sans-serif" font-size="13" lengthAdjust="spacing" textLength="179" x="1322" y="467.8516">extraerRequisitosFuncionales()</text></g><!--link REQUISITOS_FUNCIONALES_ABIERTO to DOCUMENTACION_ABIERTA--><g id="link_REQUISITOS_FUNCIONALES_ABIERTO_DOCUMENTACION_ABIERTA"><path d="M1998.67,489.5564 C1988.63,489.8364 1978.66,490.1064 1969,490.3564 C1945.99,490.9464 1488.58,506.4264 1321,500.3564 C1167.37,494.7964 1129.23,487.8764 976,475.3564 C966.37,474.5764 962.3176,474.2349 952.2876,473.3649 " fill="none" id="REQUISITOS_FUNCIONALES_ABIERTO-to-DOCUMENTACION_ABIERTA" style="stroke:#181818;stroke-width:1.0;"/><polygon fill="#181818" points="946.31,472.8464,954.9307,477.6092,951.2913,473.2785,955.622,469.6391,946.31,472.8464" style="stroke:#181818;stroke-width:1.0;"/><text fill="#000000" font-family="sans-serif" font-size="13" lengthAdjust="spacing" textLength="110" x="1356.5" y="496.8516">completarGestion()</text></g><!--link REQUISITOS_FUNCIONALES_ABIERTO to REQUISITOS_FUNCIONALES_ABIERTO--><g id="link_REQUISITOS_FUNCIONALES_ABIERTO_REQUISITOS_FUNCIONALES_ABIERTO"><path d="M2115.02,460.0764 C2108.66,442.5864 2115.66,425.3564 2136,425.3564 C2156.34,425.3564 2165.3905,436.9477 2159.0305,454.4377 " fill="none" id="REQUISITOS_FUNCIONALES_ABIERTO-to-REQUISITOS_FUNCIONALES_ABIERTO" style="stroke:#181818;stroke-width:1.0;"/><polygon fill="#181818" points="2156.98,460.0764,2163.8149,452.9853,2158.6887,455.3775,2156.2965,450.2513,2156.98,460.0764" style="stroke:#181818;stroke-width:1.0;"/><text fill="#000000" font-family="sans-serif" font-size="13" lengthAdjust="spacing" textLength="167" x="2052.5" y="416.8516">listarRequisitosFuncionales()</text></g><!--link REQUISITOS_FUNCIONALES_ABIERTO to REQUISITOS_FUNCIONALES_ABIERTO--><g id="link_REQUISITOS_FUNCIONALES_ABIERTO_REQUISITOS_FUNCIONALES_ABIERTO"><path d="M2103.41,460.0664 C2077.18,428.2464 2088.05,390.3564 2136,390.3564 C2183.95,390.3564 2198.6364,423.6167 2172.4064,455.4367 " fill="none" id="REQUISITOS_FUNCIONALES_ABIERTO-to-REQUISITOS_FUNCIONALES_ABIERTO-1" style="stroke:#181818;stroke-width:1.0;"/><polygon fill="#181818" points="2168.59,460.0664,2177.4012,455.6661,2171.7704,456.2083,2171.2281,450.5775,2168.59,460.0664" style="stroke:#181818;stroke-width:1.0;"/><text fill="#000000" font-family="sans-serif" font-size="13" lengthAdjust="spacing" textLength="116" x="2078" y="381.8516">guardarResultados()</text></g><!--link REQUISITOS_FUNCIONALES_ABIERTO to REQUISITO_FUNCIONAL_ABIERTO--><g id="link_REQUISITOS_FUNCIONALES_ABIERTO_REQUISITO_FUNCIONAL_ABIERTO"><path d="M2177.85,460.2664 C2210.41,441.8264 2257.86,418.3164 2303,408.3564 C2379.39,391.5064 2402.91,390.2364 2479,408.3564 C2520.98,418.3564 2559.3994,438.7067 2589.1494,457.1367 " fill="none" id="REQUISITOS_FUNCIONALES_ABIERTO-to-REQUISITO_FUNCIONAL_ABIERTO" style="stroke:#181818;stroke-width:1.0;"/><polygon fill="#181818" points="2594.25,460.2964,2588.7057,452.1564,2589.9995,457.6633,2584.4926,458.9572,2594.25,460.2964" style="stroke:#181818;stroke-width:1.0;"/><text fill="#000000" font-family="sans-serif" font-size="13" lengthAdjust="spacing" textLength="171" x="2305.5" y="391.8516">consultarRequisitoFuncional()</text></g><!--link REQUISITOS_FUNCIONALES_ABIERTO to REQUISITO_FUNCIONAL_ABIERTO--><g id="link_REQUISITOS_FUNCIONALES_ABIERTO_REQUISITO_FUNCIONAL_ABIERTO"><path d="M2273.23,468.5064 C2283.29,467.6464 2293.3,466.9164 2303,466.3564 C2381.1,461.9064 2400.93,461.5164 2479,466.3564 C2488.72,466.9564 2492.797,467.2076 2502.877,468.1676 " fill="none" id="REQUISITOS_FUNCIONALES_ABIERTO-to-REQUISITO_FUNCIONAL_ABIERTO-1" style="stroke:#181818;stroke-width:1.0;"/><polygon fill="#181818" points="2508.85,468.7364,2500.2698,463.9012,2503.8725,468.2624,2499.5113,471.8651,2508.85,468.7364" style="stroke:#181818;stroke-width:1.0;"/><text fill="#000000" font-family="sans-serif" font-size="13" lengthAdjust="spacing" textLength="147" x="2317.5" y="459.8516">crearRequisitoFuncional()</text></g><!--link REQUISITOS_FUNCIONALES_ABIERTO to REQUISITO_FUNCIONAL_ABIERTO--><g id="link_REQUISITOS_FUNCIONALES_ABIERTO_REQUISITO_FUNCIONAL_ABIERTO"><path d="M2273.32,491.5664 C2283.36,491.8864 2293.34,492.1564 2303,492.3564 C2381.2,494.0064 2400.8,494.1564 2479,492.3564 C2488.67,492.1364 2492.6836,492.0449 2502.7536,491.6949 " fill="none" id="REQUISITOS_FUNCIONALES_ABIERTO-to-REQUISITO_FUNCIONAL_ABIERTO-2" style="stroke:#181818;stroke-width:1.0;"/><polygon fill="#181818" points="2508.75,491.4864,2499.6165,487.8015,2503.753,491.6601,2499.8944,495.7967,2508.75,491.4864" style="stroke:#181818;stroke-width:1.0;"/><text fill="#000000" font-family="sans-serif" font-size="13" lengthAdjust="spacing" textLength="174" x="2304" y="488.8516">actualizarRequisitoFuncional()</text></g><!--link REQUISITOS_FUNCIONALES_ABIERTO to REQUISITO_FUNCIONAL_ABIERTO--><g id="link_REQUISITOS_FUNCIONALES_ABIERTO_REQUISITO_FUNCIONAL_ABIERTO"><path d="M2243.22,510.4264 C2262.98,514.1464 2283.54,517.3864 2303,519.3564 C2380.82,527.2464 2401.25,527.9164 2479,519.3564 C2496.93,517.3864 2509.9614,515.3374 2528.1214,511.6274 " fill="none" id="REQUISITOS_FUNCIONALES_ABIERTO-to-REQUISITO_FUNCIONAL_ABIERTO-3" style="stroke:#181818;stroke-width:1.0;"/><polygon fill="#181818" points="2534,510.4264,2524.3815,508.3088,2529.1012,511.4272,2525.9828,516.1469,2534,510.4264" style="stroke:#181818;stroke-width:1.0;"/><text fill="#000000" font-family="sans-serif" font-size="13" lengthAdjust="spacing" textLength="163" x="2309.5" y="515.8516">eliminarRequisitoFuncional()</text></g><!--link REQUISITO_FUNCIONAL_ABIERTO to REQUISITOS_FUNCIONALES_ABIERTO--><g id="link_REQUISITO_FUNCIONAL_ABIERTO_REQUISITOS_FUNCIONALES_ABIERTO"><path d="M2587.06,510.3564 C2557.46,525.5364 2517.14,543.4564 2479,551.3564 C2402.4,567.2264 2379.83,566.0664 2303,551.3564 C2261.88,543.4864 2223.3908,528.1072 2191.0708,512.9272 " fill="none" id="REQUISITO_FUNCIONAL_ABIERTO-to-REQUISITOS_FUNCIONALES_ABIERTO" style="stroke:#181818;stroke-width:1.0;"/><polygon fill="#181818" points="2185.64,510.3764,2192.0857,517.8231,2190.1657,512.5021,2195.4867,510.582,2185.64,510.3764" style="stroke:#181818;stroke-width:1.0;"/><text fill="#000000" font-family="sans-serif" font-size="13" lengthAdjust="spacing" textLength="110" x="2336" y="547.8516">completarGestion()</text></g><!--link CASOS_USO_ABIERTO to ESCENARIOS_GHERKIN_ABIERTO--><g id="link_CASOS_USO_ABIERTO_ESCENARIOS_GHERKIN_ABIERTO"><path d="M1211.9,293.0964 C1224.44,249.6064 1256.8,161.7564 1321,125.3564 C1418.35,70.1664 1547.5609,136.6365 1611.3909,177.0565 " fill="none" id="CASOS_USO_ABIERTO-to-ESCENARIOS_GHERKIN_ABIERTO" style="stroke:#181818;stroke-width:1.0;"/><polygon fill="#181818" points="1616.46,180.2664,1610.9963,172.072,1612.2357,177.5915,1606.7163,178.8309,1616.46,180.2664" style="stroke:#181818;stroke-width:1.0;"/><text fill="#000000" font-family="sans-serif" font-size="13" lengthAdjust="spacing" textLength="161" x="1331" y="101.8516">generarEscenariosGherkin()</text></g><!--link ESCENARIOS_GHERKIN_ABIERTO to CASOS_USO_ABIERTO--><g id="link_ESCENARIOS_GHERKIN_ABIERTO_CASOS_USO_ABIERTO"><path d="M1531.78,180.6364 C1466.84,172.9564 1386.89,172.6464 1321,200.3564 C1276.34,219.1364 1243.6618,259.5699 1224.3318,288.2699 " fill="none" id="ESCENARIOS_GHERKIN_ABIERTO-to-CASOS_USO_ABIERTO" style="stroke:#181818;stroke-width:1.0;"/><polygon fill="#181818" points="1220.98,293.2464,1229.3253,288.0162,1223.7731,289.0994,1222.69,283.5472,1220.98,293.2464" style="stroke:#181818;stroke-width:1.0;"/><text fill="#000000" font-family="sans-serif" font-size="13" lengthAdjust="spacing" textLength="131" x="1346" y="172.8516">completarGeneracion()</text></g><!--link REQUISITOS_FUNCIONALES_ABIERTO to ESCENARIOS_GHERKIN_ABIERTO--><g id="link_REQUISITOS_FUNCIONALES_ABIERTO_ESCENARIOS_GHERKIN_ABIERTO"><path d="M2018.85,460.3364 C1949.41,440.1164 1863.74,405.2364 1806,347.3564 C1781.52,322.8164 1798.87,301.4064 1776,275.3564 C1759.59,256.6664 1742.2295,244.5109 1720.9495,233.3109 " fill="none" id="REQUISITOS_FUNCIONALES_ABIERTO-to-ESCENARIOS_GHERKIN_ABIERTO" style="stroke:#181818;stroke-width:1.0;"/><polygon fill="#181818" points="1715.64,230.5164,1721.7413,238.2478,1720.0646,232.8452,1725.4672,231.1685,1715.64,230.5164" style="stroke:#181818;stroke-width:1.0;"/><text fill="#000000" font-family="sans-serif" font-size="13" lengthAdjust="spacing" textLength="161" x="1807" y="343.8516">generarEscenariosGherkin()</text></g><!--link ESCENARIOS_GHERKIN_ABIERTO to REQUISITOS_FUNCIONALES_ABIERTO--><g id="link_ESCENARIOS_GHERKIN_ABIERTO_REQUISITOS_FUNCIONALES_ABIERTO"><path d="M1748.91,230.3864 C1813.84,250.2164 1900.53,281.8564 1969,325.3564 C2028.97,363.4564 2081.7163,421.056 2110.7963,455.606 " fill="none" id="ESCENARIOS_GHERKIN_ABIERTO-to-REQUISITOS_FUNCIONALES_ABIERTO" style="stroke:#181818;stroke-width:1.0;"/><polygon fill="#181818" points="2114.66,460.1964,2111.9248,450.735,2111.4403,456.3711,2105.8042,455.8866,2114.66,460.1964" style="stroke:#181818;stroke-width:1.0;"/><text fill="#000000" font-family="sans-serif" font-size="13" lengthAdjust="spacing" textLength="131" x="1822" y="248.8516">completarGeneracion()</text></g><!--link ESCENARIOS_GHERKIN_ABIERTO to ESCENARIOS_GHERKIN_ABIERTO--><g id="link_ESCENARIOS_GHERKIN_ABIERTO_ESCENARIOS_GHERKIN_ABIERTO"><path d="M1614.75,180.0764 C1602.85,162.5864 1615.94,145.3564 1654,145.3564 C1692.06,145.3564 1708.5252,157.6258 1696.6252,175.1158 " fill="none" id="ESCENARIOS_GHERKIN_ABIERTO-to-ESCENARIOS_GHERKIN_ABIERTO" style="stroke:#181818;stroke-width:1.0;"/><polygon fill="#181818" points="1693.25,180.0764,1701.6199,174.8856,1696.0626,175.9426,1695.0057,170.3853,1693.25,180.0764" style="stroke:#181818;stroke-width:1.0;"/><text fill="#000000" font-family="sans-serif" font-size="13" lengthAdjust="spacing" textLength="146" x="1581" y="136.8516">listarEscenariosGherkin()</text></g><!--link ESCENARIOS_GHERKIN_ABIERTO to BORRADORES_ABIERTO--><g id="link_ESCENARIOS_GHERKIN_ABIERTO_BORRADORES_ABIERTO"><path d="M1776.08,191.6864 C1786.19,190.7964 1796.27,190.0064 1806,189.3564 C1885.82,184.0464 1970.7306,181.9383 2036.7306,181.0383 " fill="none" id="ESCENARIOS_GHERKIN_ABIERTO-to-BORRADORES_ABIERTO" style="stroke:#181818;stroke-width:1.0;"/><polygon fill="#181818" points="2042.73,180.9564,2033.6763,177.0795,2037.7305,181.0246,2033.7854,185.0788,2042.73,180.9564" style="stroke:#181818;stroke-width:1.0;"/><text fill="#000000" font-family="sans-serif" font-size="13" lengthAdjust="spacing" textLength="157" x="1809" y="179.8516">crearBorradorCasoPrueba()</text></g><!--link BORRADORES_ABIERTO to ESCENARIOS_GHERKIN_ABIERTO--><g id="link_BORRADORES_ABIERTO_ESCENARIOS_GHERKIN_ABIERTO"><path d="M2042.91,203.3264 C2019,208.3064 1993.17,212.8364 1969,215.3564 C1896.95,222.8764 1878.4,217.7564 1806,215.3564 C1796.28,215.0364 1792.2124,214.899 1782.1124,214.389 " fill="none" id="BORRADORES_ABIERTO-to-ESCENARIOS_GHERKIN_ABIERTO" style="stroke:#181818;stroke-width:1.0;"/><polygon fill="#181818" points="1776.12,214.0864,1784.9068,218.5352,1781.1136,214.3386,1785.3103,210.5454,1776.12,214.0864" style="stroke:#181818;stroke-width:1.0;"/><text fill="#000000" font-family="sans-serif" font-size="13" lengthAdjust="spacing" textLength="131" x="1822" y="211.8516">completarGeneracion()</text></g><!--link BORRADORES_ABIERTO to BORRADORES_ABIERTO--><g id="link_BORRADORES_ABIERTO_BORRADORES_ABIERTO"><path d="M2115.02,155.0764 C2108.66,137.5864 2115.66,120.3564 2136,120.3564 C2156.34,120.3564 2165.3905,131.9477 2159.0305,149.4377 " fill="none" id="BORRADORES_ABIERTO-to-BORRADORES_ABIERTO" style="stroke:#181818;stroke-width:1.0;"/><polygon fill="#181818" points="2156.98,155.0764,2163.8149,147.9853,2158.6887,150.3775,2156.2965,145.2513,2156.98,155.0764" style="stroke:#181818;stroke-width:1.0;"/><text fill="#000000" font-family="sans-serif" font-size="13" lengthAdjust="spacing" textLength="99" x="2086.5" y="111.8516">listarBorradores()</text></g><!--link BORRADORES_ABIERTO to BORRADORES_ABIERTO--><g id="link_BORRADORES_ABIERTO_BORRADORES_ABIERTO"><path d="M2103.41,155.0664 C2077.18,123.2464 2088.05,85.3564 2136,85.3564 C2183.95,85.3564 2198.6364,118.6167 2172.4064,150.4367 " fill="none" id="BORRADORES_ABIERTO-to-BORRADORES_ABIERTO-1" style="stroke:#181818;stroke-width:1.0;"/><polygon fill="#181818" points="2168.59,155.0664,2177.4012,150.6661,2171.7704,151.2083,2171.2281,145.5775,2168.59,155.0664" style="stroke:#181818;stroke-width:1.0;"/><text fill="#000000" font-family="sans-serif" font-size="13" lengthAdjust="spacing" textLength="116" x="2078" y="76.8516">guardarResultados()</text></g><!--link BORRADORES_ABIERTO to BORRADOR_ABIERTO--><g id="link_BORRADORES_ABIERTO_BORRADOR_ABIERTO"><path d="M2160.83,205.5264 C2190.75,235.1064 2245.19,282.5264 2303,301.3564 C2377.37,325.5864 2406.51,330.7464 2479,301.3564 C2540.37,276.4764 2587.2201,218.6494 2611.8001,183.3694 " fill="none" id="BORRADORES_ABIERTO-to-BORRADOR_ABIERTO" style="stroke:#181818;stroke-width:1.0;"/><polygon fill="#181818" points="2615.23,178.4464,2606.8032,183.5443,2612.3717,182.5489,2613.3671,188.1175,2615.23,178.4464" style="stroke:#181818;stroke-width:1.0;"/><text fill="#000000" font-family="sans-serif" font-size="13" lengthAdjust="spacing" textLength="110" x="2336" y="297.8516">consultarBorrador()</text></g><!--link BORRADORES_ABIERTO to BORRADOR_ABIERTO--><g id="link_BORRADORES_ABIERTO_BORRADOR_ABIERTO"><path d="M2158.03,155.2664 C2186.84,123.0564 2242.03,68.7764 2303,47.3564 C2376.8,21.4364 2404.36,23.9664 2479,47.3564 C2529.46,63.1764 2573.4361,98.1623 2601.7061,124.1923 " fill="none" id="BORRADORES_ABIERTO-to-BORRADOR_ABIERTO-1" style="stroke:#181818;stroke-width:1.0;"/><polygon fill="#181818" points="2606.12,128.2564,2602.2086,119.2176,2602.4417,124.8696,2596.7897,125.1028,2606.12,128.2564" style="stroke:#181818;stroke-width:1.0;"/><text fill="#000000" font-family="sans-serif" font-size="13" lengthAdjust="spacing" textLength="149" x="2316.5" y="25.8516">anadirFeedbackBorrador()</text></g><!--link BORRADORES_ABIERTO to BORRADOR_ABIERTO--><g id="link_BORRADORES_ABIERTO_BORRADOR_ABIERTO"><path d="M2179.3,155.1764 C2211.85,137.3264 2258.64,114.9164 2303,105.3564 C2379.47,88.8864 2401.69,93.4764 2479,105.3564 C2508.63,109.9064 2534.7231,117.2241 2561.5531,126.4041 " fill="none" id="BORRADORES_ABIERTO-to-BORRADOR_ABIERTO-2" style="stroke:#181818;stroke-width:1.0;"/><polygon fill="#181818" points="2567.23,128.3464,2560.0096,121.6483,2562.4993,126.7278,2557.4197,129.2175,2567.23,128.3464" style="stroke:#181818;stroke-width:1.0;"/><text fill="#000000" font-family="sans-serif" font-size="13" lengthAdjust="spacing" textLength="111" x="2335.5" y="91.8516">regenerarBorrador()</text></g><!--link BORRADORES_ABIERTO to BORRADOR_ABIERTO--><g id="link_BORRADORES_ABIERTO_BORRADOR_ABIERTO"><path d="M2229.1,169.7364 C2253.12,167.2964 2279.01,164.9464 2303,163.3564 C2386.41,157.8264 2475.9308,155.4457 2542.3908,154.3457 " fill="none" id="BORRADORES_ABIERTO-to-BORRADOR_ABIERTO-3" style="stroke:#181818;stroke-width:1.0;"/><polygon fill="#181818" points="2548.39,154.2464,2539.325,150.3959,2543.3907,154.3292,2539.4574,158.3948,2548.39,154.2464" style="stroke:#181818;stroke-width:1.0;"/><text fill="#000000" font-family="sans-serif" font-size="13" lengthAdjust="spacing" textLength="100" x="2341" y="152.8516">aceptarBorrador()</text></g><!--link BORRADORES_ABIERTO to BORRADOR_ABIERTO--><g id="link_BORRADORES_ABIERTO_BORRADOR_ABIERTO"><path d="M2229.13,189.8364 C2298.15,195.2364 2394.78,199.1664 2479,189.3564 C2501.7,186.7164 2520.0785,183.2964 2542.3785,178.0664 " fill="none" id="BORRADORES_ABIERTO-to-BORRADOR_ABIERTO-4" style="stroke:#181818;stroke-width:1.0;"/><polygon fill="#181818" points="2548.22,176.6964,2538.5444,174.8571,2543.3521,177.8381,2540.3711,182.6458,2548.22,176.6964" style="stroke:#181818;stroke-width:1.0;"/><text fill="#000000" font-family="sans-serif" font-size="13" lengthAdjust="spacing" textLength="107" x="2337.5" y="185.8516">rechazarBorrador()</text></g><!--link BORRADOR_ABIERTO to BORRADORES_ABIERTO--><g id="link_BORRADOR_ABIERTO_BORRADORES_ABIERTO"><path d="M2589.15,178.4364 C2559.45,194.5164 2518.2,213.9064 2479,222.3564 C2390.7,241.4064 2293.3896,224.8659 2223.6496,206.8659 " fill="none" id="BORRADOR_ABIERTO-to-BORRADORES_ABIERTO" style="stroke:#181818;stroke-width:1.0;"/><polygon fill="#181818" points="2217.84,205.3664,2225.5548,211.4887,2222.6813,206.616,2227.5541,203.7426,2217.84,205.3664" style="stroke:#181818;stroke-width:1.0;"/><text fill="#000000" font-family="sans-serif" font-size="13" lengthAdjust="spacing" textLength="110" x="2336" y="218.8516">completarGestion()</text></g><!--link BORRADOR_ABIERTO to BORRADOR_ABIERTO--><g id="link_BORRADOR_ABIERTO_BORRADOR_ABIERTO"><path d="M2591.89,128.0764 C2579.59,110.5864 2593.12,93.3564 2632.5,93.3564 C2671.88,93.3564 2688.8615,105.6786 2676.5615,123.1686 " fill="none" id="BORRADOR_ABIERTO-to-BORRADOR_ABIERTO" style="stroke:#181818;stroke-width:1.0;"/><polygon fill="#181818" points="2673.11,128.0764,2681.5592,123.0156,2675.9863,123.9866,2675.0153,118.4136,2673.11,128.0764" style="stroke:#181818;stroke-width:1.0;"/><text fill="#000000" font-family="sans-serif" font-size="13" lengthAdjust="spacing" textLength="116" x="2574.5" y="84.8516">guardarResultados()</text></g><!--link BORRADOR_ABIERTO to CASO_PRUEBA_PREPARADO--><g id="link_BORRADOR_ABIERTO_CASO_PRUEBA_PREPARADO"><path d="M2716.5,153.3564 C2807.61,153.3564 2948.15,153.3564 3047.86,153.3564 " fill="none" id="BORRADOR_ABIERTO-to-CASO_PRUEBA_PREPARADO" style="stroke:#181818;stroke-width:1.0;"/><polygon fill="#181818" points="3053.86,153.3564,3044.86,149.3564,3048.86,153.3564,3044.86,157.3564,3053.86,153.3564" style="stroke:#181818;stroke-width:1.0;"/><text fill="#000000" font-family="sans-serif" font-size="13" lengthAdjust="spacing" textLength="236" x="2787" y="149.8516">generarCasoPruebaDerivadoDeBorrador()</text></g><!--link CASO_PRUEBA_PREPARADO to BORRADOR_ABIERTO--><g id="link_CASO_PRUEBA_PREPARADO_BORRADOR_ABIERTO"><path d="M3053.95,175.6564 C3043.86,177.1664 3033.76,178.4364 3024,179.3564 C2918.69,189.2664 2891.4,188.2764 2786,179.3564 C2763.39,177.4464 2745.0056,174.9595 2722.5956,171.1595 " fill="none" id="CASO_PRUEBA_PREPARADO-to-BORRADOR_ABIERTO" style="stroke:#181818;stroke-width:1.0;"/><polygon fill="#181818" points="2716.68,170.1564,2724.8846,175.6048,2721.6096,170.9923,2726.2221,167.7174,2716.68,170.1564" style="stroke:#181818;stroke-width:1.0;"/><text fill="#000000" font-family="sans-serif" font-size="13" lengthAdjust="spacing" textLength="131" x="2839.5" y="175.8516">completarGeneracion()</text></g><!--link CASO_PRUEBA_PREPARADO to KIWI_TCMS_ABIERTO--><g id="link_CASO_PRUEBA_PREPARADO_KIWI_TCMS_ABIERTO"><path d="M3185.28,128.3064 C3210.23,102.3264 3253.33,63.3064 3300,47.3564 C3385.38,18.1864 3419.29,13.6964 3503,47.3564 C3543.2,63.5264 3573.4291,97.2622 3592.6791,123.1422 " fill="none" id="CASO_PRUEBA_PREPARADO-to-KIWI_TCMS_ABIERTO" style="stroke:#181818;stroke-width:1.0;"/><polygon fill="#181818" points="3596.26,127.9564,3594.0981,118.3478,3593.2759,123.9446,3587.6791,123.1224,3596.26,127.9564" style="stroke:#181818;stroke-width:1.0;"/><text fill="#000000" font-family="sans-serif" font-size="13" lengthAdjust="spacing" textLength="200" x="3301.5" y="20.8516">publicarCasoPruebaEnKiwiTCMS()</text></g><!--link KIWI_TCMS_ABIERTO to CASO_PRUEBA_PREPARADO--><g id="link_KIWI_TCMS_ABIERTO_CASO_PRUEBA_PREPARADO"><path d="M3537.43,178.4064 C3526,181.2864 3514.27,183.7564 3503,185.3564 C3413.67,198.0364 3389.63,195.6864 3300,185.3564 C3286.17,183.7664 3277.5891,182.4947 3263.4591,179.6147 " fill="none" id="KIWI_TCMS_ABIERTO-to-CASO_PRUEBA_PREPARADO" style="stroke:#181818;stroke-width:1.0;"/><polygon fill="#181818" points="3257.58,178.4164,3265.5998,184.1333,3262.4793,179.415,3267.1975,176.2945,3257.58,178.4164" style="stroke:#181818;stroke-width:1.0;"/><text fill="#000000" font-family="sans-serif" font-size="13" lengthAdjust="spacing" textLength="132" x="3335.5" y="181.8516">completarPublicacion()</text></g><!--link CASO_PRUEBA_PREPARADO to KIWI_TCMS_ABIERTO--><g id="link_CASO_PRUEBA_PREPARADO_KIWI_TCMS_ABIERTO"><path d="M3220.52,128.3564 C3244.59,119.1764 3273.17,109.9264 3300,105.3564 C3388.94,90.2264 3414.67,86.9964 3503,105.3564 C3525.01,109.9364 3542.5968,116.5596 3561.8868,125.6896 " fill="none" id="CASO_PRUEBA_PREPARADO-to-KIWI_TCMS_ABIERTO-1" style="stroke:#181818;stroke-width:1.0;"/><polygon fill="#181818" points="3567.31,128.2564,3560.8864,120.7907,3562.7906,126.1174,3557.4639,128.0217,3567.31,128.2564" style="stroke:#181818;stroke-width:1.0;"/><text fill="#000000" font-family="sans-serif" font-size="13" lengthAdjust="spacing" textLength="201" x="3301" y="89.8516">buscarCasosPruebaEnKiwiTCMS()</text></g><!--link KIWI_TCMS_ABIERTO to CASO_PRUEBA_PREPARADO--><g id="link_KIWI_TCMS_ABIERTO_CASO_PRUEBA_PREPARADO"><path d="M3582.33,178.6464 C3561.3,194.0164 3532.17,212.2064 3503,220.3564 C3416.11,244.6464 3387.9,240.6964 3300,220.3564 C3264.92,212.2364 3233.6312,196.8622 3207.1412,181.3922 " fill="none" id="KIWI_TCMS_ABIERTO-to-CASO_PRUEBA_PREPARADO-1" style="stroke:#181818;stroke-width:1.0;"/><polygon fill="#181818" points="3201.96,178.3664,3207.7146,186.3592,3206.2777,180.8879,3211.749,179.451,3201.96,178.3664" style="stroke:#181818;stroke-width:1.0;"/><text fill="#000000" font-family="sans-serif" font-size="13" lengthAdjust="spacing" textLength="116" x="3343.5" y="216.8516">completarConsulta()</text></g><!--link CASO_PRUEBA_PREPARADO to KIWI_TCMS_ABIERTO--><g id="link_CASO_PRUEBA_PREPARADO_KIWI_TCMS_ABIERTO"><path d="M3270.05,153.3564 C3350.72,153.3564 3453.61,153.3564 3526.97,153.3564 " fill="none" id="CASO_PRUEBA_PREPARADO-to-KIWI_TCMS_ABIERTO-2" style="stroke:#181818;stroke-width:1.0;"/><polygon fill="#181818" points="3532.97,153.3564,3523.97,149.3564,3527.97,153.3564,3523.97,157.3564,3532.97,153.3564" style="stroke:#181818;stroke-width:1.0;"/><text fill="#000000" font-family="sans-serif" font-size="13" lengthAdjust="spacing" textLength="171" x="3316" y="149.8516">verCasoPruebaEnKiwiTCMS()</text></g><!--link KIWI_TCMS_ABIERTO to CASO_PRUEBA_PREPARADO--><g id="link_KIWI_TCMS_ABIERTO_CASO_PRUEBA_PREPARADO"><path d="M3597.19,178.7164 C3578.25,205.5464 3544.28,246.3164 3503,263.3564 C3419.61,297.7864 3385.11,293.2964 3300,263.3564 C3252.52,246.6564 3213.3848,210.209 3188.6848,183.269 " fill="none" id="KIWI_TCMS_ABIERTO-to-CASO_PRUEBA_PREPARADO-2" style="stroke:#181818;stroke-width:1.0;"/><polygon fill="#181818" points="3184.63,178.8464,3187.7638,188.1834,3188.009,182.5319,3193.6605,182.777,3184.63,178.8464" style="stroke:#181818;stroke-width:1.0;"/><text fill="#000000" font-family="sans-serif" font-size="13" lengthAdjust="spacing" textLength="116" x="3343.5" y="259.8516">completarConsulta()</text></g><!--link KIWI_TCMS_ABIERTO to KIWI_TCMS_ABIERTO--><g id="link_KIWI_TCMS_ABIERTO_KIWI_TCMS_ABIERTO"><path d="M3578.63,128.0764 C3567.76,110.5864 3579.72,93.3564 3614.5,93.3564 C3649.28,93.3564 3664.4072,105.4905 3653.5372,122.9805 " fill="none" id="KIWI_TCMS_ABIERTO-to-KIWI_TCMS_ABIERTO" style="stroke:#181818;stroke-width:1.0;"/><polygon fill="#181818" points="3650.37,128.0764,3658.5181,122.5439,3653.0093,123.8298,3651.7234,118.321,3650.37,128.0764" style="stroke:#181818;stroke-width:1.0;"/><text fill="#000000" font-family="sans-serif" font-size="13" lengthAdjust="spacing" textLength="126" x="3551.5" y="84.8516">registrarCasoPrueba()</text></g><!--SRC=[jPRTZfim48NlUGeksqhx0hseH8YpHMb22a6zgAh8CRCRQmbERKZRVVgE8JyaSJ2msgj8uFFvp736SGPFXLi8L_BdJU6cN08hkCWTv-UdN-x3mnSt3k8bcNahdqIHDmuTv-f1lOZ4GJWdySeR1IHQUh7xsUKvPvpA61JoFdnqRjSOyAXZ8ALLDWxzP4RcIy_7byTNA5QG0MEeF190zMOm2LJEIzZJamd7lBQDmlD2YhHaN8u5AxUG5rJxcfHvPIz3QdyeLKBtz8BeBQJuXrzD328oaQioAwYCu0aae3cgBl0DUWlUz-8mNYLnU7YgFoJyBIG5wQDfbIWDk5tLRcsxom2jFO8gwkzW1fWspxX2fNLla_Ivf3BL3QaQamgTe1RvbVhKKBstRUjhhKxU01rbHKap_Zf831dVylnQsgbJXY_Kaf68V4-2E5WYPfBCzMllssac6u69u7V95I-4EWrBDSKMVSyeTQ1P3TSXUuDVwmx6BFO1drUOCdgotZoMtexNCNuVz3dfxyC_3aCxtI3jz3LDysAUKnBxPEv50Rvw_4gYQJ1lXW9omBz8eXYWLIxKumRa2- -Owg7e5bs7yq5ZMLso1TIdYzsfhLNNSsmgseOTXTMr9ReqgFC_4dYDIKLrh2va2MkAECDogpbpkNT8HZzrUKT3rTdKHsuyWom0qs5pD63VlZdmESLBwGGWNLFsCWWXuP3gOGOOx8QQnylqXhuQnJQfgUcjMkj1OrHNV_MBA24Z3t_8mZjSmWyTEuTt39BlqSSO6iMOrNTpOCfn2sCQ_0XMIt_MB6nNhZFEciP8FkL_k5w6j5l9FH260gVYeiIx-djDEbMqg5qDAsbTgaD1gdD5LaV-OUZwszb3l-RsiV8V]--></g></svg>