<svg xmlns="http://www.w3.org/2000/svg" xmlns:xlink="http://www.w3.org/1999/xlink" contentStyleType="text/css" data-diagram-type="STATE" height="691px" preserveAspectRatio="none" style="width:2295px;height:691px;background:#FFFFFF;" version="1.1" viewBox="0 0 2295 691" width="2295px" zoomAndPan="magnify"><defs/><g><ellipse cx="16" cy="279.04" fill="#222222" rx="10" ry="10" style="stroke:#222222;stroke-width:1;"/><g id="DOCUMENTACION_ABIERTA"><rect fill="#F1F1F1" height="50" rx="12.5" ry="12.5" style="stroke:#181818;stroke-width:0.5;" width="213.7578" x="87" y="254.04"/><line style="stroke:#181818;stroke-width:0.5;" x1="87" x2="300.7578" y1="280.3369" y2="280.3369"/><text fill="#000000" font-family="sans-serif" font-size="14" lengthAdjust="spacing" textLength="193.7578" x="97" y="272.0351">DOCUMENTACION_ABIERTA</text></g><g id="DOCUMENTO_ABIERTO"><rect fill="#F1F1F1" height="50" rx="12.5" ry="12.5" style="stroke:#181818;stroke-width:0.5;" width="181.2461" x="597.5" y="90.04"/><line style="stroke:#181818;stroke-width:0.5;" x1="597.5" x2="778.7461" y1="116.3369" y2="116.3369"/><text fill="#000000" font-family="sans-serif" font-size="14" lengthAdjust="spacing" textLength="161.2461" x="607.5" y="108.0351">DOCUMENTO_ABIERTO</text></g><g id="CASOS_USO_ABIERTO"><rect fill="#F1F1F1" height="50" rx="12.5" ry="12.5" style="stroke:#181818;stroke-width:0.5;" width="173.7539" x="601" y="189.04"/><line style="stroke:#181818;stroke-width:0.5;" x1="601" x2="774.7539" y1="215.3369" y2="215.3369"/><text fill="#000000" font-family="sans-serif" font-size="14" lengthAdjust="spacing" textLength="153.7539" x="611" y="207.0351">CASOS_USO_ABIERTO</text></g><g id="CASO_USO_ABIERTO"><rect fill="#F1F1F1" height="50" rx="12.5" ry="12.5" style="stroke:#181818;stroke-width:0.5;" width="164.8672" x="1154.5" y="140.04"/><line style="stroke:#181818;stroke-width:0.5;" x1="1154.5" x2="1319.3672" y1="166.3369" y2="166.3369"/><text fill="#000000" font-family="sans-serif" font-size="14" lengthAdjust="spacing" textLength="144.8672" x="1164.5" y="158.0351">CASO_USO_ABIERTO</text></g><g id="REQUISITOS_FUNCIONALES_ABIERTO"><rect fill="#F1F1F1" height="50" rx="12.5" ry="12.5" style="stroke:#181818;stroke-width:0.5;" width="280.1758" x="548" y="367.04"/><line style="stroke:#181818;stroke-width:0.5;" x1="548" x2="828.1758" y1="393.3369" y2="393.3369"/><text fill="#000000" font-family="sans-serif" font-size="14" lengthAdjust="spacing" textLength="260.1758" x="558" y="385.0351">REQUISITOS_FUNCIONALES_ABIERTO</text></g><g id="REQUISITO_FUNCIONAL_ABIERTO"><rect fill="#F1F1F1" height="50" rx="12.5" ry="12.5" style="stroke:#181818;stroke-width:0.5;" width="253.5566" x="1110" y="367.04"/><line style="stroke:#181818;stroke-width:0.5;" x1="1110" x2="1363.5566" y1="393.3369" y2="393.3369"/><text fill="#000000" font-family="sans-serif" font-size="14" lengthAdjust="spacing" textLength="233.5566" x="1120" y="385.0351">REQUISITO_FUNCIONAL_ABIERTO</text></g><g id="ANALISIS_ABIERTO"><rect fill="#F1F1F1" height="50" rx="12.5" ry="12.5" style="stroke:#181818;stroke-width:0.5;" width="151.9131" x="612" y="510.04"/><line style="stroke:#181818;stroke-width:0.5;" x1="612" x2="763.9131" y1="536.3369" y2="536.3369"/><text fill="#000000" font-family="sans-serif" font-size="14" lengthAdjust="spacing" textLength="131.9131" x="622" y="528.0351">ANALISIS_ABIERTO</text></g><g id="ESTRUCTURACION_ABIERTA"><rect fill="#F1F1F1" height="50" rx="12.5" ry="12.5" style="stroke:#181818;stroke-width:0.5;" width="216.5469" x="1128.5" y="538.04"/><line style="stroke:#181818;stroke-width:0.5;" x1="1128.5" x2="1345.0469" y1="564.3369" y2="564.3369"/><text fill="#000000" font-family="sans-serif" font-size="14" lengthAdjust="spacing" textLength="196.5469" x="1138.5" y="556.0351">ESTRUCTURACION_ABIERTA</text></g><g id="ESCENARIOS_ABIERTO"><rect fill="#F1F1F1" height="50" rx="12.5" ry="12.5" style="stroke:#181818;stroke-width:0.5;" width="178.6211" x="1602" y="538.04"/><line style="stroke:#181818;stroke-width:0.5;" x1="1602" x2="1780.6211" y1="564.3369" y2="564.3369"/><text fill="#000000" font-family="sans-serif" font-size="14" lengthAdjust="spacing" textLength="158.6211" x="1612" y="556.0351">ESCENARIOS_ABIERTO</text></g><g id="REVISION_ESCENARIOS_ABIERTA"><rect fill="#F1F1F1" height="50" rx="12.5" ry="12.5" style="stroke:#181818;stroke-width:0.5;" width="250.9658" x="2038" y="451.04"/><line style="stroke:#181818;stroke-width:0.5;" x1="2038" x2="2288.9658" y1="477.3369" y2="477.3369"/><text fill="#000000" font-family="sans-serif" font-size="14" lengthAdjust="spacing" textLength="230.9658" x="2048" y="469.0351">REVISION_ESCENARIOS_ABIERTA</text></g><g id="KIWI_TCMS_ABIERTO"><rect fill="#F1F1F1" height="50" rx="12.5" ry="12.5" style="stroke:#181818;stroke-width:0.5;" width="166.0293" x="2080.5" y="626.04"/><line style="stroke:#181818;stroke-width:0.5;" x1="2080.5" x2="2246.5293" y1="652.3369" y2="652.3369"/><text fill="#000000" font-family="sans-serif" font-size="14" lengthAdjust="spacing" textLength="146.0293" x="2090.5" y="644.0351">KIWI_TCMS_ABIERTO</text></g><!--link *start* to DOCUMENTACION_ABIERTA--><g class="link" data-entity-1=".start." data-entity-2="DOCUMENTACION_ABIERTA" data-source-line="3" data-uid="lnk4" id="link_.start._DOCUMENTACION_ABIERTA"><path d="M26.46,279.04 C38.81,279.04 55.83,279.04 80.9,279.04" fill="none" id="*start*-to-DOCUMENTACION_ABIERTA" style="stroke:#181818;stroke-width:1;"/><polygon fill="#181818" points="86.9,279.04,77.9,275.04,81.9,279.04,77.9,283.04,86.9,279.04" style="stroke:#181818;stroke-width:1;"/></g><!--link DOCUMENTACION_ABIERTA to DOCUMENTO_ABIERTO--><g class="link" data-entity-1="DOCUMENTACION_ABIERTA" data-entity-2="DOCUMENTO_ABIERTO" data-source-line="5" data-uid="lnk6" id="link_DOCUMENTACION_ABIERTA_DOCUMENTO_ABIERTO"><path d="M201.86,253.89 C216.44,206.04 255.52,102.91 331,61.04 C430.21,6 562.2654,53.5861 633.8854,87.4361" fill="none" id="DOCUMENTACION_ABIERTA-to-DOCUMENTO_ABIERTO" style="stroke:#181818;stroke-width:1;"/><polygon fill="#181818" points="639.31,90,632.8823,82.5378,634.7895,87.8634,629.4638,89.7706,639.31,90" style="stroke:#181818;stroke-width:1;"/><text fill="#000000" font-family="sans-serif" font-size="13" lengthAdjust="spacing" textLength="146.2119" x="351.5" y="33.1069">crearDocumentacion()</text></g><!--link DOCUMENTACION_ABIERTA to DOCUMENTO_ABIERTO--><g class="link" data-entity-1="DOCUMENTACION_ABIERTA" data-entity-2="DOCUMENTO_ABIERTO" data-source-line="6" data-uid="lnk7" id="link_DOCUMENTACION_ABIERTA_DOCUMENTO_ABIERTO"><path d="M207.25,253.86 C227.17,216.16 270.55,146.42 331,118.04 C414.78,78.71 516.4292,83.4614 591.2992,94.9314" fill="none" id="DOCUMENTACION_ABIERTA-to-DOCUMENTO_ABIERTO-1" style="stroke:#181818;stroke-width:1;"/><polygon fill="#181818" points="597.23,95.84,588.9395,90.5232,592.2877,95.0828,587.7281,98.431,597.23,95.84" style="stroke:#181818;stroke-width:1;"/><text fill="#000000" font-family="sans-serif" font-size="13" lengthAdjust="spacing" textLength="150.6807" x="349.5" y="84.1069">editarDocumentacion()</text></g><!--link DOCUMENTACION_ABIERTA to DOCUMENTO_ABIERTO--><g class="link" data-entity-1="DOCUMENTACION_ABIERTA" data-entity-2="DOCUMENTO_ABIERTO" data-source-line="7" data-uid="lnk8" id="link_DOCUMENTACION_ABIERTA_DOCUMENTO_ABIERTO"><path d="M220.11,253.67 C245.69,229.43 287.65,193.87 331,175.04 C334.08,173.7 486.8809,148.2121 591.3309,130.8821" fill="none" id="DOCUMENTACION_ABIERTA-to-DOCUMENTO_ABIERTO-2" style="stroke:#181818;stroke-width:1;"/><polygon fill="#181818" points="597.25,129.9,587.7167,127.4271,592.3174,130.7184,589.0261,135.3192,597.25,129.9" style="stroke:#181818;stroke-width:1;"/><text fill="#000000" font-family="sans-serif" font-size="13" lengthAdjust="spacing" textLength="165.458" x="342" y="141.1069">eliminarDocumentacion()</text></g><!--link DOCUMENTO_ABIERTO to DOCUMENTACION_ABIERTA--><g class="link" data-entity-1="DOCUMENTO_ABIERTO" data-entity-2="DOCUMENTACION_ABIERTA" data-source-line="8" data-uid="lnk9" id="link_DOCUMENTO_ABIERTO_DOCUMENTACION_ABIERTA"><path d="M609.71,140.07 C588.87,148.42 566.88,158.79 548,171.04 C532.44,181.14 534.54,191.66 518,200.04 C442.78,238.15 412.67,211.09 331,232.04 C307.65,238.03 288.237,244.1804 266.057,252.0204" fill="none" id="DOCUMENTO_ABIERTO-to-DOCUMENTACION_ABIERTA" style="stroke:#181818;stroke-width:1;"/><polygon fill="#181818" points="260.4,254.02,270.2186,254.792,265.1142,252.3537,267.5524,247.2493,260.4,254.02" style="stroke:#181818;stroke-width:1;"/><text fill="#000000" font-family="sans-serif" font-size="13" lengthAdjust="spacing" textLength="125.9248" x="362" y="196.1069">completarGestion()</text></g><!--link DOCUMENTACION_ABIERTA to CASOS_USO_ABIERTO--><g class="link" data-entity-1="DOCUMENTACION_ABIERTA" data-entity-2="CASOS_USO_ABIERTO" data-source-line="10" data-uid="lnk11" id="link_DOCUMENTACION_ABIERTA_CASOS_USO_ABIERTO"><path d="M301.29,274.41 C364.51,270.68 446.14,264.16 518,253.04 C545.08,248.85 568.4178,244.0769 594.7878,237.9069" fill="none" id="DOCUMENTACION_ABIERTA-to-CASOS_USO_ABIERTO" style="stroke:#181818;stroke-width:1;"/><polygon fill="#181818" points="600.63,236.54,590.9554,234.6956,595.7615,237.6791,592.778,242.4852,600.63,236.54" style="stroke:#181818;stroke-width:1;"/><text fill="#000000" font-family="sans-serif" font-size="13" lengthAdjust="spacing" textLength="103.4478" x="373" y="249.1069">abrirCasosUso()</text></g><!--link CASOS_USO_ABIERTO to DOCUMENTACION_ABIERTA--><g class="link" data-entity-1="CASOS_USO_ABIERTO" data-entity-2="DOCUMENTACION_ABIERTA" data-source-line="11" data-uid="lnk12" id="link_CASOS_USO_ABIERTO_DOCUMENTACION_ABIERTA"><path d="M649.34,239.13 C616.31,259.54 566.16,286.73 518,298.04 C446.91,314.73 370.6694,310.4206 306.9894,301.3006" fill="none" id="CASOS_USO_ABIERTO-to-DOCUMENTACION_ABIERTA" style="stroke:#181818;stroke-width:1;"/><polygon fill="#181818" points="301.05,300.45,309.392,305.6855,305.9995,301.1588,310.5262,297.7663,301.05,300.45" style="stroke:#181818;stroke-width:1;"/><text fill="#000000" font-family="sans-serif" font-size="13" lengthAdjust="spacing" textLength="125.9248" x="362" y="294.1069">completarGestion()</text></g><!--link CASOS_USO_ABIERTO to CASO_USO_ABIERTO--><g class="link" data-entity-1="CASOS_USO_ABIERTO" data-entity-2="CASO_USO_ABIERTO" data-source-line="13" data-uid="lnk14" id="link_CASOS_USO_ABIERTO_CASO_USO_ABIERTO"><path d="M770.43,188.98 C790.38,180.66 810.9,170.1 828,157.04 C845.38,143.77 838.38,127.7 858,118.04 C963.46,66.11 1099.1405,106.6935 1175.6405,137.7435" fill="none" id="CASOS_USO_ABIERTO-to-CASO_USO_ABIERTO" style="stroke:#181818;stroke-width:1;"/><polygon fill="#181818" points="1181.2,140,1174.3651,132.9089,1176.5671,138.1196,1171.3564,140.3216,1181.2,140" style="stroke:#181818;stroke-width:1;"/><text fill="#000000" font-family="sans-serif" font-size="13" lengthAdjust="spacing" textLength="99.9565" x="919.5" y="90.1069">crearCasoUso()</text></g><!--link CASOS_USO_ABIERTO to CASO_USO_ABIERTO--><g class="link" data-entity-1="CASOS_USO_ABIERTO" data-entity-2="CASO_USO_ABIERTO" data-source-line="14" data-uid="lnk15" id="link_CASOS_USO_ABIERTO_CASO_USO_ABIERTO"><path d="M775.24,190.63 C801.61,184.43 830.82,178.5 858,175.04 C959.43,162.13 1071.3508,161.1308 1148.1608,162.4008" fill="none" id="CASOS_USO_ABIERTO-to-CASO_USO_ABIERTO-1" style="stroke:#181818;stroke-width:1;"/><polygon fill="#181818" points="1154.16,162.5,1145.2274,158.3518,1149.1607,162.4173,1145.0951,166.3507,1154.16,162.5" style="stroke:#181818;stroke-width:1;"/><text fill="#000000" font-family="sans-serif" font-size="13" lengthAdjust="spacing" textLength="104.4253" x="917" y="159.1069">editarCasoUso()</text></g><!--link CASOS_USO_ABIERTO to CASO_USO_ABIERTO--><g class="link" data-entity-1="CASOS_USO_ABIERTO" data-entity-2="CASO_USO_ABIERTO" data-source-line="15" data-uid="lnk16" id="link_CASOS_USO_ABIERTO_CASO_USO_ABIERTO"><path d="M775.18,215.51 C854.66,215.79 975.75,213.48 1080,200.04 C1104.36,196.9 1124.6686,193.0771 1148.4786,187.6771" fill="none" id="CASOS_USO_ABIERTO-to-CASO_USO_ABIERTO-2" style="stroke:#181818;stroke-width:1;"/><polygon fill="#181818" points="1154.33,186.35,1144.6682,184.4397,1149.4538,187.4559,1146.4376,192.2415,1154.33,186.35" style="stroke:#181818;stroke-width:1;"/><text fill="#000000" font-family="sans-serif" font-size="13" lengthAdjust="spacing" textLength="119.2026" x="909.5" y="196.1069">eliminarCasoUso()</text></g><!--link CASO_USO_ABIERTO to CASOS_USO_ABIERTO--><g class="link" data-entity-1="CASO_USO_ABIERTO" data-entity-2="CASOS_USO_ABIERTO" data-source-line="16" data-uid="lnk17" id="link_CASO_USO_ABIERTO_CASOS_USO_ABIERTO"><path d="M1196.46,190.21 C1165.97,208.05 1122.04,230.46 1080,240.04 C977.02,263.51 861.036,250.0624 781.056,234.9724" fill="none" id="CASO_USO_ABIERTO-to-CASOS_USO_ABIERTO" style="stroke:#181818;stroke-width:1;"/><polygon fill="#181818" points="775.16,233.86,783.2624,239.4593,780.0733,234.787,784.7456,231.598,775.16,233.86" style="stroke:#181818;stroke-width:1;"/><text fill="#000000" font-family="sans-serif" font-size="13" lengthAdjust="spacing" textLength="125.9248" x="906.5" y="236.1069">completarGestion()</text></g><!--link DOCUMENTACION_ABIERTA to REQUISITOS_FUNCIONALES_ABIERTO--><g class="link" data-entity-1="DOCUMENTACION_ABIERTA" data-entity-2="REQUISITOS_FUNCIONALES_ABIERTO" data-source-line="18" data-uid="lnk19" id="link_DOCUMENTACION_ABIERTA_REQUISITOS_FUNCIONALES_ABIERTO"><path d="M248.96,304.09 C273.54,314.66 303.29,326.28 331,334.04 C401.25,353.7 475.3466,366.6579 541.7166,375.8379" fill="none" id="DOCUMENTACION_ABIERTA-to-REQUISITOS_FUNCIONALES_ABIERTO" style="stroke:#181818;stroke-width:1;"/><polygon fill="#181818" points="547.66,376.66,539.2929,371.4646,542.7072,375.9749,538.1968,379.3892,547.66,376.66" style="stroke:#181818;stroke-width:1;"/><text fill="#000000" font-family="sans-serif" font-size="13" lengthAdjust="spacing" textLength="185.2627" x="332" y="330.1069">abrirRequisitosFuncionales()</text></g><!--link REQUISITOS_FUNCIONALES_ABIERTO to DOCUMENTACION_ABIERTA--><g class="link" data-entity-1="REQUISITOS_FUNCIONALES_ABIERTO" data-entity-2="DOCUMENTACION_ABIERTA" data-source-line="19" data-uid="lnk20" id="link_REQUISITOS_FUNCIONALES_ABIERTO_DOCUMENTACION_ABIERTA"><path d="M547.75,417.07 C480.31,423.48 399.33,422.55 331,397.04 C281.51,378.56 241.9112,337.6859 218.1212,308.8859" fill="none" id="REQUISITOS_FUNCIONALES_ABIERTO-to-DOCUMENTACION_ABIERTA" style="stroke:#181818;stroke-width:1;"/><polygon fill="#181818" points="214.3,304.26,216.9478,313.7463,217.4843,308.1149,223.1157,308.6514,214.3,304.26" style="stroke:#181818;stroke-width:1;"/><text fill="#000000" font-family="sans-serif" font-size="13" lengthAdjust="spacing" textLength="125.9248" x="362" y="393.1069">completarGestion()</text></g><!--link REQUISITOS_FUNCIONALES_ABIERTO to REQUISITO_FUNCIONAL_ABIERTO--><g class="link" data-entity-1="REQUISITOS_FUNCIONALES_ABIERTO" data-entity-2="REQUISITO_FUNCIONAL_ABIERTO" data-source-line="21" data-uid="lnk22" id="link_REQUISITOS_FUNCIONALES_ABIERTO_REQUISITO_FUNCIONAL_ABIERTO"><path d="M764.26,366.96 C793.21,358.53 826.81,350.21 858,346.04 C955.8,332.97 982.35,331.94 1080,346.04 C1108.92,350.22 1134.2382,356.7241 1160.9482,365.1541" fill="none" id="REQUISITOS_FUNCIONALES_ABIERTO-to-REQUISITO_FUNCIONAL_ABIERTO" style="stroke:#181818;stroke-width:1;"/><polygon fill="#181818" points="1166.67,366.96,1159.2912,360.4367,1161.9018,365.4551,1156.8834,368.0657,1166.67,366.96" style="stroke:#181818;stroke-width:1;"/><text fill="#000000" font-family="sans-serif" font-size="13" lengthAdjust="spacing" textLength="167.0005" x="885.5" y="332.1069">crearRequisitoFuncional()</text></g><!--link REQUISITOS_FUNCIONALES_ABIERTO to REQUISITO_FUNCIONAL_ABIERTO--><g class="link" data-entity-1="REQUISITOS_FUNCIONALES_ABIERTO" data-entity-2="REQUISITO_FUNCIONAL_ABIERTO" data-source-line="22" data-uid="lnk23" id="link_REQUISITOS_FUNCIONALES_ABIERTO_REQUISITO_FUNCIONAL_ABIERTO"><path d="M828.09,392.04 C914.82,392.04 1019.54,392.04 1103.74,392.04" fill="none" id="REQUISITOS_FUNCIONALES_ABIERTO-to-REQUISITO_FUNCIONAL_ABIERTO-1" style="stroke:#181818;stroke-width:1;"/><polygon fill="#181818" points="1109.74,392.04,1100.74,388.04,1104.74,392.04,1100.74,396.04,1109.74,392.04" style="stroke:#181818;stroke-width:1;"/><text fill="#000000" font-family="sans-serif" font-size="13" lengthAdjust="spacing" textLength="171.4692" x="883.5" y="388.1069">editarRequisitoFuncional()</text></g><!--link REQUISITOS_FUNCIONALES_ABIERTO to REQUISITO_FUNCIONAL_ABIERTO--><g class="link" data-entity-1="REQUISITOS_FUNCIONALES_ABIERTO" data-entity-2="REQUISITO_FUNCIONAL_ABIERTO" data-source-line="23" data-uid="lnk24" id="link_REQUISITOS_FUNCIONALES_ABIERTO_REQUISITO_FUNCIONAL_ABIERTO"><path d="M828.08,414.27 C838.19,415.37 848.24,416.32 858,417.04 C956.4,424.28 981.64,424.87 1080,417.04 C1089.71,416.27 1093.7637,415.9531 1103.8137,414.7331" fill="none" id="REQUISITOS_FUNCIONALES_ABIERTO-to-REQUISITO_FUNCIONAL_ABIERTO-2" style="stroke:#181818;stroke-width:1;"/><polygon fill="#181818" points="1109.77,414.01,1100.3536,411.1237,1104.8064,414.6125,1101.3176,419.0654,1109.77,414.01" style="stroke:#181818;stroke-width:1;"/><text fill="#000000" font-family="sans-serif" font-size="13" lengthAdjust="spacing" textLength="186.2466" x="876" y="413.1069">eliminarRequisitoFuncional()</text></g><!--link REQUISITO_FUNCIONAL_ABIERTO to REQUISITOS_FUNCIONALES_ABIERTO--><g class="link" data-entity-1="REQUISITO_FUNCIONAL_ABIERTO" data-entity-2="REQUISITOS_FUNCIONALES_ABIERTO" data-source-line="24" data-uid="lnk25" id="link_REQUISITO_FUNCIONAL_ABIERTO_REQUISITOS_FUNCIONALES_ABIERTO"><path d="M1180.95,417.06 C1151.64,429.02 1114.59,442.02 1080,448.04 C982.79,464.96 955.41,463.76 858,448.04 C820.77,442.03 786.2662,431.1416 754.4562,419.1816" fill="none" id="REQUISITO_FUNCIONAL_ABIERTO-to-REQUISITOS_FUNCIONALES_ABIERTO" style="stroke:#181818;stroke-width:1;"/><polygon fill="#181818" points="748.84,417.07,755.8565,423.9815,753.5201,418.8296,758.672,416.4933,748.84,417.07" style="stroke:#181818;stroke-width:1;"/><text fill="#000000" font-family="sans-serif" font-size="13" lengthAdjust="spacing" textLength="125.9248" x="906.5" y="444.1069">completarGestion()</text></g><!--link DOCUMENTACION_ABIERTA to ANALISIS_ABIERTO--><g class="link" data-entity-1="DOCUMENTACION_ABIERTA" data-entity-2="ANALISIS_ABIERTO" data-source-line="26" data-uid="lnk27" id="link_DOCUMENTACION_ABIERTA_ANALISIS_ABIERTO"><path d="M208.47,304.29 C229.55,341.29 273.88,409.74 331,446.04 C417.43,500.97 529.7234,521.3783 605.7534,529.4283" fill="none" id="DOCUMENTACION_ABIERTA-to-ANALISIS_ABIERTO" style="stroke:#181818;stroke-width:1;"/><polygon fill="#181818" points="611.72,530.06,603.1912,525.1346,606.7478,529.5335,602.3489,533.0901,611.72,530.06" style="stroke:#181818;stroke-width:1;"/><text fill="#000000" font-family="sans-serif" font-size="13" lengthAdjust="spacing" textLength="163.9409" x="343" y="442.1069">analizarDocumentacion()</text></g><!--link ANALISIS_ABIERTO to DOCUMENTACION_ABIERTA--><g class="link" data-entity-1="ANALISIS_ABIERTO" data-entity-2="DOCUMENTACION_ABIERTA" data-source-line="27" data-uid="lnk28" id="link_ANALISIS_ABIERTO_DOCUMENTACION_ABIERTA"><path d="M611.8,558.17 C535.3,576.97 416.18,592.8 331,541.04 C243.84,488.08 211.1652,365.0277 200.4152,310.2377" fill="none" id="ANALISIS_ABIERTO-to-DOCUMENTACION_ABIERTA" style="stroke:#181818;stroke-width:1;"/><polygon fill="#181818" points="199.26,304.35,197.0676,313.9517,200.2227,309.2565,204.918,312.4115,199.26,304.35" style="stroke:#181818;stroke-width:1;"/><text fill="#000000" font-family="sans-serif" font-size="13" lengthAdjust="spacing" textLength="125.6582" x="362" y="537.1069">completarAnalisis()</text></g><!--link ANALISIS_ABIERTO to ESTRUCTURACION_ABIERTA--><g class="link" data-entity-1="ANALISIS_ABIERTO" data-entity-2="ESTRUCTURACION_ABIERTA" data-source-line="29" data-uid="lnk30" id="link_ANALISIS_ABIERTO_ESTRUCTURACION_ABIERTA"><path d="M764.2,538.89 C858.49,543.72 1014.7979,551.7128 1122.2679,557.2228" fill="none" id="ANALISIS_ABIERTO-to-ESTRUCTURACION_ABIERTA" style="stroke:#181818;stroke-width:1;"/><polygon fill="#181818" points="1128.26,557.53,1119.4766,553.0744,1123.2666,557.274,1119.067,561.0639,1128.26,557.53" style="stroke:#181818;stroke-width:1;"/><text fill="#000000" font-family="sans-serif" font-size="13" lengthAdjust="spacing" textLength="220.8032" x="859" y="540.1069">estructurarCasosUsoYRequisitos()</text></g><!--link ESTRUCTURACION_ABIERTA to ANALISIS_ABIERTO--><g class="link" data-entity-1="ESTRUCTURACION_ABIERTA" data-entity-2="ANALISIS_ABIERTO" data-source-line="30" data-uid="lnk31" id="link_ESTRUCTURACION_ABIERTA_ANALISIS_ABIERTO"><path d="M1128.46,577.24 C1052.59,584.9 948.72,590.66 858,579.04 C826.87,575.05 799.0703,568.7087 770.1103,560.6487" fill="none" id="ESTRUCTURACION_ABIERTA-to-ANALISIS_ABIERTO" style="stroke:#181818;stroke-width:1;"/><polygon fill="#181818" points="764.33,559.04,771.928,565.3067,769.1469,560.3806,774.073,557.5996,764.33,559.04" style="stroke:#181818;stroke-width:1;"/><text fill="#000000" font-family="sans-serif" font-size="13" lengthAdjust="spacing" textLength="170.5933" x="884" y="575.1069">completarEstructuracion()</text></g><!--link ESTRUCTURACION_ABIERTA to ESCENARIOS_ABIERTO--><g class="link" data-entity-1="ESTRUCTURACION_ABIERTA" data-entity-2="ESCENARIOS_ABIERTO" data-source-line="32" data-uid="lnk33" id="link_ESTRUCTURACION_ABIERTA_ESCENARIOS_ABIERTO"><path d="M1345.52,563.04 C1423.68,563.04 1522.2,563.04 1595.64,563.04" fill="none" id="ESTRUCTURACION_ABIERTA-to-ESCENARIOS_ABIERTO" style="stroke:#181818;stroke-width:1;"/><polygon fill="#181818" points="1601.64,563.04,1592.64,559.04,1596.64,563.04,1592.64,567.04,1601.64,563.04" style="stroke:#181818;stroke-width:1;"/><text fill="#000000" font-family="sans-serif" font-size="13" lengthAdjust="spacing" textLength="176.9473" x="1395" y="559.1069">generarEscenariosPrueba()</text></g><!--link ESCENARIOS_ABIERTO to ESTRUCTURACION_ABIERTA--><g class="link" data-entity-1="ESCENARIOS_ABIERTO" data-entity-2="ESTRUCTURACION_ABIERTA" data-source-line="33" data-uid="lnk34" id="link_ESCENARIOS_ABIERTO_ESTRUCTURACION_ABIERTA"><path d="M1601.85,583.83 C1591.83,585.55 1581.72,587.03 1572,588.04 C1493.32,596.25 1472.86,594.32 1394,588.04 C1378.28,586.79 1367.6918,585.6736 1351.5118,583.4036" fill="none" id="ESCENARIOS_ABIERTO-to-ESTRUCTURACION_ABIERTA" style="stroke:#181818;stroke-width:1;"/><polygon fill="#181818" points="1345.57,582.57,1353.927,587.7816,1350.5215,583.2647,1355.0385,579.8592,1345.57,582.57" style="stroke:#181818;stroke-width:1;"/><text fill="#000000" font-family="sans-serif" font-size="13" lengthAdjust="spacing" textLength="150.7505" x="1408" y="584.1069">completarGeneracion()</text></g><!--link ESCENARIOS_ABIERTO to REVISION_ESCENARIOS_ABIERTA--><g class="link" data-entity-1="ESCENARIOS_ABIERTO" data-entity-2="REVISION_ESCENARIOS_ABIERTA" data-source-line="35" data-uid="lnk36" id="link_ESCENARIOS_ABIERTO_REVISION_ESCENARIOS_ABIERTA"><path d="M1746.96,537.94 C1766.75,529.77 1789.53,521.42 1811,516.04 C1885.02,497.5 1964.0186,488.0016 2031.8686,482.6516" fill="none" id="ESCENARIOS_ABIERTO-to-REVISION_ESCENARIOS_ABIERTA" style="stroke:#181818;stroke-width:1;"/><polygon fill="#181818" points="2037.85,482.18,2028.5634,478.8998,2032.8655,482.573,2029.1923,486.8751,2037.85,482.18" style="stroke:#181818;stroke-width:1;"/><text fill="#000000" font-family="sans-serif" font-size="13" lengthAdjust="spacing" textLength="195.4951" x="1812" y="482.1069">revisarEscenariosGenerados()</text></g><!--link REVISION_ESCENARIOS_ABIERTA to ESCENARIOS_ABIERTO--><g class="link" data-entity-1="REVISION_ESCENARIOS_ABIERTA" data-entity-2="ESCENARIOS_ABIERTO" data-source-line="36" data-uid="lnk37" id="link_REVISION_ESCENARIOS_ABIERTA_ESCENARIOS_ABIERTO"><path d="M2075.89,501.13 C2062.89,506.07 2049.88,511.71 2038,518.04 C2023.17,525.94 2023.71,535.09 2008,541.04 C1935.08,568.64 1851.9768,572.5868 1787.0868,570.4568" fill="none" id="REVISION_ESCENARIOS_ABIERTA-to-ESCENARIOS_ABIERTO" style="stroke:#181818;stroke-width:1;"/><polygon fill="#181818" points="1781.09,570.26,1789.9539,574.5531,1786.0873,570.424,1790.2164,566.5574,1781.09,570.26" style="stroke:#181818;stroke-width:1;"/><text fill="#000000" font-family="sans-serif" font-size="13" lengthAdjust="spacing" textLength="131.0918" x="1844" y="537.1069">completarRevision()</text></g><!--link ESCENARIOS_ABIERTO to KIWI_TCMS_ABIERTO--><g class="link" data-entity-1="ESCENARIOS_ABIERTO" data-entity-2="KIWI_TCMS_ABIERTO" data-source-line="38" data-uid="lnk39" id="link_ESCENARIOS_ABIERTO_KIWI_TCMS_ABIERTO"><path d="M1781.22,588.09 C1791.23,590.59 1801.31,592.97 1811,595.04 C1902.54,614.64 2002.8956,629.8348 2074.4256,639.6448" fill="none" id="ESCENARIOS_ABIERTO-to-KIWI_TCMS_ABIERTO" style="stroke:#181818;stroke-width:1;"/><polygon fill="#181818" points="2080.37,640.46,2071.997,635.2742,2075.4164,639.7806,2070.91,643.2,2080.37,640.46" style="stroke:#181818;stroke-width:1;"/><text fill="#000000" font-family="sans-serif" font-size="13" lengthAdjust="spacing" textLength="141.8892" x="1839" y="591.1069">publicarEnKiwiTCMS()</text></g><!--link KIWI_TCMS_ABIERTO to ESCENARIOS_ABIERTO--><g class="link" data-entity-1="KIWI_TCMS_ABIERTO" data-entity-2="ESCENARIOS_ABIERTO" data-source-line="41" data-uid="lnk42" id="link_KIWI_TCMS_ABIERTO_ESCENARIOS_ABIERTO"><path d="M2080.16,666.74 C2007.34,677.16 1899.27,684.02 1811,654.04 C1772.93,641.11 1741.7492,614.7361 1719.7292,592.5761" fill="none" id="KIWI_TCMS_ABIERTO-to-ESCENARIOS_ABIERTO" style="stroke:#181818;stroke-width:1;"/><polygon fill="#181818" points="1715.5,588.32,1719.0064,597.5235,1719.0243,591.8667,1724.6811,591.8846,1715.5,588.32" style="stroke:#181818;stroke-width:1;"/><text fill="#000000" font-family="sans-serif" font-size="13" lengthAdjust="spacing" textLength="149.7983" x="1835" y="650.1069">completarPublicacion()</text></g><!--link KIWI_TCMS_ABIERTO to KIWI_TCMS_ABIERTO--><g class="link" data-entity-1="KIWI_TCMS_ABIERTO" data-entity-2="KIWI_TCMS_ABIERTO" data-source-line="39" data-uid="lnk40" id="link_KIWI_TCMS_ABIERTO_KIWI_TCMS_ABIERTO"><path d="M2142.01,625.76 C2135.5,608.27 2142.66,591.04 2163.5,591.04 C2184.34,591.04 2193.593,602.6469 2187.083,620.1369" fill="none" id="KIWI_TCMS_ABIERTO-to-KIWI_TCMS_ABIERTO" style="stroke:#181818;stroke-width:1;"/><polygon fill="#181818" points="2184.99,625.76,2191.8782,618.7207,2186.7342,621.0741,2184.3807,615.93,2184.99,625.76" style="stroke:#181818;stroke-width:1;"/><text fill="#000000" font-family="sans-serif" font-size="13" lengthAdjust="spacing" textLength="167.1147" x="2080" y="582.1069">recibirEscenariosPrueba()</text></g><!--link KIWI_TCMS_ABIERTO to KIWI_TCMS_ABIERTO--><g class="link" data-entity-1="KIWI_TCMS_ABIERTO" data-entity-2="KIWI_TCMS_ABIERTO" data-source-line="40" data-uid="lnk41" id="link_KIWI_TCMS_ABIERTO_KIWI_TCMS_ABIERTO"><path d="M2130.12,625.74 C2103.26,593.93 2114.39,556.04 2163.5,556.04 C2212.61,556.04 2227.6109,589.3457 2200.7509,621.1557" fill="none" id="KIWI_TCMS_ABIERTO-to-KIWI_TCMS_ABIERTO-1" style="stroke:#181818;stroke-width:1;"/><polygon fill="#181818" points="2196.88,625.74,2205.7426,621.4442,2200.1058,621.9197,2199.6302,616.2829,2196.88,625.74" style="stroke:#181818;stroke-width:1;"/><text fill="#000000" font-family="sans-serif" font-size="13" lengthAdjust="spacing" textLength="194.708" x="2066.5" y="547.1069">almacenarEscenariosPrueba()</text></g><!--SRC=[jPNVJeCm5CRlUGekrMGlu8K9ich874p-Q8mnIs5rdWJeR8icFhtj8C2W86YyRS_tEzyvNyTIyYfCGKq6-pTXxe2HH03D3UFvuiLSBAxCfMT7Q-I6bkruxjQwTf0VMeQXFJuHUDMfPrwQ2IEOBMbIP2GNE94Dpivd8iWEn9yPAMIG3rEQsi79rJ0qEwH4chabN9I04H-s5NZ1DWhQFd3CWDcOKnvnAkNzchdzzGHrscbzJ4Ar7kkiqPNh_usmslcfLAlihcdUedrq7pc14qhCJUIgQ-iE1Tsj- -Iz00w2yfiYL_7Zb709_a4zDuy9kBgagUZcL9kjlKvpEeuke_mdTfNsE5qZdPJWl0TXIRd4dJm1QGI- -X-0Nkcal2r5uw2UZvw0Wj2Fx33okmXfdnM9A1YkFmDFpSkKl07bm5Yr8rHpgy76G2YmaMlvZjT6xKbEc08bHCO8b6zOGM9yjDGh7vsn5PP2DeQq61yzoA4ae7UlM8ny06-xAfaxMlvqXwM3SzRkV8KUzxPo7frjQA_R-aCHfv18I_aAFa5TIa2_S4Wk_sOX1jsQfpDmck6ZV39bV1ERSgGog6y0]--></g></svg>