<svg xmlns="http://www.w3.org/2000/svg" xmlns:xlink="http://www.w3.org/1999/xlink" contentStyleType="text/css" data-diagram-type="STATE" height="543px" preserveAspectRatio="none" style="width:565px;height:543px;background:#FFFFFF;" version="1.1" viewBox="0 0 565 543" width="565px" zoomAndPan="magnify"><defs/><g><path d="M19.5,7 L539.9,7 A12.5,12.5 0 0 1 552.4,19.5 L552.4,33.2969 L7,33.2969 L7,19.5 A12.5,12.5 0 0 1 19.5,7" fill="#F1F1F1"/><rect fill="none" height="530.9569" rx="12.5" ry="12.5" style="stroke:#181818;stroke-width:0.5;" width="545.4" x="7" y="7"/><line style="stroke:#181818;stroke-width:0.5;" x1="7" x2="552.4" y1="33.2969" y2="33.2969"/><text fill="#000000" font-family="sans-serif" font-size="14" lengthAdjust="spacing" textLength="79.7139" x="239.8431" y="24.9951">CasoDeUso</text><g id="CasoDeUso.Creado"><rect fill="#F1F1F1" height="50" rx="12.5" ry="12.5" style="stroke:#181818;stroke-width:0.5;" width="70.1758" x="234.5" y="109.9569"/><line style="stroke:#181818;stroke-width:0.5;" x1="234.5" x2="304.6758" y1="136.2538" y2="136.2538"/><text fill="#000000" font-family="sans-serif" font-size="14" lengthAdjust="spacing" textLength="50.1758" x="244.5" y="127.952">Creado</text></g><g id="CasoDeUso.EnEdicion"><rect fill="#F1F1F1" height="50" rx="12.5" ry="12.5" style="stroke:#181818;stroke-width:0.5;" width="88.3662" x="151.5" y="212.9569"/><line style="stroke:#181818;stroke-width:0.5;" x1="151.5" x2="239.8662" y1="239.2538" y2="239.2538"/><text fill="#000000" font-family="sans-serif" font-size="14" lengthAdjust="spacing" textLength="68.3662" x="161.5" y="230.952">EnEdicion</text></g><g id="CasoDeUso.Validado"><rect fill="#F1F1F1" height="50" rx="12.5" ry="12.5" style="stroke:#181818;stroke-width:0.5;" width="80.8535" x="19" y="315.9569"/><line style="stroke:#181818;stroke-width:0.5;" x1="19" x2="99.8535" y1="342.2538" y2="342.2538"/><text fill="#000000" font-family="sans-serif" font-size="14" lengthAdjust="spacing" textLength="60.8535" x="29" y="333.952">Validado</text></g><g id="CasoDeUso.Eliminado"><rect fill="#F1F1F1" height="50" rx="12.5" ry="12.5" style="stroke:#181818;stroke-width:0.5;" width="89.0566" x="103" y="418.9569"/><line style="stroke:#181818;stroke-width:0.5;" x1="103" x2="192.0566" y1="445.2538" y2="445.2538"/><text fill="#000000" font-family="sans-serif" font-size="14" lengthAdjust="spacing" textLength="69.0566" x="113" y="436.952">Eliminado</text></g><ellipse cx="269.5" cy="62.9569" fill="#222222" rx="10" ry="10" style="stroke:#222222;stroke-width:1;"/><ellipse cx="38.5" cy="516.9569" fill="none" rx="11" ry="11" style="stroke:#222222;stroke-width:1;"/><ellipse cx="38.5" cy="516.9569" fill="#222222" rx="6" ry="6" style="stroke:#222222;stroke-width:1;"/><!--link *start*CasoDeUso to Creado--><g class="link" data-entity-1=".start.CasoDeUso" data-entity-2="Creado" data-source-line="2" data-uid="lnk3" id="link_.start.CasoDeUso_Creado"><path d="M269.5,73.1069 C269.5,82.3769 269.5,91.0969 269.5,103.7369" fill="none" id="*start*CasoDeUso-to-Creado" style="stroke:#181818;stroke-width:1;"/><polygon fill="#181818" points="269.5,109.7369,273.5,100.7369,269.5,104.7369,265.5,100.7369,269.5,109.7369" style="stroke:#181818;stroke-width:1;"/></g><!--link Creado to EnEdicion--><g class="link" data-entity-1="Creado" data-entity-2="EnEdicion" data-source-line="9" data-uid="lnk4" id="link_Creado_EnEdicion"><path d="M240.28,160.2869 C234.65,165.7569 229.08,171.7769 224.5,177.9569 C216.61,188.5869 212.3609,196.2158 207.3909,207.3758" fill="none" id="Creado-to-EnEdicion" style="stroke:#181818;stroke-width:1;"/><polygon fill="#181818" points="204.95,212.8569,212.2654,206.2626,206.9841,208.2893,204.9574,203.008,204.95,212.8569" style="stroke:#181818;stroke-width:1;"/><text fill="#000000" font-family="sans-serif" font-size="13" lengthAdjust="spacing" textLength="104.4253" x="225.5" y="191.0238">editarCasoUso()</text></g><!--link EnEdicion to Validado--><g class="link" data-entity-1="EnEdicion" data-entity-2="Validado" data-source-line="10" data-uid="lnk5" id="link_EnEdicion_Validado"><path d="M151.24,242.3969 C123.69,246.9369 89.75,257.3169 69.5,280.9569 C61.39,290.4269 58.9763,297.9842 58.3963,309.7142" fill="none" id="EnEdicion-to-Validado" style="stroke:#181818;stroke-width:1;"/><polygon fill="#181818" points="58.1,315.7069,62.5396,306.9154,58.3469,310.713,54.5494,306.5203,58.1,315.7069" style="stroke:#181818;stroke-width:1;"/><text fill="#000000" font-family="sans-serif" font-size="13" lengthAdjust="spacing" textLength="110.6016" x="70.5" y="294.0238">validarCasoUso()</text></g><!--link Creado to Eliminado--><g class="link" data-entity-1="Creado" data-entity-2="Eliminado" data-source-line="12" data-uid="lnk6" id="link_Creado_Eliminado"><path d="M304.79,152.0669 C314.95,158.5769 324.82,167.1469 330.5,177.9569 C353.3,221.3369 543.4,44.2969 323.5,365.9569 C293.76,409.4569 239.5751,427.4281 197.9351,435.6981" fill="none" id="Creado-to-Eliminado" style="stroke:#181818;stroke-width:1;"/><polygon fill="#181818" points="192.05,436.8669,201.6568,439.037,196.9542,435.8929,200.0984,431.1903,192.05,436.8669" style="stroke:#181818;stroke-width:1;"/><text fill="#000000" font-family="sans-serif" font-size="13" lengthAdjust="spacing" textLength="119.2026" x="378.5" y="294.0238">eliminarCasoUso()</text></g><!--link EnEdicion to Eliminado--><g class="link" data-entity-1="EnEdicion" data-entity-2="Eliminado" data-source-line="13" data-uid="lnk7" id="link_EnEdicion_Eliminado"><path d="M197.7,263.0269 C199.73,295.5869 200.08,354.8769 181.5,400.9569 C178.97,407.2169 178.8023,408.5037 174.6523,413.9837" fill="none" id="EnEdicion-to-Eliminado" style="stroke:#181818;stroke-width:1;"/><polygon fill="#181818" points="171.03,418.7669,179.6523,414.007,174.0486,414.7809,173.2747,409.1772,171.03,418.7669" style="stroke:#181818;stroke-width:1;"/><text fill="#000000" font-family="sans-serif" font-size="13" lengthAdjust="spacing" textLength="119.2026" x="199.5" y="345.5238">eliminarCasoUso()</text></g><!--link Validado to Eliminado--><g class="link" data-entity-1="Validado" data-entity-2="Eliminado" data-source-line="14" data-uid="lnk8" id="link_Validado_Eliminado"><path d="M54.38,366.0269 C53.27,377.4469 53.99,390.7769 60.5,400.9569 C70.08,415.9369 81.054,423.5168 97.174,429.8368" fill="none" id="Validado-to-Eliminado" style="stroke:#181818;stroke-width:1;"/><polygon fill="#181818" points="102.76,432.0269,95.841,425.0178,98.105,430.2018,92.9209,432.4658,102.76,432.0269" style="stroke:#181818;stroke-width:1;"/><text fill="#000000" font-family="sans-serif" font-size="13" lengthAdjust="spacing" textLength="119.2026" x="61.5" y="397.0238">eliminarCasoUso()</text></g><!--link Validado to *end*CasoDeUso--><g class="link" data-entity-1="Validado" data-entity-2=".end.CasoDeUso" data-source-line="16" data-uid="lnk10" id="link_Validado_.end.CasoDeUso"><path d="M54.47,366.3269 C53.39,372.0869 52.33,378.2269 51.5,383.9569 C44.99,429.0869 41.2044,477.3819 39.6244,499.6619" fill="none" id="Validado-to-*end*CasoDeUso" style="stroke:#181818;stroke-width:1;"/><polygon fill="#181818" points="39.2,505.6469,43.8266,496.9524,39.5537,500.6594,35.8467,496.3865,39.2,505.6469" style="stroke:#181818;stroke-width:1;"/></g><!--link Eliminado to *end*CasoDeUso--><g class="link" data-entity-1="Eliminado" data-entity-2=".end.CasoDeUso" data-source-line="17" data-uid="lnk11" id="link_Eliminado_.end.CasoDeUso"><path d="M110.6,468.9969 C88.12,483.6369 66.1876,497.9222 52.4776,506.8522" fill="none" id="Eliminado-to-*end*CasoDeUso" style="stroke:#181818;stroke-width:1;"/><polygon fill="#181818" points="47.45,510.1269,57.1745,508.5665,51.6396,507.398,52.8082,501.8631,47.45,510.1269" style="stroke:#181818;stroke-width:1;"/></g><!--SRC=[Aov9B4bLS4uipdT93ItELwZcKb28refLqDMrKt0kIarCoUS2YXH3L47uCAvhdcjAPd9cVXvS92mn9pC5HKbEPcvc7jGGY7QmoN2j2bOAgIcP9Ob581S0xTVG12f4o8BKmWm5AYq3Cv7KefaAimraAeIDnrn2gk7s4bQChXeOW23hu7fWOhK0]--></g></svg>