<svg xmlns="http://www.w3.org/2000/svg" xmlns:xlink="http://www.w3.org/1999/xlink" contentStyleType="text/css" data-diagram-type="STATE" height="561px" preserveAspectRatio="none" style="width:699px;height:561px;background:#FFFFFF;" version="1.1" viewBox="0 0 699 561" width="699px" zoomAndPan="magnify"><defs/><g><path d="M19.5,7 L673.96,7 A12.5,12.5 0 0 1 686.46,19.5 L686.46,33.2969 L7,33.2969 L7,19.5 A12.5,12.5 0 0 1 19.5,7" fill="#F1F1F1"/><rect fill="none" height="548.0769" rx="12.5" ry="12.5" style="stroke:#181818;stroke-width:0.5;" width="679.46" x="7" y="7"/><line style="stroke:#181818;stroke-width:0.5;" x1="7" x2="686.46" y1="33.2969" y2="33.2969"/><text fill="#000000" font-family="sans-serif" font-size="14" lengthAdjust="spacing" textLength="110.1338" x="291.6631" y="24.9951">Documentacion</text><g id="Documentacion.Creada"><rect fill="#F1F1F1" height="50" rx="12.5" ry="12.5" style="stroke:#181818;stroke-width:0.5;" width="70.1895" x="307" y="127.0769"/><line style="stroke:#181818;stroke-width:0.5;" x1="307" x2="377.1895" y1="153.3737" y2="153.3737"/><text fill="#000000" font-family="sans-serif" font-size="14" lengthAdjust="spacing" textLength="50.1895" x="317" y="145.072">Creada</text></g><g id="Documentacion.EnEdicion"><rect fill="#F1F1F1" height="50" rx="12.5" ry="12.5" style="stroke:#181818;stroke-width:0.5;" width="88.3662" x="201" y="230.0769"/><line style="stroke:#181818;stroke-width:0.5;" x1="201" x2="289.3662" y1="256.3738" y2="256.3738"/><text fill="#000000" font-family="sans-serif" font-size="14" lengthAdjust="spacing" textLength="68.3662" x="211" y="248.072">EnEdicion</text></g><g id="Documentacion.Analizada"><rect fill="#F1F1F1" height="50" rx="12.5" ry="12.5" style="stroke:#181818;stroke-width:0.5;" width="88.2021" x="19" y="333.0769"/><line style="stroke:#181818;stroke-width:0.5;" x1="19" x2="107.2021" y1="359.3738" y2="359.3738"/><text fill="#000000" font-family="sans-serif" font-size="14" lengthAdjust="spacing" textLength="68.2021" x="29" y="351.072">Analizada</text></g><g id="Documentacion.Eliminada"><rect fill="#F1F1F1" height="50" rx="12.5" ry="12.5" style="stroke:#181818;stroke-width:0.5;" width="89.0703" x="129.5" y="436.0769"/><line style="stroke:#181818;stroke-width:0.5;" x1="129.5" x2="218.5703" y1="462.3738" y2="462.3738"/><text fill="#000000" font-family="sans-serif" font-size="14" lengthAdjust="spacing" textLength="69.0703" x="139.5" y="454.072">Eliminada</text></g><ellipse cx="342" cy="80.0769" fill="#222222" rx="10" ry="10" style="stroke:#222222;stroke-width:1;"/><ellipse cx="42" cy="534.0769" fill="none" rx="11" ry="11" style="stroke:#222222;stroke-width:1;"/><ellipse cx="42" cy="534.0769" fill="#222222" rx="6" ry="6" style="stroke:#222222;stroke-width:1;"/><!--link *start*Documentacion to Creada--><g class="link" data-entity-1=".start.Documentacion" data-entity-2="Creada" data-source-line="2" data-uid="lnk3" id="link_.start.Documentacion_Creada"><path d="M342,90.2269 C342,99.4969 342,108.2169 342,120.8569" fill="none" id="*start*Documentacion-to-Creada" style="stroke:#181818;stroke-width:1;"/><polygon fill="#181818" points="342,126.8569,346,117.8569,342,121.8569,338,117.8569,342,126.8569" style="stroke:#181818;stroke-width:1;"/></g><!--link Creada to EnEdicion--><g class="link" data-entity-1="Creada" data-entity-2="EnEdicion" data-source-line="9" data-uid="lnk4" id="link_Creada_EnEdicion"><path d="M306.71,169.8169 C295.25,176.4969 283.14,185.0069 274,195.0769 C264.95,205.0469 260.3915,212.83 255.6115,224.28" fill="none" id="Creada-to-EnEdicion" style="stroke:#181818;stroke-width:1;"/><polygon fill="#181818" points="253.3,229.8169,260.4585,223.0525,255.2262,225.2028,253.0759,219.9706,253.3,229.8169" style="stroke:#181818;stroke-width:1;"/><text fill="#000000" font-family="sans-serif" font-size="13" lengthAdjust="spacing" textLength="150.6807" x="275" y="208.1438">editarDocumentacion()</text></g><!--link EnEdicion to Analizada--><g class="link" data-entity-1="EnEdicion" data-entity-2="Analizada" data-source-line="10" data-uid="lnk5" id="link_EnEdicion_Analizada"><path d="M200.91,260.4069 C153.63,266.0469 83.03,277.6769 66,298.0769 C58.11,307.5269 56.4508,315.0985 57.4508,326.8385" fill="none" id="EnEdicion-to-Analizada" style="stroke:#181818;stroke-width:1;"/><polygon fill="#181818" points="57.96,332.8169,61.1817,323.5099,57.5356,327.8349,53.2106,324.1888,57.96,332.8169" style="stroke:#181818;stroke-width:1;"/><text fill="#000000" font-family="sans-serif" font-size="13" lengthAdjust="spacing" textLength="163.9409" x="67" y="311.1438">analizarDocumentacion()</text></g><!--link Creada to Eliminada--><g class="link" data-entity-1="Creada" data-entity-2="Eliminada" data-source-line="12" data-uid="lnk6" id="link_Creada_Eliminada"><path d="M377.06,161.1969 C395.01,167.3169 415.29,177.7369 426,195.0769 C451.7,236.6669 677.46,44.2969 423,383.0769 C375.44,446.3869 282.5473,458.9485 224.7273,460.6685" fill="none" id="Creada-to-Eliminada" style="stroke:#181818;stroke-width:1;"/><polygon fill="#181818" points="218.73,460.8469,227.845,464.5775,223.7278,460.6982,227.6071,456.581,218.73,460.8469" style="stroke:#181818;stroke-width:1;"/><text fill="#000000" font-family="sans-serif" font-size="13" lengthAdjust="spacing" textLength="165.458" x="482" y="311.1438">eliminarDocumentacion()</text></g><!--link EnEdicion to Eliminada--><g class="link" data-entity-1="EnEdicion" data-entity-2="Eliminada" data-source-line="13" data-uid="lnk7" id="link_EnEdicion_Eliminada"><path d="M248.77,280.1069 C252.76,313.3869 255.5,374.3669 231,418.0769 C227.21,424.8269 226.3691,426.8715 220.4191,432.0415" fill="none" id="EnEdicion-to-Eliminada" style="stroke:#181818;stroke-width:1;"/><polygon fill="#181818" points="215.89,435.9769,225.3072,433.0932,219.6643,432.6974,220.0601,427.0544,215.89,435.9769" style="stroke:#181818;stroke-width:1;"/><text fill="#000000" font-family="sans-serif" font-size="13" lengthAdjust="spacing" textLength="165.458" x="253" y="362.6438">eliminarDocumentacion()</text></g><!--link Analizada to Eliminada--><g class="link" data-entity-1="Analizada" data-entity-2="Eliminada" data-source-line="14" data-uid="lnk8" id="link_Analizada_Eliminada"><path d="M57.54,383.1069 C56.29,394.6469 57,408.0969 64,418.0769 C78.85,439.2469 100.0211,448.4632 123.5711,453.6632" fill="none" id="Analizada-to-Eliminada" style="stroke:#181818;stroke-width:1;"/><polygon fill="#181818" points="129.43,454.9569,121.5041,449.1104,124.5476,453.8788,119.7792,456.9223,129.43,454.9569" style="stroke:#181818;stroke-width:1;"/><text fill="#000000" font-family="sans-serif" font-size="13" lengthAdjust="spacing" textLength="165.458" x="65" y="414.1438">eliminarDocumentacion()</text></g><!--link Analizada to *end*Documentacion--><g class="link" data-entity-1="Analizada" data-entity-2=".end.Documentacion" data-source-line="16" data-uid="lnk10" id="link_Analizada_.end.Documentacion"><path d="M57.27,383.4169 C56.05,389.1769 54.87,395.3269 54,401.0769 C47.15,446.1169 44.0449,494.4557 42.8349,516.7657" fill="none" id="Analizada-to-*end*Documentacion" style="stroke:#181818;stroke-width:1;"/><polygon fill="#181818" points="42.51,522.7569,46.9915,513.9867,42.7808,517.7642,39.0033,513.5535,42.51,522.7569" style="stroke:#181818;stroke-width:1;"/></g><!--link Eliminada to *end*Documentacion--><g class="link" data-entity-1="Eliminada" data-entity-2=".end.Documentacion" data-source-line="17" data-uid="lnk11" id="link_Eliminada_.end.Documentacion"><path d="M129.31,486.1169 C101.19,501.2369 72.5637,516.6338 56.5437,525.2538" fill="none" id="Eliminada-to-*end*Documentacion" style="stroke:#181818;stroke-width:1;"/><polygon fill="#181818" points="51.26,528.0969,61.0809,527.3548,55.6631,525.7277,57.2902,520.3099,51.26,528.0969" style="stroke:#181818;stroke-width:1;"/></g><!--SRC=[Aov9B4bLSCbFBirDpIj9JCxCprEevb9GYDQALT3LjLDmBafDJ4da0eeKWrL2-J2kQvvhIYP84rp4CIyn9xCAHKrEPcvc7jGKY7wmqN2z2bOAgIcP9Ob5ACxGq0GgHwW1wO2R3TIH265Zw46p0sOto0u8cw0jnEb1k8LOFHYQW64CiXok5IPM2m00]--></g></svg>